<?xml version="1.0" encoding="UTF-8" standalone="no"?>
<!-- Created with Inkscape (http://www.inkscape.org/) -->

<svg
   width="19.338015mm"
   height="20.495831mm"
   viewBox="0 0 19.338015 20.495831"
   version="1.1"
   id="svg1"
   xml:space="preserve"
   xmlns="http://www.w3.org/2000/svg"
   xmlns:svg="http://www.w3.org/2000/svg"><defs
     id="defs1" /><g
     id="layer1"
     transform="translate(-2.0574649,-41.904753)"><path
       style="fill:#000000;stroke-width:0.264583"
       d="m 20.213563,62.068062 0.399626,-0.33166 0.391146,-0.75639 0.391146,-0.75639 -0.503217,-0.63974 -0.503217,-0.63973 0.122919,-1.27925 0.122919,-1.27924 -0.425168,-0.35286 -0.425169,-0.35286 v -0.62906 -0.62906 h -0.752743 -0.752743 l -0.454871,-0.50263 -0.454872,-0.50262 0.136923,-2.87081 0.136923,-2.87081 0.16815,-1.65365 0.168151,-1.653646 H 17.48567 16.991874 L 16.403836,43.955778 15.815798,43.5439 v 0.113136 0.113135 l -1.231276,-0.230027 -1.231276,-0.230027 -0.921263,-0.702681 -0.921262,-0.702681 -1.35319,0.343953 -1.353191,0.343953 -0.595313,0.636546 -0.595312,0.636546 v 0.545565 0.545565 L 6.886111,44.819297 6.158507,44.681711 5.497048,44.50648 4.83559,44.331248 l 0.468585,0.299049 0.468586,0.299049 -0.169017,0.273475 -0.169017,0.273475 0.560327,0.757883 0.560328,0.757883 v 0.24444 0.24444 l -0.470834,0.12312 -0.470833,0.12313 -0.333349,-0.35685 -0.333348,-0.356853 H 4.155396 3.363774 l -0.164176,0.427833 -0.164175,0.42784 0.246163,0.69664 0.246164,0.69665 1.238231,0.011 1.23823,0.0111 0.16473,0.16473 0.164731,0.16473 -0.30267,0.56554 -0.302669,0.56554 -1.111931,-0.16674 -1.111931,-0.16674 -0.723503,0.5691 -0.723503,0.56911 v 0.88654 0.88654 l 0.635323,0.75504 0.635323,0.75503 0.09228,0.65433 0.09228,0.65432 0.79375,0.35763 0.79375,0.35763 0.588475,0.90719 0.588474,0.90719 -0.853058,0.52007 -0.853057,0.52007 -0.246039,0.0831 -0.246039,0.0831 0.171589,0.44716 0.171589,0.44715 H 4.979218 5.53633 l 1.584127,-1.511 1.584126,-1.511 -0.123885,-0.47374 -0.123886,-0.47374 0.239909,0.14827 0.239909,0.14827 v -0.28019 -0.2802 h 0.529166 0.529167 v 0.41183 0.41183 l 0.818196,-0.47797 0.818197,-0.47798 0.379223,-0.72761 0.379223,-0.7276 0.191643,0.005 0.191643,0.005 0.623083,0.65689 0.623083,0.65689 0.699834,0.004 0.699833,0.004 0.354657,0.22479 0.354657,0.22479 0.308008,0.63106 0.308007,0.63105 0.852963,0.39688 0.852964,0.39687 0.0057,0.47182 0.0057,0.47181 0.676153,1.33433 0.676152,1.33432 z"
       id="path638" /></g></svg>
