<?xml version="1.0" encoding="UTF-8" standalone="no"?>
<!-- Created with Inkscape (http://www.inkscape.org/) -->

<svg
   width="19.098196mm"
   height="19.314589mm"
   viewBox="0 0 19.098196 19.314589"
   version="1.1"
   id="svg1"
   xml:space="preserve"
   xmlns="http://www.w3.org/2000/svg"
   xmlns:svg="http://www.w3.org/2000/svg"><defs
     id="defs1" /><g
     id="layer1"
     transform="translate(-95.90684,-57.57799)"><path
       style="display:inline;fill:#000000;stroke-width:0.264583"
       d="m 109.22406,76.892478 h 1.04215 l -0.155,-1.12448 -0.155,-1.124479 0.8504,-1.322916 0.8504,-1.322917 0.0369,-0.396875 0.0369,-0.396875 0.0453,-0.463021 0.0453,-0.463021 0.59532,-0.004 0.59531,-0.004 0.29819,-0.194384 0.29819,-0.194387 0.69831,-1.751335 0.69831,-1.751335 -0.66258,-1.159082 -0.66259,-1.159081 -0.003,-1.089319 -0.003,-1.089321 -1.07879,-0.713907 -1.07878,-0.713904 -1.10403,-0.19305 -1.10403,-0.193048 -1.98437,0.340161 -1.98438,0.340162 -0.68956,0.240027 -0.68957,0.240028 -0.34075,-0.210593 -0.34075,-0.210595 0.16531,-1.033735 0.1653,-1.033738 -0.40676,-0.580728 -0.40679,-0.580739 h -0.34086 -0.34087 l -0.40173,0.46302 -0.40172,0.463021 0.06,2.182813 0.06,2.182812 h -0.19934 -0.19933 l -0.56504,1.202076 -0.565037,1.202076 -0.25785,-0.159358 -0.257837,-0.159356 v 0.295812 0.295812 l -0.25131,-0.155315 -0.251307,-0.155319 -0.30032,0.602724 -0.300317,0.602723 -0.961114,0.842018 -0.961107,0.842021 -0.0333,1.274646 -0.0333,1.274648 -0.1937,0.60206 -0.19369,0.602062 0.982717,1.367882 0.982727,1.36788 0.175647,0.656781 0.17565,0.65678 1.329731,0.07921 1.329737,0.07921 1.16988,-0.199388 1.16987,-0.199387 0.41272,-0.872342 0.41272,-0.872342 0.38103,-0.241088 0.38103,-0.241088 h 1.19063 1.19062 l 0.35952,0.22779 0.35952,0.227793 -0.18588,1.100225 -0.18588,1.100222 0.32178,0.387726 0.32178,0.387723 z"
       id="path498" /></g></svg>
