<?xml version="1.0" encoding="UTF-8" standalone="no"?>
<!-- Created with Inkscape (http://www.inkscape.org/) -->

<svg
   width="17.987566mm"
   height="23.295591mm"
   viewBox="0 0 17.987566 23.295591"
   version="1.1"
   id="svg1"
   xml:space="preserve"
   xmlns="http://www.w3.org/2000/svg"
   xmlns:svg="http://www.w3.org/2000/svg"><defs
     id="defs1" /><g
     id="layer1"
     transform="translate(-22.116171,-84.737997)"><path
       style="fill:#000000;stroke-width:0.264583"
       d="m 37.395833,108.02189 0.330729,0.0117 v -0.26557 -0.26558 l 1.188588,-1.25578 1.188587,-1.25578 -1.320879,-0.08 -1.320879,-0.08 v -0.50704 -0.50703 l 1.101388,-1.60493 1.101387,-1.60494 -0.836803,-0.863358 -0.836806,-0.863364 0.0016,-0.38428 0.0016,-0.38428 0.792075,-0.45072 0.79225,-0.45071 v -1.20293 -1.20293 h -0.805775 -0.805778 l -0.583285,0.61086 -0.583287,0.61087 -0.264583,0.43941 -0.264583,0.43942 -1.100315,-0.15584 -1.100318,-0.15583 -0.272113,-1.07205 -0.272113,-1.07204 0.380243,-0.7353 0.380241,-0.73531 v -0.82536 -0.82537 l -0.790081,-1.14834 -0.790077,-1.14834 -0.534609,0.13981 -0.53461,0.1398 -0.876911,-0.95736 -0.876911,-0.95737 h -1.72103 -1.72103 l -0.614195,-0.65378 -0.614194,-0.65378 -0.95328,-0.30175 -0.953281,-0.30175 -0.595312,-0.37348 -0.595313,-0.37349 0.0094,0.20454 0.0094,0.20453 0.378124,0.66146 0.378123,0.66146 0.0094,1.25393 0.0094,1.25394 0.499347,1.31417 0.499348,1.31418 0.81674,1.32737 0.816741,1.32737 0.16508,0.65773 0.16508,0.65773 0.370915,0.30783 0.370916,0.30784 v -0.85949 -0.85949 l -0.967408,-2.41406 -0.967409,-2.41405 -0.195671,-0.86131 -0.195671,-0.8613 0.23111,-0.14283 0.23111,-0.14284 1.357119,2.85623 1.35712,2.85622 0.241876,0.0901 0.241875,0.09 0.391308,0.7567 0.391308,0.75671 v 1.48494 1.48494 l 1.785937,0.8043 1.785938,0.804294 0.463021,0.410738 0.463021,0.41075 v 0.95368 0.95368 l 0.511651,0.31953 0.511651,0.31954 0.168955,1.26546 0.168955,1.26547 0.282871,0.74049 0.282874,0.74049 0.954749,0.50459 0.954752,0.50459 z"
       id="path311" /></g></svg>
