<?xml version="1.0" encoding="UTF-8" standalone="no"?>
<!-- Created with Inkscape (http://www.inkscape.org/) -->

<svg
   width="22.769871mm"
   height="24.607801mm"
   viewBox="0 0 22.769871 24.607801"
   version="1.1"
   id="svg1"
   xml:space="preserve"
   xmlns="http://www.w3.org/2000/svg"
   xmlns:svg="http://www.w3.org/2000/svg"><defs
     id="defs1" /><g
     id="layer1"
     transform="translate(-130.8721,-60.751337)"><path
       style="display:inline;fill:#000000;stroke-width:0.264583"
       d="m 143.21033,85.35914 h 0.65254 l 0.39026,-0.93403 0.39027,-0.93404 0.79494,-0.15898 0.79494,-0.15899 0.49302,-0.62677 0.49301,-0.62677 0.49109,10e-4 0.49109,0.001 0.88564,0.53994 0.88564,0.53995 0.9003,-0.6867 0.9003,-0.68682 v -0.647995 -0.647994 h -0.23416 -0.23415 l -0.44553,-0.679961 -0.44552,-0.67996 -0.0234,-0.822714 -0.0234,-0.822714 0.92902,-0.81243 0.92903,-0.812429 0.70836,-0.961861 0.70836,-0.961861 -0.006,-0.757931 -0.006,-0.757931 -0.068,-1.344633 -0.068,-1.344631 -0.81003,-0.922891 -0.81004,-0.922888 -0.43125,0.272024 -0.43125,0.272023 -0.49934,-0.451898 -0.49933,-0.451897 h -0.97136 -0.97135 l -0.52917,-0.529167 -0.52916,-0.529167 v -0.413506 -0.413507 l -0.46303,0.0471 -0.46302,0.0471 -0.33287,-0.03047 -0.33287,-0.03047 -0.41316,-1.032589 -0.41316,-1.032589 -0.90761,-0.82591 -0.90762,-0.82591 V 61.436121 61.07397 l -0.42038,-0.161313 -0.42038,-0.161317 -0.67363,0.529884 -0.67364,0.529881 h -0.23996 -0.23997 l -0.58425,0.548896 -0.58425,0.548894 -1.34539,-0.165602 -1.34539,-0.165603 -0.31768,0.382781 -0.31768,0.38278 -0.91005,0.170725 -0.91005,0.170725 -0.93261,0.389671 -0.9326,0.389668 v 0.393324 0.393324 h -0.28664 -0.28663 l 0.10946,0.328367 0.10945,0.328366 -0.35199,0.351991 -0.35199,0.351991 v 0.889918 0.889918 l 0.28114,0.739445 0.28113,0.739444 0.18189,0.137676 0.18188,0.137676 0.49916,0.981927 0.49916,0.981927 0.51224,-0.651198 0.51223,-0.651198 h 0.61637 0.61637 l 0.28337,0.812874 0.28337,0.812874 -0.64846,0.64846 -0.64846,0.648459 0.16528,1.205833 0.16527,1.205833 0.65453,0.248852 0.65452,0.248848 -0.16117,0.805871 -0.16118,0.805868 0.81566,0.744982 0.81565,0.744982 -0.28956,0.178956 -0.28955,0.178953 v 0.485246 0.485243 l 0.37192,0.142722 0.37193,0.142721 0.17826,0.811635 0.17826,0.81162 h 0.78123 0.78123 l 0.85139,0.37007 0.8514,0.37007 0.75003,0.82056 0.75003,0.82055 z"
       id="path413" /></g></svg>
