<?xml version="1.0" encoding="UTF-8" standalone="no"?>
<!-- Created with Inkscape (http://www.inkscape.org/) -->

<svg
   width="17.243008mm"
   height="36.040874mm"
   viewBox="0 0 17.243008 36.040874"
   version="1.1"
   id="svg1"
   xml:space="preserve"
   xmlns="http://www.w3.org/2000/svg"
   xmlns:svg="http://www.w3.org/2000/svg"><defs
     id="defs1" /><g
     id="layer1"
     transform="translate(-43.561353,-131.68065)"><path
       style="fill:#000000;stroke-width:0.264583"
       d="m 51.027875,167.59611 1.304245,-0.12532 0.390078,-0.39008 0.39008,-0.39008 -1.066379,-0.70569 -1.066379,-0.7057 -0.172829,-0.68861 -0.172831,-0.68861 0.348692,-1.45351 0.348691,-1.45351 0.527331,-0.67039 0.527328,-0.67039 -0.849974,-0.69372 -0.849974,-0.69371 0.838552,-1.14026 0.838554,-1.14025 -0.140224,-1.5464 -0.140221,-1.5464 0.89553,-0.16801 0.89553,-0.168 0.25849,-0.48299 0.25849,-0.48299 -0.155165,-0.15517 -0.155168,-0.15517 1.229427,-0.30957 1.229428,-0.30957 0.919422,-0.91942 0.919425,-0.91943 v -0.5201 -0.5201 l -0.275993,-0.5157 -0.275994,-0.5157 0.34214,-0.10627 0.342138,-0.10626 0.695137,-0.15129 0.69514,-0.15128 0.451885,-0.68966 0.451884,-0.68967 -0.551712,-0.58726 -0.551709,-0.58727 v -0.43394 -0.43394 l -0.661458,-0.66146 -0.661458,-0.66146 v -0.37804 -0.37805 l -0.529167,-0.13838 -0.529167,-0.13838 v -0.25297 -0.25297 l 0.797166,-1.00311 0.797168,-1.0031 -0.08254,-0.0825 -0.08254,-0.0825 -1.288632,0.65239 -1.288634,0.65239 H 55.8237 55.475723 l 0.161817,-1.54816 0.161813,-1.54816 -1.158057,-0.15375 -1.15806,-0.15376 -0.680728,-0.81163 -0.680725,-0.81163 h -0.849937 -0.849937 l -0.643525,-0.42165 -0.643527,-0.42166 -0.635188,0.73845 -0.635191,0.73846 -1.688539,-1.50622 -1.688536,-1.50623 -0.08002,1.32295 -0.08002,1.32294 0.409591,2.37346 0.409594,2.37346 -0.452234,0.94835 -0.452234,0.94834 0.453385,1.27654 0.453387,1.27654 v 1.12019 1.12018 l -0.79375,0.90403 -0.79375,0.90403 0.0068,0.7184 0.0068,0.7184 0.50832,2.24837 0.508317,2.24837 0.543222,0.43987 0.543221,0.43988 v 0.95857 0.95857 l -0.679246,1.34043 -0.679249,1.34043 0.145396,0.1454 0.145394,0.14539 0.574201,0.29132 0.574199,0.29132 0.06381,1.48617 0.0638,1.48617 0.329129,0.6305 0.329128,0.63049 1.220364,1.36162 1.220365,1.36162 0.369157,0.45429 0.369157,0.45429 z"
       id="path38" /></g></svg>
