<?xml version="1.0" encoding="UTF-8" standalone="no"?>
<!-- Created with Inkscape (http://www.inkscape.org/) -->

<svg
   width="30.689478mm"
   height="33.396202mm"
   viewBox="0 0 30.689478 33.396202"
   version="1.1"
   id="svg1"
   xml:space="preserve"
   xmlns="http://www.w3.org/2000/svg"
   xmlns:svg="http://www.w3.org/2000/svg"><defs
     id="defs1" /><g
     id="layer1"
     transform="translate(-84.489649,-92.371267)"><path
       style="display:inline;fill:#000000;stroke-width:0.264583"
       d="m 106.11724,125.58213 0.99219,-0.18541 0.35754,-0.29555 0.35754,-0.29556 1.02366,-0.0257 1.02366,-0.0257 0.20206,-0.20206 0.20205,-0.20206 0.0985,-1.95145 0.0985,-1.95146 1.95622,-1.49835 1.95622,-1.49832 v -1.52708 -1.52708 l 0.39688,-0.32938 0.39687,-0.32937 v -1.60527 -1.60527 l -1.38906,-1.2945 -1.38906,-1.29451 -1.24798,-0.6397 -1.24797,-0.63971 h -0.74635 -0.74635 l -1.22255,-1.25677 -1.22255,-1.25677 -0.39823,-1.19851 -0.39823,-1.19852 -0.18361,-0.97873 -0.18361,-0.978737 0.72625,-1.262324 0.72625,-1.262331 0.8676,-0.838517 0.8676,-0.838514 v -1.204144 -1.204134 l -0.90516,-0.169807 -0.90516,-0.16981 -0.67235,0.440537 -0.67235,0.440537 -0.58326,-0.198707 -0.58325,-0.19872 -0.17307,0.044 -0.17306,0.044 -0.32236,-0.388407 -0.32236,-0.38842 h -0.2478 -0.2478 l 0.14955,0.24198 0.14956,0.24199 -0.33238,0.115907 -0.33238,0.11592 -0.33074,-0.12163 -0.33073,-0.121617 v -0.36857 -0.368557 h -0.91042 -0.910431 l -0.15638,0.253017 -0.15638,0.25303 -0.36811,-0.14125 -0.36811,-0.14126 -0.29418,0.549677 -0.29419,0.549687 h -0.32915 -0.32916 l -0.3814,-0.529157 -0.38141,-0.529167 h -0.20686 -0.20686 l -0.96246,1.065324 -0.96246,1.065314 -0.13577,-0.135777 -0.13578,-0.13577 -0.86248,0.533037 -0.86249,0.533037 -1.10143,-0.0735 -1.10144,-0.0735 -0.51167,1.322914 -0.51167,1.322911 0.0331,0.396867 0.0331,0.39688 -0.0305,0.610927 -0.0305,0.610914 -0.26459,-0.163517 -0.26458,-0.16352 v 0.324297 0.32429 l -0.16708,-0.16708 -0.16708,-0.16708 -0.52075,0.2787 -0.52074,0.27869 0.12197,0.63804 0.12197,0.63804 h -0.21728 -0.21727 l -0.32533,1.08587 -0.32534,1.08588 -0.34522,0.13247 -0.34523,0.13248 0.14452,0.23383 0.14451,0.23382 -0.41062,-0.15756 -0.41061,-0.15757 v 0.52709 0.52709 l 0.44302,1.37174 0.44303,1.37175 -0.43606,0.73818 -0.43605,0.73818 0.16942,0.16941 0.16941,0.16942 -0.24253,0.002 -0.24253,0.002 -0.065,1.55385 -0.065,1.55384 0.39571,0.32841 0.39571,0.32842 -0.004,0.29833 -0.004,0.29854 -0.25648,-0.39688 -0.25648,-0.39687 -0.004,0.31183 -0.004,0.31183 0.33072,0.34998 0.33073,0.34998 0.98207,1.22245 0.98206,1.22244 -0.16626,0.16626 -0.16627,0.16627 h 0.3243 0.32429 l -0.17071,0.27622 -0.17071,0.27622 0.42578,0.64982 0.42578,0.64982 h 0.25917 0.25917 l 0.93224,1.03188 0.93224,1.03187 h 0.91842 0.91842 l -0.17244,-0.279 -0.17243,-0.27901 0.31705,0.19595 0.31706,0.19595 0.36837,-0.30572 0.36837,-0.30572 0.55155,0.29518 0.55154,0.29518 0.21092,-0.13036 0.21092,-0.13036 0.35368,0.4907 0.35366,0.49069 0.62057,-0.28275 0.62056,-0.28275 v -0.23773 -0.23773 l 0.26458,0.16352 0.26459,0.16352 0.32101,-0.19839 0.32102,-0.1984 1.424,-0.0248 1.424001,-0.0248 0.49913,0.4329 0.49914,0.43289 -0.13387,0.13387 -0.13388,0.13388 0.45406,0.36843 0.45406,0.36843 -0.23387,-0.39687 -0.23387,-0.39688 0.44766,0.36313 0.44767,0.36314 v -0.19709 -0.19709 l 0.39351,0.32659 0.39351,0.32658 0.39835,-0.15286 0.39835,-0.15287 0.53107,0.57003 0.53106,0.57003 v 0.47927 0.47928 h -0.26458 -0.26459 v 0.42632 0.42632 z"
       id="path148" /></g></svg>
