<?xml version="1.0" encoding="UTF-8" standalone="no"?>
<!-- Created with Inkscape (http://www.inkscape.org/) -->

<svg
   width="24.797081mm"
   height="26.19375mm"
   viewBox="0 0 24.797081 26.19375"
   version="1.1"
   id="svg1"
   xml:space="preserve"
   xmlns="http://www.w3.org/2000/svg"
   xmlns:svg="http://www.w3.org/2000/svg"><defs
     id="defs1" /><g
     id="layer1"
     transform="translate(-161.2683,-139.15954)"><path
       style="display:inline;fill:#000000;stroke-width:0.264583"
       d="m 166.93633,165.3453 1.00101,0.008 0.92604,-0.92604 0.92604,-0.92604 h 0.93306 0.93306 l 1.37323,-1.26232 1.37322,-1.26232 1.05833,-0.55627 1.05834,-0.55627 1.61529,0.0688 1.61529,0.0688 0.5198,0.16497 0.51979,0.16498 0.4446,0.93233 0.4446,0.93234 v 0.42891 0.4289 l 0.48386,-0.43788 0.48385,-0.43788 h 0.3099 0.30989 v 0.26458 0.26459 h 0.33808 0.33807 l 0.4917,0.57427 0.49171,0.57427 0.4824,-0.905 0.48241,-0.905 -0.13633,-2.77813 -0.13632,-2.77812 0.22407,-2.3151 0.22406,-2.31511 h -4.29473 -4.29472 l -0.21003,-0.33073 -0.21003,-0.33073 -0.0755,-4.10104 -0.0755,-4.10104 -0.25923,-0.0882 -0.25924,-0.0882 v -1.83003 -1.83004 h -0.26458 -0.26458 v 0.81115 0.81114 l -0.27389,0.51177 -0.2739,0.51178 h -0.27293 -0.27292 l -0.91559,-0.69836 -0.91559,-0.69835 -0.0759,0.10304 -0.0759,0.10304 -1.00468,1.25379 -1.00469,1.25379 0.16411,0.65385 0.16411,0.65386 -0.52552,0.28124 -0.52551,0.28125 -0.33427,-0.53524 -0.33426,-0.53525 h -0.20094 -0.20094 v 1.13175 1.13176 l -0.40663,0.58054 -0.40663,0.58055 -1.77618,0.97901 -1.77618,0.97902 -0.78042,0.54983 -0.78041,0.54983 -0.80709,0.28684 -0.80708,0.28683 -0.0846,0.57306 -0.0845,0.57306 h 0.41528 0.41527 l 0.009,0.99219 0.009,0.99219 0.37812,0.66146 0.37813,0.66146 0.009,1.35666 0.009,1.35667 0.40711,0.33787 0.40711,0.33787 0.55151,1.28203 0.55152,1.28202 h 0.2259 0.2259 l 0.44248,0.67532 0.44249,0.67532 -0.56868,0.76917 -0.56864,0.76918 v 0.26215 0.26215 l 0.46302,0.26968 0.46302,0.26969 z"
       id="path67" /></g></svg>
