<?xml version="1.0" encoding="UTF-8" standalone="no"?>
<!-- Created with Inkscape (http://www.inkscape.org/) -->

<svg
   width="20.902342mm"
   height="31.288013mm"
   viewBox="0 0 20.902342 31.288013"
   version="1.1"
   id="svg1"
   xml:space="preserve"
   xmlns="http://www.w3.org/2000/svg"
   xmlns:svg="http://www.w3.org/2000/svg"><defs
     id="defs1" /><g
     id="layer1"
     transform="translate(-176.65065,-136.44658)"><path
       style="display:inline;fill:#000000;stroke-width:0.264583"
       d="m 190.73711,167.73459 h 0.21443 l 0.24547,-0.64563 0.24547,-0.64563 1.13477,-0.082 1.13476,-0.082 0.0754,-0.52916 0.0754,-0.52917 0.48362,-1.05833 0.48361,-1.05834 0.63103,-1.32291 0.63103,-1.32292 0.73045,-1.0967 0.73044,-1.09671 -0.003,-1.68142 -0.003,-1.68142 -0.16375,-0.99063 -0.16374,-0.99064 -0.62709,-0.67664 -0.6271,-0.67664 v -0.51554 -0.51554 h -0.25779 -0.25779 l -0.40367,-0.78061 -0.40367,-0.78061 v -0.6685 -0.66849 l -0.7276,-0.45183 -0.7276,-0.45182 -0.59532,-0.52644 -0.59531,-0.52644 v -0.58208 -0.58208 l -0.92056,-1.00502 -0.92055,-1.00501 -0.37517,-1.34334 -0.37516,-1.34335 -0.16895,-0.92604 -0.16895,-0.92604 -0.62255,-0.76117 -0.62255,-0.76117 -0.19137,1.42263 -0.19136,1.42262 -0.20932,0.26459 -0.20932,0.26458 -0.0903,1.85208 -0.0903,1.85209 -0.39106,0.46302 -0.39104,0.46302 h -0.28617 -0.28618 l -0.87027,-0.89789 -0.87027,-0.8979 -0.73724,-0.14744 -0.73724,-0.14745 -0.42876,-0.42877 -0.42877,-0.42877 v -0.23647 -0.23648 l 0.79375,-0.90403 0.79375,-0.90403 v -0.38563 -0.38562 l -0.67391,-0.30705 -0.67391,-0.30705 h -1.03027 -1.03027 l -0.14148,0.22892 -0.14148,0.22892 -0.95608,0.15515 -0.95607,0.15515 -0.37327,0.30978 -0.37326,0.30979 v 1.66534 1.66535 l 0.33073,0.10974 0.33073,0.10975 0.13229,4.34407 0.13229,4.34408 4.36562,0.13229 4.36563,0.13229 -0.0596,0.66146 -0.0596,0.66146 -0.0812,4.7625 -0.0812,4.7625 -0.34385,0.61838 -0.34385,0.61838 0.17877,1.29985 0.17878,1.29984 h 0.68572 0.68572 l 0.61141,0.57439 0.61141,0.57439 0.67022,-0.35869 0.67023,-0.3587 0.44576,0.44577 0.44576,0.44576 z"
       id="path15" /></g></svg>
