<?xml version="1.0" encoding="UTF-8" standalone="no"?>
<!-- Created with Inkscape (http://www.inkscape.org/) -->

<svg
   width="12.215388mm"
   height="11.784221mm"
   viewBox="0 0 12.215388 11.784221"
   version="1.1"
   id="svg1"
   xml:space="preserve"
   xmlns="http://www.w3.org/2000/svg"
   xmlns:svg="http://www.w3.org/2000/svg"><defs
     id="defs1" /><g
     id="layer1"
     transform="translate(-157.71929,-124.71926)"><path
       style="fill:#000000;stroke-width:0.0319749"
       d="m 159.95458,136.48752 c -1.02874,-0.0454 -1.53181,-0.10909 -1.79783,-0.22752 -0.51212,-0.22797 -0.57735,-0.82569 -0.18113,-1.65982 0.18735,-0.39443 0.49566,-0.64257 0.93978,-0.75638 0.45025,-0.11538 0.74264,-0.13258 2.25423,-0.13258 1.5588,0 1.71285,0.0108 2.14231,0.1496 0.67054,0.21677 1.64655,0.95205 1.90237,1.43316 0.11955,0.22483 0.13185,0.49035 0.0291,0.62906 -0.34691,0.46849 -1.17439,0.59254 -3.86599,0.57953 -0.66827,-0.003 -1.30857,-0.01 -1.42288,-0.0151 z"
       id="path40" /><path
       style="fill:#000000;stroke-width:0.0319749"
       d="m 164.51395,133.98527 c -0.10883,-0.10883 -0.15187,-0.22289 -0.25052,-0.66397 -0.11425,-0.51079 -0.20083,-1.14538 -0.24527,-1.79778 -0.0474,-0.69505 -0.0173,-0.94846 0.15743,-1.32696 0.18021,-0.39042 0.54369,-1.39349 1.03397,-2.85344 l 0.42672,-1.27068 0.15988,-2.6e-4 c 0.32381,-7.9e-4 1.47679,-0.10018 1.66429,-0.14352 0.49557,-0.11454 0.7792,-0.29684 1.17902,-0.75783 0.42906,-0.4947 0.55675,-0.54505 0.84525,-0.33327 0.1837,0.13485 0.30297,0.28276 0.39407,0.4887 0.0533,0.1205 0.0631,0.19465 0.0516,0.39239 -0.0245,0.42259 -0.23942,0.71185 -0.79965,1.07607 -0.54697,0.35559 -0.70936,0.58698 -0.76062,1.08377 -0.0488,0.47295 -0.25579,0.81786 -0.71163,1.18574 -0.52438,0.4232 -0.55108,0.56359 -0.29376,1.54443 0.19324,0.73656 0.44806,1.3416 0.71368,1.69455 0.15209,0.2021 0.23975,0.44101 0.23716,0.64635 -0.006,0.50211 -0.5873,0.725 -1.17403,0.45043 -0.14464,-0.0677 -0.29743,-0.18168 -0.49701,-0.37083 -0.40733,-0.38602 -0.7468,-0.54106 -1.02229,-0.46688 -0.26743,0.072 -0.385,0.24783 -0.47935,0.71686 -0.0836,0.41571 -0.17798,0.61132 -0.35307,0.73199 -0.10898,0.0751 -0.18181,0.0683 -0.27588,-0.0257 z"
       id="path41" /></g></svg>
