<?xml version="1.0" encoding="UTF-8" standalone="no"?>
<!-- Created with Inkscape (http://www.inkscape.org/) -->

<svg
   width="19.648962mm"
   height="20.104725mm"
   viewBox="0 0 19.648962 20.104725"
   version="1.1"
   id="svg1"
   xml:space="preserve"
   xmlns="http://www.w3.org/2000/svg"
   xmlns:svg="http://www.w3.org/2000/svg"><defs
     id="defs1" /><g
     id="layer1"
     transform="translate(-20.547305,-68.758253)"><path
       style="fill:#000000;stroke-width:0.264583"
       d="m 32.027999,88.862888 h 0.827566 l -0.166158,-1.03909 -0.166158,-1.03909 0.661508,-0.52035 0.661509,-0.52034 v -0.70007 -0.70006 l 0.507944,-0.99566 0.507945,-0.99565 0.68268,-0.31105 0.682681,-0.31105 v -0.7465 -0.74651 l 0.282932,-0.28293 0.28293,-0.28293 1.178761,0.13286 1.178758,0.13286 0.522684,-0.47302 0.522685,-0.47302 v -5.11652 -5.116513 l -6.813021,0.0083 -6.813021,0.0083 -2.037303,0.155197 -2.037305,0.155199 0.147482,0.737404 0.14748,0.737405 -0.727847,0.381357 -0.727847,0.381357 -0.05098,2.486244 -0.05098,2.48625 -0.342809,1.03575 -0.34281,1.03574 0.153344,1.87468 0.153344,1.87466 0.567458,1.11801 0.567459,1.11801 0.866677,0.53564 0.866676,0.53563 h 0.406758 0.406758 l 1.132648,0.9463 1.132648,0.9463 1.506804,-0.17488 1.506802,-0.17488 0.692875,0.74723 0.692873,0.74723 v 0.20114 0.20115 z"
       id="path461" /></g></svg>
