<?xml version="1.0" encoding="UTF-8" standalone="no"?>
<!-- Created with Inkscape (http://www.inkscape.org/) -->

<svg
   width="19.531609mm"
   height="20.073322mm"
   viewBox="0 0 19.531609 20.073322"
   version="1.1"
   id="svg1"
   xml:space="preserve"
   xmlns="http://www.w3.org/2000/svg"
   xmlns:svg="http://www.w3.org/2000/svg"><defs
     id="defs1" /><g
     id="layer1"
     transform="translate(-104.5965,-117.2772)"><path
       style="display:inline;fill:#000000;stroke-width:0.264583"
       d="m 119.31555,137.34152 0.29987,0.009 0.13583,-0.51943 0.13584,-0.51944 -0.36956,-0.30671 -0.36956,-0.30672 V 134.93911 134.18 l 0.47763,-0.29828 0.47763,-0.29829 -0.11295,-1.56151 -0.11295,-1.5615 0.65128,-0.98673 0.65128,-0.98672 0.48015,-0.79375 0.48015,-0.79375 0.99396,-1.19931 0.99396,-1.19931 -0.25426,-0.45433 -0.25426,-0.45434 h -1.88769 -1.88769 l -1.14187,-0.55277 -1.14187,-0.55277 v -0.72914 -0.72914 l -0.53038,-0.47998 -0.53038,-0.47999 -0.70665,-1.3956 -0.70666,-1.3956 -0.43308,0.31323 -0.43308,0.31322 -1.63717,1.2958 -1.63718,1.2958 -0.006,0.95316 -0.006,0.95316 -0.24373,1.05124 -0.24373,1.05126 -0.46199,0.33781 -0.46199,0.33781 h -0.71293 -0.71294 l -0.75785,0.39525 -0.75785,0.39524 -0.57367,0.002 -0.57367,0.002 -0.41852,0.1606 -0.41852,0.16068 v 0.73544 0.73543 l 0.96398,1.48522 0.96398,1.48521 h 0.72557 0.72557 l 0.75785,0.39525 0.75785,0.39524 0.42055,0.002 0.42055,0.002 0.30309,0.66522 0.3031,0.66521 0.99691,-0.15941 0.99691,-0.15941 0.72684,0.57173 0.72684,0.57182 v 1.03913 1.03913 h 0.50086 0.50086 l 0.1539,0.40107 0.15391,0.40107 1.00567,-0.16081 1.00568,-0.16082 0.65466,0.54469 0.65467,0.54469 z"
       id="path115" /></g></svg>
