<?xml version="1.0" encoding="UTF-8" standalone="no"?>
<!-- Created with Inkscape (http://www.inkscape.org/) -->

<svg
   width="17.53257mm"
   height="38.070663mm"
   viewBox="0 0 17.53257 38.070663"
   version="1.1"
   id="svg1"
   xml:space="preserve"
   xmlns="http://www.w3.org/2000/svg"
   xmlns:svg="http://www.w3.org/2000/svg"><defs
     id="defs1" /><g
     id="layer1"
     transform="translate(-139.53246,-31.148902)"><path
       style="display:inline;fill:#000000;stroke-width:0.264583"
       d="m 153.73836,69.219561 h 0.3775 l 0.41625,-0.834401 0.41626,-0.8344 v -0.362773 -0.362773 l 0.6564,-0.249565 0.6564,-0.249563 -0.16202,-0.42222 -0.16202,-0.422217 0.56395,-0.395007 0.56395,-0.395004 v -0.812824 -0.812826 l -0.92604,-1.025017 -0.92604,-1.025017 v -0.263821 -0.263822 h -0.52917 -0.52916 v -0.740833 -0.740833 l -0.3175,-0.3175 -0.3175,-0.3175 h -0.61685 -0.61685 l -0.15229,-0.396875 -0.1523,-0.396875 0.15892,-0.33073 0.15891,-0.330729 0.22753,-0.396875 0.22752,-0.396875 0.4523,-0.945801 0.45231,-0.9458 -0.1837,-0.773991 -0.1837,-0.773991 -0.51711,-0.570349 -0.51712,-0.570349 0.28726,-0.536737 0.28725,-0.536736 v -0.505553 -0.505552 l -0.51861,-0.469334 -0.51861,-0.469334 -0.98771,-1.434122 -0.98772,-1.434121 0.0618,-1.047969 0.0618,-1.047969 h -0.57074 -0.57075 l 0.13838,-0.529167 0.13838,-0.529166 h -0.25358 -0.25357 l -0.2767,-0.79375 -0.27671,-0.79375 h -0.34268 -0.34269 l -0.19857,-0.463021 -0.19857,-0.463021 0.0579,-0.727604 0.0579,-0.727604 h -0.38442 -0.38442 l -0.25975,0.330729 -0.25975,0.330729 -0.17266,0.908681 -0.17267,0.90868 -0.43474,0.480382 -0.43474,0.480382 h -0.75274 -0.75274 v -0.49677 -0.49677 l 0.41621,-0.345426 0.41621,-0.345426 0.50223,-0.98446 0.50224,-0.984461 -0.40541,-0.812659 -0.4054,-0.812659 -0.61567,-0.484281 -0.61566,-0.484281 0.36322,-1.043591 0.36323,-1.043591 0.004,-0.325688 0.004,-0.325688 -0.66224,-0.166212 -0.66224,-0.166211 -0.63125,-0.7502 -0.63126,-0.750201 -0.16171,0.161718 -0.16174,0.161718 v 0.368393 0.368393 l 0.26458,-0.163522 0.26458,-0.163521 v 0.216553 0.216554 l -0.53304,0.332888 -0.53303,0.332887 0.16532,0.658727 0.16533,0.658725 -0.46103,0.703636 -0.46104,0.703635 0.48244,0.352771 0.48244,0.35277 h 0.21402 0.21401 v 0.529167 0.529166 h 0.36448 0.36448 l 0.35313,0.425507 0.35314,0.425506 -0.5036,0.368244 -0.5036,0.368243 h 0.32984 0.32985 l -0.1336,1.446462 -0.1336,1.446461 -0.7024,1.25811 -0.70239,1.25811 0.16539,1.594908 0.1654,1.594908 0.11201,0.79375 0.11202,0.79375 -0.30449,0.863986 -0.30449,0.863984 0.41644,0.723516 0.41643,0.723514 -0.11818,0.396875 -0.11819,0.396875 -0.14806,0.396875 -0.14807,0.396875 -0.0518,0.468968 -0.0518,0.468966 0.58448,0.146696 0.58448,0.146695 0.30692,0.673608 0.30692,0.673606 -0.39813,0.607626 -0.39814,0.607624 0.31985,1.346461 0.31984,1.34646 0.46603,0.147912 0.46603,0.147913 v 0.377002 0.377005 l 0.78947,0.703427 0.78948,0.703426 0.55704,1.150697 0.55704,1.150699 h 0.77015 0.77015 v 0.396875 0.396875 l 0.52917,0.529167 0.52916,0.529166 h 1.02594 1.02593 l 0.31955,0.385027 0.31954,0.385025 0.47925,-0.299294 0.47924,-0.299294 0.68046,0.774165 0.68045,0.774163 0.008,0.198438 0.008,0.198437 z"
       id="path532" /></g></svg>
