<?xml version="1.0" encoding="UTF-8" standalone="no"?>
<!-- Created with Inkscape (http://www.inkscape.org/) -->

<svg
   width="19.570107mm"
   height="12.600346mm"
   viewBox="0 0 19.570107 12.600346"
   version="1.1"
   id="svg1"
   xml:space="preserve"
   xmlns="http://www.w3.org/2000/svg"
   xmlns:svg="http://www.w3.org/2000/svg"><defs
     id="defs1" /><g
     id="layer1"
     transform="translate(-105.20343,-96.704145)"><path
       style="display:inline;fill:#000000;stroke-width:0.264583"
       d="m 114.64472,109.30449 h 0.25772 l 0.44339,-0.6767 0.44339,-0.6767 0.96497,-0.49229 0.96497,-0.49229 2.36805,0.0157 2.36805,0.0157 1.15914,-0.19877 1.15914,-0.19878 -0.25902,-0.16932 -0.259,-0.16933 -0.66714,-1.32291 -0.66714,-1.32292 -0.29913,0.0661 -0.29914,0.0661 v -1.65635 -1.65635 l -0.6458,-0.696457 -0.6458,-0.696457 0.0505,-0.0978 0.0505,-0.0977 -0.26593,0.295837 -0.26592,0.29584 -1.057,-0.10229 -1.05699,-0.10229 -0.79375,-0.25522 -0.79375,-0.255217 -0.13229,0.0474 -0.13229,0.0474 -0.77352,-0.71687 -0.77352,-0.716867 -0.28481,0.10596 -0.28482,0.10597 0.0661,0.297647 0.0661,0.29766 h -0.26458 -0.26458 l -0.19844,-0.0156 -0.19844,-0.0156 -0.14314,0.61092 -0.14313,0.610927 -0.59387,0.0858 -0.59386,0.0858 -1.14639,-0.671827 -1.1464,-0.671824 -0.13151,0.13151 -0.13151,0.131514 -0.32113,-0.775271 -0.32113,-0.775277 -0.74563,-0.109427 -0.74563,-0.10943 -0.47223,0.345297 -0.47223,0.345307 -0.70636,1.209441 -0.70636,1.209447 0.23618,1.299417 0.23617,1.29942 0.3634,0.86632 0.36339,0.86633 1.07066,1.1573 1.07065,1.1573 0.69589,-0.13303 0.69588,-0.13303 1.23269,0.67612 1.23269,0.67612 0.99294,0.8793 0.99295,0.87928 z"
       id="path294" /></g></svg>
