<?xml version="1.0" encoding="UTF-8" standalone="no"?>
<!-- Created with Inkscape (http://www.inkscape.org/) -->

<svg
   width="16.469755mm"
   height="23.602428mm"
   viewBox="0 0 16.469755 23.602428"
   version="1.1"
   id="svg1"
   xml:space="preserve"
   xmlns="http://www.w3.org/2000/svg"
   xmlns:svg="http://www.w3.org/2000/svg"><defs
     id="defs1" /><g
     id="layer1"
     transform="translate(-82.147554,-71.799108)"><path
       style="display:inline;fill:#000000;stroke-width:0.264583"
       d="m 90.786964,95.399537 0.529157,0.002 0.769844,-0.895804 0.769837,-0.895804 0.354637,0.136077 0.35463,0.13609 v -0.269127 -0.26913 l 1.066484,-1.349209 1.066474,-1.34921 0.0221,-0.85736 0.0221,-0.85737 -0.30233,-0.7646 -0.302317,-0.76461 0.470537,-0.53765 0.470537,-0.53764 -0.27403,0.15835 -0.274027,0.15834 -0.0459,-0.44359 -0.0459,-0.4436 -0.15982,-0.79375 -0.159827,-0.79375 0.430247,-0.52916 0.430247,-0.52917 0.11997,0.26458 0.11997,0.26459 0.194137,0.29506 0.19413,0.29507 0.567427,0.17693 0.567437,0.17694 0.437297,-0.4373 0.437297,-0.43731 -0.409417,-0.45241 -0.409417,-0.45245 v -1.01667 -1.016668 l -0.43789,-0.483854 -0.437877,-0.483854 0.41236,-0.463021 0.412367,-0.46302 0.0723,-1.322917 0.0723,-1.322917 -0.200134,-0.926041 -0.20015,-0.926042 -1.125748,-1.289725 -1.125744,-1.289727 -0.961394,0.347649 -0.961394,0.347647 -0.259237,0.74364 -0.25923,0.743641 H 91.63709 90.475176 l -0.296087,0.649854 -0.296087,0.649851 -1.187072,0.540774 -1.18707,0.540771 H 87.31148 87.1141 l 0.51359,-0.388461 0.51359,-0.388459 -0.3135,-0.0084 -0.31351,-0.0084 -0.67868,0.258035 -0.67868,0.258035 v 0.525407 0.525409 l 0.49864,0.473327 0.49864,0.473329 0.69199,1.02911 0.69198,1.029107 v 1.038807 1.038803 l -0.27389,0.51177 -0.2739,0.51178 h -0.65214 -0.65215 l -0.004,0.33073 -0.004,0.33073 -0.25649,-0.39688 -0.25648,-0.39687 -0.004,0.27403 -0.004,0.27403 h -0.52917 -0.52917 v -0.19858 -0.19857 l -0.51574,-0.27602 -0.51574,-0.27602 -0.87332,0.48632 -0.87332,0.48631 -0.0866,0.58944 -0.0865,0.58944 0.46023,0.70241 0.46024,0.70241 0.20303,-0.51927 0.20303,-0.51927 0.0468,0.39688 0.0468,0.39687 0.0618,1.90768 0.0618,1.90768 -0.21098,-0.13039 -0.21097,-0.13039 -0.40815,0.78926 -0.40815,0.78926 v 0.5423 0.542315 h 0.25779 0.25779 l 0.39236,0.758737 0.39236,0.758734 2.3936,0.18724 2.39361,0.18725 0.32968,0.327927 0.32969,0.327917 0.529162,0.30554 0.529167,0.305547 z"
       id="path342" /></g></svg>
