<?xml version="1.0" encoding="UTF-8" standalone="no"?>
<!-- Created with Inkscape (http://www.inkscape.org/) -->

<svg
   width="28.177891mm"
   height="27.877983mm"
   viewBox="0 0 28.177891 27.877983"
   version="1.1"
   id="svg1"
   xml:space="preserve"
   xmlns="http://www.w3.org/2000/svg"
   xmlns:svg="http://www.w3.org/2000/svg"><defs
     id="defs1" /><g
     id="layer1"
     transform="translate(-54.682256,-23.782539)"><path
       style="fill:#000000;stroke-width:0.264583"
       d="m 67.30114,51.654122 0.315724,0.0064 0.41188,-0.588039 0.411877,-0.588037 v -1.03311 -1.033139 l 0.837276,-1.70075 0.837277,-1.70075 0.892302,-0.372828 0.892302,-0.372828 1.180838,-0.848013 1.180838,-0.848025 V 42.216432 41.85786 l 0.595313,-0.22767 0.595312,-0.22767 0.507659,-0.563542 0.507656,-0.563542 1.013698,-0.162097 1.013695,-0.162096 V 39.73609 39.520938 L 78.230204,39.357416 77.965621,39.193895 V 38.92167 38.649445 l 1.058333,0.178805 1.058333,0.178804 -0.0059,-0.353986 -0.0059,-0.353985 -0.5174,-0.661458 -0.517401,-0.661459 -0.0059,-0.444619 -0.0059,-0.444618 0.595312,-0.08455 0.595313,-0.08455 0.08203,-0.576099 0.08203,-0.576098 0.374023,-0.310411 0.374023,-0.310412 -0.359331,-0.70099 -0.359333,-0.70099 0.0024,-1.832502 0.0024,-1.8325 0.885375,-1.384065 0.885375,-1.384065 0.338323,-0.126067 0.338322,-0.126067 -0.49399,-0.203288 -0.49399,-0.203287 -2.078625,0.70165 -2.078395,0.70165 H 77.046618 76.37809 V 26.561024 26.06776 l 0.923372,-0.366632 0.923372,-0.366632 -0.211442,-0.330824 -0.211442,-0.330825 -2.08961,-0.264937 -2.089608,-0.264936 -0.46441,0.147398 -0.46441,0.147398 -0.605308,-0.327615 -0.605306,-0.327615 -0.738584,0.05341 -0.738585,0.05341 -1.811917,1.317877 -1.811916,1.317877 h -0.256847 -0.25685 l -1.006366,0.682939 -1.006367,0.682939 -0.586674,-0.313979 -0.586674,-0.313979 -0.807317,0.177317 -0.807321,0.177317 -1.153861,1.015669 -1.153859,1.015669 -0.64989,0.0917 -0.649888,0.0917 -0.292899,0.906207 -0.292902,0.906208 -0.539922,0.19973 -0.539922,0.19973 -0.189227,0.306178 -0.18923,0.306179 0.294446,0.294446 0.294447,0.294446 v 0.218215 0.218216 l -0.661458,0.251486 -0.661458,0.251486 v 0.421415 0.421415 l 2.360583,-0.0681 2.360583,-0.0681 0.750298,0.777709 0.750295,0.777709 1.11902,0.926041 1.119019,0.926042 0.132696,0.344471 0.132694,0.344471 -0.261551,-0.161648 -0.261554,-0.161649 v 0.135457 0.135457 l 0.303482,0.666073 0.303483,0.666072 -0.345612,0.416437 -0.345612,0.416437 0.571296,0.400152 0.571296,0.400151 v 0.407195 0.407194 l -0.424357,0.718381 -0.42436,0.718381 0.42436,1.249918 0.424357,1.249918 -0.0073,1.115232 -0.0073,1.115233 1.528691,1.382644 1.528694,1.382641 z"
       id="path667" /></g></svg>
