<?xml version="1.0" encoding="UTF-8" standalone="no"?>
<!-- Created with Inkscape (http://www.inkscape.org/) -->

<svg
   width="23.716074mm"
   height="35.549332mm"
   viewBox="0 0 23.716074 35.549332"
   version="1.1"
   id="svg1"
   xml:space="preserve"
   xmlns="http://www.w3.org/2000/svg"
   xmlns:svg="http://www.w3.org/2000/svg"><defs
     id="defs1" /><g
     id="layer1"
     transform="translate(-143.17787,-80.766019)"><path
       style="display:inline;fill:#000000;stroke-width:0.264583"
       d="m 156.66978,116.31535 h 0.31031 l 0.35674,-0.7276 0.35673,-0.7276 0.0652,-0.57474 0.0652,-0.57474 0.4143,-0.80119 0.41431,-0.80118 v -1.10909 -1.1091 l 0.51846,-1.74831 0.51847,-1.74832 0.0664,-1.01619 0.0664,-1.0162 0.48823,-0.34197 0.48823,-0.34196 0.0993,-0.75851 0.0993,-0.7585 0.0182,-0.57642 0.0182,-0.57641 0.41578,-0.41578 0.41577,-0.41577 h 0.79268 0.79268 l -0.20045,-0.595307 -0.20046,-0.595307 -0.0158,-0.661454 -0.0158,-0.661457 h 0.39687 0.39688 l 0.88206,-1.190624 0.88207,-1.190614 0.65896,-1.286781 0.65895,-1.286774 -0.3127,-0.754942 -0.31271,-0.75494 -0.52684,-0.16721 -0.52684,-0.16721 -1.19195,0.17874 -1.19195,0.17875 -0.56786,-0.50539 -0.56786,-0.50539 -1.32291,-0.50066 -1.32292,-0.50066 -0.64649,-0.0607 -0.6465,-0.0607 -0.70689,-0.52263 -0.70688,-0.52263 -0.96173,-0.40183 -0.96172,-0.40183 0.002,-0.21194 0.002,-0.21194 0.52568,-0.79375 0.52568,-0.79375 0.002,-0.84267 0.002,-0.84267 -0.25804,-0.67868 -0.25845,-0.67869 h -0.8003 -0.80029 v -0.53747 -0.537467 l -0.44716,-0.171588 -0.44715,-0.17159 -0.12235,0.378331 -0.12234,0.37833 -0.90455,0.859894 -0.90455,0.8599 h -0.40245 -0.40245 l -0.67272,-0.52917 -0.67273,-0.52917 h -0.34084 -0.34084 l -0.79375,0.79375 -0.79375,0.79375 h -0.56302 -0.56302 l -0.37842,0.90569 -0.37842,0.90569 -0.46654,0.0898 -0.46655,0.0898 0.0772,1.98103 0.0772,1.98103 0.78128,1.52522 0.78127,1.525222 v 1.148114 1.148124 l 0.64116,0.633947 0.64116,0.633934 0.81405,0.615437 0.81405,0.615437 v 0.28977 0.289767 l 0.43788,0.483847 0.43788,0.483857 h 0.519 0.51901 l -0.12456,0.651577 -0.12456,0.651577 0.62288,0.58516 0.62288,0.58517 v -0.26081 -0.26082 l 0.56003,-0.60111 0.56002,-0.601117 0.27192,0.271917 0.27193,0.27192 -0.28393,0.74233 -0.28393,0.74232 -0.1111,2.04576 -0.1111,2.04575 0.47073,0.42601 0.47074,0.426 -0.023,0.80858 -0.023,0.80857 0.87942,0.71775 0.87942,0.71775 -0.28999,0.10296 -0.29,0.10296 0.64455,1.83712 0.64454,1.83712 0.5272,0.56118 0.52721,0.56118 v 0.53416 0.53417 l 0.17639,0.17638 0.17639,0.17639 z"
       id="path180" /></g></svg>
