<?xml version="1.0" encoding="UTF-8" standalone="no"?>
<!-- Created with Inkscape (http://www.inkscape.org/) -->

<svg
   width="17.458632mm"
   height="19.357552mm"
   viewBox="0 0 17.458632 19.357552"
   version="1.1"
   id="svg1"
   xml:space="preserve"
   xmlns="http://www.w3.org/2000/svg"
   xmlns:svg="http://www.w3.org/2000/svg"><defs
     id="defs1" /><g
     id="layer1"
     transform="translate(-74.347917,-54.801989)"><g
       id="g37"
       transform="translate(23.747056,-30.523814)"><g
         id="g6"><path
           style="opacity:1;fill:#000000"
           d="m 67.019952,102.1893 c 0.08994,0.14552 -4.423042,0.93605 -4.674832,0.93605 -0.251792,0 -0.666832,0.18917 -0.922313,0.42038 -0.43492,0.39359 -1.51224,0.7577 -3.215178,1.08664 -0.618336,0.11943 -0.727604,0.0519 -0.727604,-0.44978 h 6e-6 c 0,-0.33594 0.456071,-1.0464 1.058334,-1.64866 1.068955,-1.06896 1.221018,-1.28635 0.859895,-1.22933 -1.210843,0.19119 -1.528103,-0.75821 -0.587832,-1.759086 0.326396,-0.347433 0.46978,-0.745484 0.365976,-1.015993 -0.260466,-0.678764 -0.8571,-0.04197 -1.046267,1.116687 -0.08671,0.531082 -0.398831,1.641662 -0.693611,2.467952 -0.511788,1.43458 -0.585553,1.51086 -1.635292,1.6911 -3.094354,0.53129 -5.20037,-0.37946 -5.20037,-2.24892 0,-1.05599 0.645187,-1.968369 1.608019,-2.27396 0.494027,-0.156798 0.546217,-0.313782 0.402699,-1.211295 -0.100376,-0.627715 2.502381,-4.560686 2.665353,-4.560686 l -0.132132,0.104586 c 6.306712,0.773001 0.748278,-4.43835 4.068548,-7.893795 0.323605,-0.207899 1.190587,-0.321028 1.692144,-0.368648 0.857265,-0.08139 0.926118,-0.02761 1.148791,0.897278 0.189517,0.787171 0.417136,1.049038 1.1386,1.309923 0.495951,0.179338 0.901729,0.425038 0.901729,0.545999 0,0.518632 -0.765404,1.962542 -1.2864,2.426753 -0.780254,0.695212 -0.713367,1.040314 0.360358,1.859284 0.509323,0.388476 4.890922,5.083599 4.890922,4.94281"
           id="path11" /></g></g></g></svg>
