<?xml version="1.0" encoding="UTF-8" standalone="no"?>
<!-- Created with Inkscape (http://www.inkscape.org/) -->

<svg
   width="12.170833mm"
   height="8.7312622mm"
   viewBox="0 0 12.170833 8.7312622"
   version="1.1"
   id="svg1"
   xml:space="preserve"
   xmlns="http://www.w3.org/2000/svg"
   xmlns:svg="http://www.w3.org/2000/svg"><defs
     id="defs1" /><g
     id="layer1"
     transform="translate(-83.028772,-45.141802)"><path
       style="fill:#000000;stroke-width:0.264583"
       d="m 88.767846,53.862506 0.31512,0.01056 0.18879,-0.305464 0.18878,-0.305464 -0.37161,0.223961 -0.37161,0.223962 0.36313,-0.447664 0.36313,-0.447678 h 0.1155 0.11551 l -0.16352,0.264584 -0.16352,0.264583 h 0.2885 0.28851 l 0.17373,-0.463021 0.17374,-0.463021 0.39238,-0.294124 0.39238,-0.294124 0.44371,0.116033 0.44372,0.116033 0.95015,-0.396999 0.95016,-0.397002 0.67754,-1.073296 0.67754,-1.073298 v -0.475551 -0.475554 l -0.41187,-0.588038 -0.41188,-0.588038 h -0.24128 -0.24127 l 0.12787,0.463021 0.12787,0.463021 -0.40152,-0.859896 -0.40152,-0.859896 h -0.14892 -0.14893 l -0.46767,0.250292 -0.46768,0.250293 v -0.39397 -0.39397 l 0.40409,0.155064 0.40409,0.155063 -0.48919,-0.540553 -0.4892,-0.540552 h -0.45576 -0.45576 l -0.29469,0.355073 -0.29468,0.355073 0.19614,0.216513 0.19614,0.216513 -0.30853,-0.176604 -0.30852,-0.176604 -0.74981,0.301598 -0.74981,0.301598 -0.85989,-0.04341 -0.8599,-0.04341 v 0.348859 0.348858 l -0.52916,0.03986 -0.52917,0.03986 v -0.24814 -0.248139 h -0.42064 -0.42064 l -0.76776,0.724644 -0.76776,0.724646 0.13604,0.428624 0.13604,0.428625 -0.40285,0.334336 -0.40285,0.334335 v 0.26303 0.263031 l 0.65345,-0.124915 0.65346,-0.124916 -0.13991,0.226365 -0.13989,0.226361 h 0.28524 0.28523 l -0.15959,0.635855 -0.15959,0.635857 0.48308,0.270341 0.48307,0.27034 -0.21062,0.210622 -0.21062,0.210619 -0.23581,-0.38155 -0.23581,-0.381551 -0.17317,0.173173 -0.17317,0.173172 0.1898,0.307102 0.18979,0.307102 0.63045,-0.120518 0.63045,-0.120518 v 0.219591 0.219589 l 0.33793,-0.129678 0.33793,-0.129677 1.05113,0.524314 1.05113,0.524314 z"
       id="path654" /></g></svg>
