<?xml version="1.0" encoding="UTF-8" standalone="no"?>
<!-- Created with Inkscape (http://www.inkscape.org/) -->

<svg
   width="13.207575mm"
   height="25.559608mm"
   viewBox="0 0 13.207575 25.559608"
   version="1.1"
   id="svg1"
   xml:space="preserve"
   xmlns="http://www.w3.org/2000/svg"
   xmlns:svg="http://www.w3.org/2000/svg"><defs
     id="defs1" /><g
     id="layer1"
     transform="translate(-187.62244,-56.153799)"><g
       id="g10"
       transform="translate(113.94117,-23.843449)"><path
         style="fill:#000000"
         d="m 75.590255,104.90958 c -0.261455,-0.38453 -0.802795,-1.00635 -1.202977,-1.38184 -0.812389,-0.76225 -0.925091,-1.4635 -0.330729,-2.05786 0.218281,-0.21829 0.396875,-0.72481 0.396875,-1.12561 0,-0.426187 0.262423,-0.975264 0.632092,-1.32255 0.34765,-0.326601 0.699134,-0.929032 0.781075,-1.338736 0.105468,-0.52734 0.384525,-0.827027 0.955408,-1.026038 0.493278,-0.171957 0.807998,-0.466263 0.810476,-0.757905 0.0022,-0.262232 0.215393,-0.847227 0.356457,-1.065509 l 7.656131,-1.94168 c 0.440689,-0.223823 -0.151621,1.738132 -0.362322,2.665217 -0.255063,1.122273 -0.153414,1.341664 -0.476178,1.662226 -0.686297,0.681614 -1.421608,0.45696 -1.141101,0.460234 -0.67364,0.0091 -1.488587,0.951894 -1.784037,2.063835 -0.115953,0.436396 -0.400344,0.737246 -0.744762,0.787856 -0.306449,0.045 -0.991521,0.49153 -1.522382,0.99219 -0.530861,0.50067 -1.135318,0.9103 -1.343238,0.9103 -0.251586,0 -0.378036,0.2932 -0.378036,0.87655 0,0.61499 -0.221428,1.08868 -0.742082,1.5875 -0.914978,0.8766 -0.972372,0.87703 -1.56067,0.0118 z"
         id="path1" /><path
         style="fill:#000000"
         d="m 80.326209,91.178402 -0.222727,-1.180104 c -0.520835,-0.432255 -0.727912,-1.097184 -0.166746,-2.074958 0.434889,-0.75775 0.433411,-0.820132 -0.0316,-1.333964 -0.391767,-0.432897 -0.452543,-0.774319 -0.308646,-1.733892 0.09855,-0.657169 0.291363,-1.264185 0.428476,-1.348926 0.419388,-0.259196 0.279206,-0.868115 -0.330654,-1.436285 -0.481855,-0.448917 -0.536895,-0.663234 -0.325404,-1.267078 0.317218,-0.905717 1.093112,-1.0459 2.38798,-0.431445 1.026144,0.486937 2.331266,0.603354 3.04439,0.271558 0.538233,-0.250424 2.087567,0.997963 2.087567,1.682073 0,0.26517 -0.357187,0.782681 -0.79375,1.150024 -0.436562,0.367343 -0.79375,0.845672 -0.79375,1.062954 0,0.599461 -0.753688,1.226605 -1.474107,1.226605 -0.874256,0 -0.808534,0.224517 0.420226,1.435565 1.039307,1.024325 1.223276,1.577336 1.10677,3.326936 -0.02423,0.363802 0.08489,1.056388 0.242485,1.539081 0.157593,0.482693 0.222109,0.942047 0.14337,1.020786 l -7.852737,2.309897 c -0.218174,-0.615258 2.133069,-3.685166 2.438859,-4.218827 z"
         id="path8" /></g></g></svg>
