<?xml version="1.0" encoding="UTF-8" standalone="no"?>
<!-- Created with Inkscape (http://www.inkscape.org/) -->

<svg
   width="16.668737mm"
   height="23.843346mm"
   viewBox="0 0 16.668737 23.843346"
   version="1.1"
   id="svg1"
   xml:space="preserve"
   xmlns="http://www.w3.org/2000/svg"
   xmlns:svg="http://www.w3.org/2000/svg"><defs
     id="defs1" /><g
     id="layer1"
     transform="translate(-49.698362,-52.68241)"><path
       style="fill:#000000;stroke-width:0.264583"
       d="m 59.04764,76.444219 0.572587,-0.0816 0.455507,-0.92604 0.455504,-0.92604 0.801267,-0.85274 0.801264,-0.85274 v -0.53633 -0.53631 h -0.926042 -0.926041 v -0.90882 -0.90882 l -0.280194,-0.73696 -0.280194,-0.73697 0.463055,-0.33859 0.463056,-0.33859 h 0.975365 0.975368 l 0.346506,-0.41752 0.346506,-0.41751 1.263891,-0.64047 1.263891,-0.64046 0.274082,-0.51213 0.274084,-0.51213 v -0.41111 -0.41112 l -0.989512,-1.46925 -0.989516,-1.46925 -0.588504,-0.1477 -0.588505,-0.14771 -0.159457,-0.5024 -0.159456,-0.5024 -0.02294,-0.80664 -0.02294,-0.80664 -0.48855,-0.26147 -0.488537,-0.26146 v -0.49822 -0.498219 l -0.1606,-0.418513 -0.160599,-0.418515 h -0.475195 -0.475197 l -0.776634,0.968095 -0.776634,0.968092 -0.332713,-0.20562 -0.332714,-0.20563 0.166008,-1.107014 0.166007,-1.107012 -0.427741,-1.023726 -0.427739,-1.023726 -0.182488,0.295272 -0.182489,0.295273 -0.522615,-0.08663 -0.522616,-0.08663 0.06615,-0.295583 0.06615,-0.295583 h -1.5875 -1.5875 v 0.975135 0.975135 l -0.543023,0.578023 -0.543023,0.578021 -0.02217,0.497364 -0.02217,0.497364 0.196411,1.599897 0.196411,1.5999 -1.089486,0.72099 -1.089488,0.72098 0.02127,1.64787 0.02125,1.64787 -0.415073,1.53426 -0.415071,1.53426 v 1.97147 1.97147 h 1.069047 1.069049 l 0.742288,0.54879 0.742291,0.54881 0.977284,-0.18334 0.977283,-0.18334 0.664835,-0.87165 0.664834,-0.87164 0.421267,-0.16165 0.421267,-0.16166 0.467106,0.42273 0.467109,0.42272 0.168635,0.6719 0.168634,0.6719 -0.295521,1.42353 -0.295523,1.42353 0.173407,0.54635 0.173408,0.54636 z"
       id="path524" /></g></svg>
