<?xml version="1.0" encoding="UTF-8" standalone="no"?>
<!-- Created with Inkscape (http://www.inkscape.org/) -->

<svg
   width="34.75787mm"
   height="16.404171mm"
   viewBox="0 0 34.75787 16.404171"
   version="1.1"
   id="svg1"
   xml:space="preserve"
   xmlns="http://www.w3.org/2000/svg"
   xmlns:svg="http://www.w3.org/2000/svg"><defs
     id="defs1" /><g
     id="layer1"
     transform="translate(-18.020369,-37.851752)"><path
       style="fill:#000000;stroke-width:0.264583"
       d="m 43.501344,54.247922 0.44519,0.008 0.166622,-0.524972 0.166618,-0.524973 1.135232,-0.930236 1.135229,-0.930236 h 0.700355 0.700355 l 0.03135,-0.463021 0.03135,-0.463021 -0.03744,-0.306736 -0.03744,-0.306736 0.703231,-0.55316 0.703228,-0.55316 h 0.515101 0.515104 l 1.169006,-0.957913 1.169009,-0.957914 v -0.336696 -0.336695 l -0.424326,-0.162829 -0.424328,-0.16283 0.144881,-0.37755 0.14488,-0.377551 -0.315867,-0.128498 -0.315865,-0.128497 0.627708,-0.02089 0.62771,-0.02089 -0.329377,-0.396875 -0.329377,-0.396875 h -0.620085 -0.620086 l -0.940226,0.448363 -0.940226,0.448363 -0.391276,-0.391276 -0.391276,-0.391276 -0.398053,-1.528221 -0.39805,-1.528221 0.298432,-0.579386 0.298434,-0.579387 0.456676,-0.529167 0.456679,-0.529166 0.163412,-0.463021 0.163414,-0.463021 H 48.389018 47.52078 l -0.658736,0.727604 -0.658738,0.727604 -0.697122,1.058334 -0.697124,1.058333 0.0082,1.190625 0.0082,1.190625 -0.02477,0.463021 -0.02475,0.46302 h -0.230474 -0.230478 l -0.629418,-0.929187 -0.629417,-0.929187 -0.396875,0.07229 -0.396875,0.0723 -0.134096,0.923037 -0.134096,0.923038 -0.838211,-0.03685 -0.838213,-0.03685 -0.857284,-0.42767 -0.857287,-0.42767 -0.470728,0.426005 -0.470731,0.426004 -0.08093,0.567682 -0.08093,0.567682 -1.330984,0.07796 -1.330983,0.07796 -1.182558,-1.066411 -1.182558,-1.066412 -0.396875,-0.02981 -0.396875,-0.02981 -0.661458,-0.04007 -0.661459,-0.04007 -0.43747,-0.875974 -0.437467,-0.875974 -0.186709,0.3021 -0.186708,0.3021 -0.600123,-0.150622 -0.600125,-0.150621 -0.994892,0.790641 -0.994893,0.790641 -0.294348,0.03807 -0.294348,0.03807 -1.931142,0.04766 -1.931142,0.04766 -0.197374,-0.352689 -0.197375,-0.352689 -1.223809,0.167741 -1.223808,0.167742 -0.163433,1.752868 -0.163433,1.752868 -0.13859,2.676754 -0.138589,2.676753 0.442762,0.442762 0.442761,0.442761 1.09492,-0.03158 1.094919,-0.03158 10.583333,0.188515 10.583333,0.188516 0.396875,0.221233 0.396875,0.221232 z"
       id="path696" /></g></svg>
