<?xml version="1.0" encoding="UTF-8" standalone="no"?>
<!-- Created with Inkscape (http://www.inkscape.org/) -->

<svg
   width="30.347589mm"
   height="46.599072mm"
   viewBox="0 0 30.347589 46.599072"
   version="1.1"
   id="svg1"
   xml:space="preserve"
   xmlns="http://www.w3.org/2000/svg"
   xmlns:svg="http://www.w3.org/2000/svg"><defs
     id="defs1" /><g
     id="layer1"
     transform="translate(-110.97472,-37.147685)"><path
       style="display:inline;fill:#000000;stroke-width:0.264583"
       d="m 129.48222,83.65027 1.25677,-0.0965 0.21405,-0.0234 0.21405,-0.0234 -0.18878,-0.30546 -0.18879,-0.30547 0.3171,0.19598 0.3171,0.19598 0.64982,-0.42578 0.64983,-0.4258 v -1.171379 -1.171379 l 0.46302,-0.259596 0.46302,-0.259599 -0.70332,-0.745736 -0.70333,-0.745738 -0.96515,-1.768756 -0.96516,-1.768753 0.93109,-1.03061 0.9311,-1.030613 -0.4052,-0.578498 -0.4052,-0.578498 -0.29144,0.180123 -0.29144,0.18012 0.15729,-0.409903 0.1573,-0.409906 -0.36496,-0.521044 -0.36495,-0.521046 -0.35762,-1.037987 -0.35762,-1.03799 0.23019,-0.888309 0.23018,-0.888312 0.38006,-0.380053 0.38005,-0.380055 v -0.488627 -0.48863 l 0.1606,-0.418513 0.1606,-0.418515 h 0.5925 0.5925 l 0.8495,-0.423786 0.8495,-0.423786 0.51443,0.134528 0.51444,0.134527 -0.14007,-0.226634 -0.14007,-0.226632 0.60272,-0.329104 0.60273,-0.329102 0.79375,0.06677 0.79375,0.06677 0.41153,0.118253 0.41153,0.118256 0.64169,-0.596802 0.64169,-0.5968 0.20355,0.06615 0.20355,0.06615 V 60.737177 60.45698 l 0.26155,0.161648 0.26155,0.161649 -0.15756,-0.410617 -0.15757,-0.410617 0.49133,-0.02088 0.49132,-0.02088 -0.33237,-0.134003 -0.33238,-0.134001 0.15672,-0.253577 0.15671,-0.253574 -0.30041,-0.361979 -0.30042,-0.361979 0.12274,-1.321279 0.12273,-1.321276 -0.50018,-0.1308 -0.50018,-0.130799 -0.31294,-0.686821 -0.31293,-0.686822 0.505,-0.568896 0.505,-0.568897 -0.34178,-0.119366 -0.34177,-0.119364 0.27022,-0.325597 0.27022,-0.325596 -0.23499,-0.819383 -0.235,-0.819383 0.12781,-0.127812 0.12781,-0.127809 0.10893,-1.611898 0.10892,-1.611897 h -0.22862 -0.22862 l 0.0339,-1.861901 0.0339,-1.861902 0.3481,-0.214969 0.3481,-0.214969 0.36149,-0.696773 0.36149,-0.696774 -0.24657,-0.152388 -0.24657,-0.152411 0.004,-0.447406 0.004,-0.447406 0.25648,0.396875 0.25647,0.396875 0.004,-0.46302 0.004,-0.463021 h -0.23373 -0.23372 l -0.14999,-0.595313 -0.14999,-0.595312 0.38371,0.51359 0.38372,0.513591 V 39.61034 39.268728 l -0.87872,-0.878716 -0.87871,-0.878716 -0.96911,-0.181806 -0.96911,-0.181806 -0.94543,0.557814 -0.94542,0.557813 h -0.62911 -0.62911 l -0.65258,-0.248111 -0.65258,-0.248111 -0.48912,0.558175 -0.48913,0.558175 0.33073,-0.193387 0.33073,-0.193387 v 0.251891 0.25189 l -0.39687,0.152296 -0.39688,0.152295 v -0.288676 -0.288676 l -0.39396,0.326959 -0.39396,0.326959 0.14499,0.234604 0.14499,0.234604 h -0.41248 -0.41249 l -0.47956,0.479558 -0.47956,0.479557 -0.35102,-0.117007 -0.35102,-0.117007 0.18473,0.298908 0.18474,0.298908 h -0.67707 -0.67708 v -0.778747 -0.778747 l -0.58804,-0.411878 -0.58803,-0.411878 h -0.36805 -0.36805 l 0.18845,1.256771 0.18845,1.256771 0.25683,0.479933 0.25683,0.479934 -0.31292,0.377049 -0.31292,0.377049 -0.1811,-0.11192 -0.18109,-0.111921 -0.28118,0.18098 -0.28118,0.180979 -0.41778,0.815799 -0.41778,0.815798 h -0.41289 -0.41288 v -0.227035 -0.227034 l -0.69815,-0.265438 -0.69816,-0.265437 -0.11703,0.117034 -0.11703,0.117033 0.27576,0.515278 0.27577,0.515278 -0.34142,0.466924 -0.34142,0.466924 -0.57437,-0.307392 -0.57437,-0.307392 V 45.02516 44.661876 l -1.16773,-1.201509 -1.16773,-1.201509 0.3418,-0.283669 0.3418,-0.283669 0.71086,0.270271 0.71087,0.27027 h 0.8932 0.8932 l 0.15094,-0.244227 0.15095,-0.244227 0.78768,-0.173004 0.78768,-0.173004 0.16922,-0.273808 0.16922,-0.273809 -0.36462,-0.235002 -0.36463,-0.235002 0.35805,-0.230935 0.35804,-0.230935 -0.29108,-0.543886 -0.29107,-0.543886 -1.42982,-0.296829 -1.42982,-0.29683 -1.94444,-0.2192 -1.94444,-0.2192 -0.29598,0.298663 -0.29597,0.298663 -0.29934,0.899378 -0.29934,0.899378 0.008,1.878747 0.008,1.878747 0.2533,1.984375 0.25329,1.984375 0.32545,1.286907 0.32544,1.286907 -0.78534,0.67878 -0.78535,0.678778 0.0727,0.236792 0.0727,0.236794 -0.24291,-0.15013 -0.24292,-0.15013 -0.16827,0.670452 -0.16827,0.670451 -0.25233,-0.155948 -0.25232,-0.155945 -0.93055,0.174572 -0.93055,0.174569 v 0.383045 0.383043 l 0.27114,-0.167571 0.27114,-0.167574 -0.0379,0.218104 -0.0379,0.218104 0.0313,0.330729 0.0313,0.330729 h 0.36448 0.36447 l 0.31534,0.379963 0.31534,0.379963 -0.28278,0.528386 -0.28279,0.528389 -0.80979,-0.02302 -0.80979,-0.02302 0.29299,-0.181078 0.29299,-0.181075 -0.37429,-0.310637 -0.3743,-0.310637 -0.2673,0.333992 -0.26731,0.333991 -0.1908,0.621443 -0.19079,0.621443 0.17323,1.155184 0.17323,1.155184 1.2739,0.825457 1.2739,0.825461 0.15521,1.310579 0.15522,1.310582 0.57698,1.02658 0.57697,1.026584 -0.15129,0.484708 -0.15129,0.484712 -0.42521,1.190625 -0.4252,1.190625 -0.54768,0.46302 -0.54768,0.463021 h -0.51926 -0.51926 l 0.0869,0.451419 0.0869,0.451422 0.59451,0.143891 0.59452,0.143893 0.92545,1.303343 0.92545,1.303343 v 1.554067 1.554067 l 0.40367,0.780611 0.40366,0.780611 h 0.35923 0.35922 l 0.19176,-0.595313 0.19177,-0.595312 -0.003,-0.132292 -0.003,-0.132291 0.37471,-0.344118 0.37471,-0.344119 0.15744,0.410265 0.15743,0.410263 h 0.50085 0.50086 v 0.309896 0.309896 l 0.43788,0.483854 0.43788,0.483854 h 0.61114 0.61114 l 0.2739,-0.511773 0.27389,-0.511783 v -0.149686 -0.149685 h -0.48495 -0.48495 l 0.0424,-0.595313 0.0424,-0.595312 0.71165,-0.08415 0.71165,-0.08415 -0.11736,-0.189878 -0.11735,-0.189881 0.4436,-0.04709 0.44359,-0.04709 0.6532,-0.07575 0.65321,-0.07575 0.0913,0.450069 0.0913,0.450073 -0.67837,0.58983 -0.67836,0.58983 v 0.211421 0.21142 l 1.25677,1.125324 1.25677,1.125325 1.25677,1.253463 1.25677,1.25345 v 0.26005 0.26005 z"
       id="path433" /></g></svg>
