<?xml version="1.0" encoding="UTF-8" standalone="no"?>
<!-- Created with Inkscape (http://www.inkscape.org/) -->

<svg
   width="221.35201mm"
   height="156.952mm"
   viewBox="0 0 221.35201 156.952"
   version="1.1"
   id="svg1"
   xml:space="preserve"
   sodipodi:docname="MundiL.svg"
   inkscape:version="1.3.2 (091e20e, 2023-11-25, custom)"
   xmlns:inkscape="http://www.inkscape.org/namespaces/inkscape"
   xmlns:sodipodi="http://sodipodi.sourceforge.net/DTD/sodipodi-0.dtd"
   xmlns="http://www.w3.org/2000/svg"
   xmlns:svg="http://www.w3.org/2000/svg"><sodipodi:namedview
     id="namedview1"
     pagecolor="#ffffff"
     bordercolor="#000000"
     borderopacity="0.25"
     inkscape:showpageshadow="2"
     inkscape:pageopacity="0.0"
     inkscape:pagecheckerboard="0"
     inkscape:deskcolor="#d1d1d1"
     inkscape:document-units="mm"
     inkscape:zoom="1.5089949"
     inkscape:cx="357.19141"
     inkscape:cy="368.12584"
     inkscape:window-width="1920"
     inkscape:window-height="1017"
     inkscape:window-x="-8"
     inkscape:window-y="-8"
     inkscape:window-maximized="1"
     inkscape:current-layer="layer1"
     showgrid="false" /><defs
     id="defs1"><marker
       style="overflow:visible"
       id="Dot"
       refX="0"
       refY="0"
       orient="auto"
       inkscape:stockid="Dot"
       markerWidth="1"
       markerHeight="1"
       viewBox="0 0 1 1"
       inkscape:isstock="true"
       inkscape:collect="always"
       preserveAspectRatio="xMidYMid"><path
         transform="scale(0.5)"
         style="fill:context-stroke;fill-rule:evenodd;stroke:none"
         d="M 5,0 C 5,2.76 2.76,5 0,5 -2.76,5 -5,2.76 -5,0 c 0,-2.76 2.3,-5 5,-5 2.76,0 5,2.24 5,5 z"
         sodipodi:nodetypes="sssss"
         id="path17" /></marker></defs><g
     id="layer1"
     transform="translate(-2.0574649,-23.782539)"><path
       style="fill:#000000;stroke-width:0.264583"
       d="m 69.316479,149.28285 h 0.211666 l 0.01725,-0.33073 0.01725,-0.33073 0.902592,-1.71979 0.902591,-1.71979 0.543073,-1.11389 0.543071,-1.1139 -0.162489,-0.6474 -0.162486,-0.6474 0.280829,-0.52473 0.280831,-0.52474 1.242238,-0.82283 1.242221,-0.82282 h 1.01056 1.01056 l 1.362202,-2.71198 1.362202,-2.71198 0.202158,-1.83226 0.202155,-1.83226 1.745345,-1.66981 1.745345,-1.66981 0.02283,-0.20209 0.02283,-0.2021 0.07582,-1.25637 0.07582,-1.25637 -1.008896,-0.91147 -1.008899,-0.91148 -0.84038,-0.43458 -0.840377,-0.43458 -2.019697,-0.14865 -2.019697,-0.14865 -0.747906,-0.62236 -0.74789,-0.62237 H 73.7516 72.723998 l -0.277522,-0.33073 -0.277524,-0.33072 -1.273503,-1.78208 -1.273503,-1.78208 -0.582406,0.78774 -0.582407,0.78775 -1.118145,0.58877 -1.118145,0.58877 -2.021993,0.009 -2.021993,0.009 -0.557694,-0.50402 -0.557694,-0.50401 v -0.57635 -0.57636 l -0.175123,-0.17512 -0.175122,-0.17512 -0.836864,0.6383 -0.836861,0.63831 -0.377079,-0.23865 -0.377076,-0.23864 -0.198438,-0.004 -0.198437,-0.004 v 1.03245 1.03245 l -0.801206,0.27931 -0.801204,0.2793 -0.455567,-0.16135 -0.455565,-0.16134 -0.47851,-0.41168 -0.478507,-0.41168 -0.447534,0.2829 -0.447532,0.28291 v 1.63366 1.63367 l -0.396875,0.25107 -0.396875,0.25106 -0.667227,0.004 -0.667223,0.004 -1.251005,1.14854 -1.251004,1.14855 v 0.57124 0.57125 h 0.279499 0.279497 l 0.748372,0.81936 0.748373,0.81937 0.580303,-0.31057 0.580305,-0.31057 0.376201,0.14436 0.3762,0.14436 v 0.50916 0.50916 l -0.396875,0.1523 -0.396875,0.1523 v 0.26784 0.26785 l 0.624409,0.15671 0.624409,0.15672 1.558403,-0.66151 1.558404,-0.6615 0.79375,0.74311 0.79375,0.74311 1.119222,0.69276 1.119222,0.69276 h 0.666716 0.666715 v 0.22734 0.22733 l 0.993791,1.16173 0.993794,1.16173 0.593706,1.09435 0.593709,1.09436 v 1.18865 1.18865 l 0.774176,0.32067 0.774176,0.32068 0.713804,1.67951 0.713801,1.67951 -0.168884,0.6729 -0.168886,0.67289 -0.817335,0.93089 -0.817335,0.9309 h 0.420733 0.420732 l 0.378026,0.90474 0.378026,0.90475 0.551566,0.29518 0.551567,0.2952 v 0.59923 0.59923 l 0.3175,0.3175 0.3175,0.3175 z"
       id="path124" /><path
       style="fill:#000000;stroke-width:0.264583"
       d="m 58.96538,172.35864 1.304245,-0.12532 0.390078,-0.39008 0.39008,-0.39008 -1.066379,-0.70569 -1.066379,-0.7057 -0.172829,-0.68861 -0.172831,-0.68861 0.348692,-1.45351 0.348691,-1.45351 0.527331,-0.67039 0.527328,-0.67039 -0.849974,-0.69372 -0.849974,-0.69371 0.838552,-1.14026 0.838554,-1.14025 -0.140224,-1.5464 -0.140221,-1.5464 0.89553,-0.16801 0.89553,-0.168 0.25849,-0.48299 0.25849,-0.48299 -0.155165,-0.15517 -0.155168,-0.15517 1.229427,-0.30957 1.229428,-0.30957 0.919422,-0.91942 0.919425,-0.91943 v -0.5201 -0.5201 l -0.275993,-0.5157 -0.275994,-0.5157 0.34214,-0.10627 0.342138,-0.10626 0.695137,-0.15129 0.69514,-0.15128 0.451885,-0.68966 0.451884,-0.68967 -0.551712,-0.58726 -0.551709,-0.58727 v -0.43394 -0.43394 l -0.661458,-0.66146 -0.661458,-0.66146 v -0.37804 -0.37805 l -0.529167,-0.13838 -0.529167,-0.13838 v -0.25297 -0.25297 l 0.797166,-1.00311 0.797168,-1.0031 -0.08254,-0.0825 -0.08254,-0.0825 -1.288632,0.65239 -1.288634,0.65239 h -0.347978 -0.347977 l 0.161817,-1.54816 0.161813,-1.54816 -1.158057,-0.15375 -1.15806,-0.15376 -0.680728,-0.81163 -0.680725,-0.81163 h -0.849937 -0.849937 l -0.643525,-0.42165 -0.643527,-0.42166 -0.635188,0.73845 -0.635191,0.73846 -1.688539,-1.50622 -1.688536,-1.50623 -0.08002,1.32295 -0.08002,1.32294 0.409591,2.37346 0.409594,2.37346 -0.452234,0.94835 -0.452234,0.94834 0.453385,1.27654 0.453387,1.27654 v 1.12019 1.12018 l -0.79375,0.90403 -0.79375,0.90403 0.0068,0.7184 0.0068,0.7184 0.50832,2.24837 0.508317,2.24837 0.543222,0.43987 0.543221,0.43988 v 0.95857 0.95857 l -0.679246,1.34043 -0.679249,1.34043 0.145396,0.1454 0.145394,0.14539 0.574201,0.29132 0.574199,0.29132 0.06381,1.48617 0.0638,1.48617 0.329129,0.6305 0.329128,0.63049 1.220364,1.36162 1.220365,1.36162 0.369157,0.45429 0.369157,0.45429 z"
       id="path38" /><path
       style="fill:#000000;stroke-width:0.264583"
       d="m 52.327732,121.42646 0.511355,-0.0564 0.199734,-0.75141 0.199731,-0.7514 -0.275289,-0.60419 -0.275285,-0.60419 0.299439,-0.55951 0.299442,-0.55952 0.664483,-0.16677 0.664483,-0.16677 0.473194,0.42823 0.473191,0.42823 h 0.552839 0.552841 l 0.418513,-0.1606 0.418515,-0.16059 v -1.05948 -1.05947 l 0.881711,0.16541 0.881711,0.16541 0.482213,-0.53284 0.482214,-0.53284 h 0.327139 0.327139 l 0.418137,1.04503 0.418139,1.04503 0.580472,0.31066 0.580475,0.31066 1.532234,-0.13894 1.532234,-0.13893 1.112467,-0.62144 1.112464,-0.62144 0.522695,-0.70695 0.522695,-0.70694 -0.16022,-0.41754 -0.16023,-0.41753 h -1.798966 -1.798968 l -1.053608,-0.70098 -1.053605,-0.70098 -1.206286,-1.28304 -1.206285,-1.28305 -1.540738,-0.28482 -1.540737,-0.28482 -0.57639,0.14466 -0.576389,0.14467 -0.919054,-0.25377 -0.919054,-0.25376 -1.29748,-0.82284 -1.29748,-0.82283 -1.696974,0.88568 -1.696976,0.88567 -0.996016,1.32292 -0.996019,1.32292 -0.587243,0.52465 -0.587242,0.52464 0.172447,1.38023 0.172448,1.38023 -0.679543,0.59085 -0.67954,0.59086 0.596024,0.64478 0.596027,0.64478 1.058333,0.69343 1.058334,0.69344 1.984375,0.98498 1.984375,0.98499 z"
       id="path301" /><path
       style="fill:#000000;stroke-width:0.264583"
       d="m 64.329428,143.44165 0.591842,-0.18784 0.995658,-0.6589 0.995655,-0.6589 v -0.37881 -0.37881 l -0.534264,-1.23968 -0.53427,-1.23967 -0.788646,-0.45071 -0.788649,-0.45072 v -1.07943 -1.07944 l -0.640546,-1.26406 -0.640548,-1.26405 -0.97074,-1.16191 -0.970741,-1.1619 -0.515776,-0.0787 -0.515776,-0.0787 -0.981789,-0.5137 -0.981792,-0.5137 -0.867961,-0.83024 -0.867957,-0.83024 -1.654157,0.59325 -1.654159,0.59324 -0.719029,-0.18046 -0.719029,-0.18047 v -0.49581 -0.49582 l 0.396875,-0.1523 0.396875,-0.15229 v -0.40518 -0.40518 h -0.309896 -0.309896 l -0.468296,0.4238 -0.468294,0.4238 -0.836719,-0.95297 -0.836715,-0.95296 h -0.404085 -0.404085 l 0.155273,-0.95685 0.155276,-0.95685 1.069967,-0.91585 1.06997,-0.91586 v -0.20378 -0.20378 l -1.124479,-0.49799 -1.124479,-0.49798 -1.482593,-0.87295 -1.482593,-0.87295 -0.614047,-0.65362 -0.61405,-0.65363 h -0.21576 -0.21576 l -0.919181,1.38906 -0.919181,1.38907 -0.07571,2.28611 -0.07571,2.28612 1.168497,1.02118 1.168498,1.02117 0.769895,1.71979 0.769896,1.71979 1.332756,1.2655 1.332759,1.26549 0.82989,0.42819 0.829892,0.42818 2.751288,2.6058 2.751288,2.6058 h 0.339736 0.339735 l 0.167953,-0.52916 0.167952,-0.52917 h 0.3488 0.348803 l 0.757846,0.39524 0.757849,0.39525 0.831588,0.002 0.831588,0.002 0.151715,0.39537 0.151714,0.39535 0.868781,0.5297 0.86878,0.52969 0.698159,0.001 0.698159,0.001 0.173029,0.92234 0.173032,0.92233 -0.275878,0.51548 -0.275876,0.51543 v 0.16752 0.16751 z"
       id="path143" /><path
       style="fill:#000000;stroke-width:0.264583"
       d="m 45.333338,112.78442 0.330729,0.0117 v -0.26557 -0.26558 l 1.188588,-1.25578 1.188587,-1.25578 -1.320879,-0.08 -1.320879,-0.08 v -0.50704 -0.50703 l 1.101388,-1.60493 1.101387,-1.60494 -0.836803,-0.86336 -0.836806,-0.86337 0.0016,-0.38428 0.0016,-0.38428 0.792075,-0.45073 0.79225,-0.45071 V 100.7698 99.566873 H 46.7104 45.904622 l -0.583285,0.610857 -0.583287,0.61087 -0.264583,0.43942 -0.264583,0.43942 -1.100315,-0.15584 -1.100318,-0.15583 -0.272113,-1.07206 -0.272113,-1.072039 0.380243,-0.7353 0.380241,-0.73531 v -0.82536 -0.82537 l -0.790081,-1.14834 -0.790077,-1.14834 -0.534609,0.13981 -0.53461,0.1398 -0.876911,-0.95736 -0.876911,-0.95737 h -1.72103 -1.72103 l -0.614195,-0.65378 -0.614194,-0.65378 -0.95328,-0.30175 -0.953281,-0.30175 -0.595312,-0.37348 -0.595313,-0.37349 0.0094,0.20454 0.0094,0.20453 0.378124,0.66146 0.378123,0.66146 0.0094,1.25393 0.0094,1.25394 0.499347,1.31417 0.499348,1.31418 0.81674,1.32737 0.816741,1.32737 0.16508,0.657732 0.16508,0.657727 0.370915,0.30783 0.370916,0.30784 v -0.85949 -0.859489 l -0.967408,-2.41406 -0.967409,-2.41405 -0.195671,-0.86131 -0.195671,-0.8613 0.23111,-0.14283 0.23111,-0.14284 1.357119,2.85623 1.35712,2.85622 0.241876,0.0901 0.241875,0.09 0.391308,0.7567 0.391308,0.756712 v 1.484947 1.48495 l 1.785937,0.8043 1.785938,0.8043 0.463021,0.41074 0.463021,0.41075 v 0.95368 0.95368 l 0.511651,0.31953 0.511651,0.31954 0.168955,1.26546 0.168955,1.26547 0.282871,0.74049 0.282874,0.74049 0.954749,0.50459 0.954752,0.50459 z"
       id="path311" /><path
       style="fill:#000000;stroke-width:0.264583"
       d="m 39.965504,93.625391 h 0.827566 l -0.166158,-1.03909 -0.166158,-1.03909 0.661508,-0.52035 0.661509,-0.52034 v -0.70007 -0.70006 l 0.507944,-0.99566 0.507945,-0.99565 0.68268,-0.31105 0.682681,-0.31105 v -0.7465 -0.74651 l 0.282932,-0.28293 0.28293,-0.28293 1.178761,0.13286 1.178758,0.13286 0.522684,-0.47302 0.522685,-0.47302 v -5.11652 -5.116513 l -6.813021,0.0083 -6.813021,0.0083 -2.037303,0.155197 -2.037305,0.155199 0.147482,0.737404 0.14748,0.737405 -0.727847,0.381357 -0.727847,0.381357 -0.05098,2.486244 -0.05098,2.48625 -0.342809,1.03575 -0.34281,1.03574 0.153344,1.87468 0.153344,1.87466 0.567458,1.11801 0.567459,1.11801 0.866677,0.53564 0.866676,0.53563 h 0.406758 0.406758 l 1.132648,0.9463 1.132648,0.9463 1.506804,-0.17488 1.506802,-0.17488 0.692875,0.74723 0.692873,0.74723 v 0.20114 0.20115 z"
       id="path461" /><path
       style="fill:#000000;stroke-width:0.264583"
       d="m 37.18985,73.211554 h 7.088229 l 0.170829,-2.57969 0.170828,-2.57969 0.0013,-1.79524 0.0013,-1.79525 0.381243,-0.586 0.381243,-0.58601 -0.07424,-1.91991 -0.07425,-1.91991 -0.108561,-0.09596 -0.108469,-0.09596 -8.532812,-0.185916 -8.532813,-0.185916 0.0084,0.481993 0.0084,0.481992 0.38846,0.513591 0.388462,0.513591 v 1.296755 1.29676 l 0.512039,0.65095 0.512038,0.65095 -0.557488,0.97828 -0.557489,0.97828 -0.37066,0.43897 -0.37066,0.43896 0.449738,0.88395 0.449738,0.88396 0.50666,0.48369 0.50666,0.48369 -0.05795,1.11945 -0.05795,1.11946 0.194733,0.31508 0.194733,0.31509 z"
       id="path607" /><path
       style="fill:#000000;stroke-width:0.264583"
       d="m 51.438849,59.010425 0.44519,0.008 0.166622,-0.524972 0.166618,-0.524973 1.135232,-0.930236 1.135229,-0.930236 h 0.700355 0.700355 l 0.03135,-0.463021 0.03135,-0.463021 -0.03744,-0.306736 -0.03744,-0.306736 0.703231,-0.55316 0.703228,-0.55316 h 0.515101 0.515104 l 1.169006,-0.957913 1.169009,-0.957914 v -0.336696 -0.336695 l -0.424326,-0.162829 -0.424328,-0.16283 0.144881,-0.37755 0.14488,-0.377551 -0.315867,-0.128498 -0.315865,-0.128497 0.627708,-0.02089 0.62771,-0.02089 -0.329377,-0.396875 -0.329377,-0.396875 h -0.620085 -0.620086 l -0.940226,0.448363 -0.940226,0.448363 -0.391276,-0.391276 -0.391276,-0.391276 -0.398053,-1.528221 -0.39805,-1.528221 0.298432,-0.579386 0.298434,-0.579387 0.456676,-0.529167 0.456679,-0.529166 0.163412,-0.463021 0.163414,-0.463021 h -0.868234 -0.868238 l -0.658736,0.727604 -0.658738,0.727604 -0.697122,1.058334 -0.697124,1.058333 0.0082,1.190625 0.0082,1.190625 -0.02477,0.463021 -0.02475,0.46302 h -0.230474 -0.230478 l -0.629418,-0.929187 -0.629417,-0.929187 -0.396875,0.07229 -0.396875,0.0723 -0.134096,0.923037 -0.134096,0.923038 -0.838211,-0.03685 -0.838213,-0.03685 -0.857284,-0.42767 -0.857287,-0.42767 -0.470728,0.426005 -0.470731,0.426004 -0.08093,0.567682 -0.08093,0.567682 -1.330984,0.07796 -1.330983,0.07796 -1.182558,-1.066411 -1.182558,-1.066412 -0.396875,-0.02981 -0.396875,-0.02981 -0.661458,-0.04007 -0.661459,-0.04007 -0.43747,-0.875974 -0.437467,-0.875974 -0.186709,0.3021 -0.186708,0.3021 -0.600123,-0.150622 -0.600125,-0.150621 -0.994892,0.790641 -0.994893,0.790641 -0.294348,0.03807 -0.294348,0.03807 -1.931142,0.04766 -1.931142,0.04766 -0.197374,-0.352689 -0.197375,-0.352689 -1.223809,0.167741 -1.223808,0.167742 -0.163433,1.752868 -0.163433,1.752868 -0.13859,2.676754 -0.138589,2.676753 0.442762,0.442762 0.442761,0.442761 1.09492,-0.03158 1.094919,-0.03158 10.583333,0.188515 10.583333,0.188516 0.396875,0.221233 0.396875,0.221232 z"
       id="path696" /><path
       style="fill:#000000;stroke-width:0.264583"
       d="m 28.151068,66.830565 0.399626,-0.33166 0.391146,-0.75639 0.391146,-0.75639 -0.503217,-0.63974 -0.503217,-0.63973 0.122919,-1.27925 0.122919,-1.27924 -0.425168,-0.35286 -0.425169,-0.35286 v -0.62906 -0.62906 H 26.96931 26.216567 l -0.454871,-0.50263 -0.454872,-0.50262 0.136923,-2.87081 0.136923,-2.87081 0.16815,-1.65365 0.168151,-1.653646 h -0.493796 -0.493796 l -0.588038,-0.411878 -0.588038,-0.411878 v 0.113136 0.113135 l -1.231276,-0.230027 -1.231276,-0.230027 -0.921263,-0.702681 -0.921262,-0.702681 -1.35319,0.343953 -1.353192,0.343953 -0.595313,0.636546 -0.595313,0.636546 v 0.545565 0.545565 L 14.823614,49.5818 14.09601,49.444214 l -0.66146,-0.175231 -0.661458,-0.175232 0.468585,0.299049 0.468587,0.299049 -0.169018,0.273475 -0.169017,0.273475 0.560328,0.757883 0.560328,0.757883 v 0.24444 0.24444 l -0.470834,0.12312 -0.470834,0.12313 -0.333349,-0.35685 -0.333348,-0.356853 h -0.791623 -0.791622 l -0.164176,0.427833 -0.164175,0.42784 0.246163,0.69664 0.246164,0.69665 1.238232,0.011 1.238231,0.0111 0.16473,0.16473 0.164731,0.16473 -0.30267,0.56554 -0.30267,0.56554 -1.111931,-0.16674 -1.111932,-0.16674 -0.723503,0.5691 -0.7235037,0.56911 v 0.88654 0.88654 l 0.6353237,0.75504 0.635323,0.75503 0.09228,0.65433 0.09228,0.65432 0.793751,0.35763 0.79375,0.35763 0.588475,0.90719 0.588475,0.90719 -0.853059,0.52007 -0.853057,0.52007 -0.246039,0.0831 -0.24604,0.0831 0.17159,0.44716 0.171589,0.44715 h 0.557113 0.557112 l 1.584128,-1.511 1.584127,-1.511 -0.123885,-0.47374 -0.123886,-0.47374 0.239909,0.14827 0.239909,0.14827 v -0.28019 -0.2802 h 0.529166 0.529168 v 0.41183 0.41183 l 0.818196,-0.47797 0.818197,-0.47798 0.379223,-0.72761 0.379223,-0.7276 0.191643,0.005 0.191643,0.005 0.623083,0.65689 0.623083,0.65689 0.699834,0.004 0.699833,0.004 0.354657,0.22479 0.354657,0.22479 0.308008,0.63106 0.308007,0.63105 0.852963,0.39688 0.852964,0.39687 0.0057,0.47182 0.0057,0.47181 0.676153,1.33433 0.676152,1.33432 z"
       id="path638" /><path
       style="fill:#000000;stroke-width:0.264583"
       d="m 66.985145,81.206722 0.572587,-0.0816 0.455507,-0.92604 0.455504,-0.92604 0.801267,-0.85274 0.801264,-0.85274 v -0.53633 -0.53631 h -0.926042 -0.926041 v -0.90882 -0.90882 l -0.280194,-0.73696 -0.280194,-0.73697 0.463055,-0.33859 0.463056,-0.33859 h 0.975365 0.975368 l 0.346506,-0.41752 0.346506,-0.41751 1.263891,-0.64047 1.263891,-0.64046 0.274082,-0.51213 0.274084,-0.51213 v -0.41111 -0.41112 l -0.989512,-1.46925 -0.989516,-1.46925 -0.588504,-0.1477 -0.588505,-0.14771 -0.159457,-0.5024 -0.159456,-0.5024 -0.02294,-0.80664 -0.02294,-0.80664 -0.48855,-0.26147 -0.488537,-0.26146 v -0.49822 -0.498219 l -0.1606,-0.418513 -0.160599,-0.418515 h -0.475195 -0.475197 l -0.776634,0.968095 -0.776634,0.968092 -0.332713,-0.20562 -0.332714,-0.20563 0.166008,-1.107014 0.166007,-1.107012 -0.427741,-1.023726 -0.427739,-1.023726 -0.182488,0.295272 -0.182489,0.295273 -0.522615,-0.08663 -0.522616,-0.08663 0.06615,-0.295583 0.06615,-0.295583 h -1.5875 -1.5875 v 0.975135 0.975135 l -0.543023,0.578023 -0.543023,0.578021 -0.02217,0.497364 -0.02217,0.497364 0.196411,1.599897 0.196411,1.5999 -1.089486,0.72099 -1.089488,0.72098 0.02127,1.64787 0.02125,1.64787 -0.415073,1.53426 -0.415071,1.53426 v 1.97147 1.97147 h 1.069047 1.069049 l 0.742288,0.54879 0.742291,0.54881 0.977284,-0.18334 0.977283,-0.18334 0.664835,-0.87165 0.664834,-0.87164 0.421267,-0.16165 0.421267,-0.16166 0.467106,0.42273 0.467109,0.42272 0.168635,0.6719 0.168634,0.6719 -0.295521,1.42353 -0.295523,1.42353 0.173407,0.54635 0.173408,0.54636 z"
       id="path524" /><path
       style="display:inline;fill:#000000;stroke-width:0.264583"
       d="m 176.522,52.550814 h 0.0576 l 0.95836,-0.400425 0.95835,-0.400426 v -0.906876 -0.906876 l 0.27617,-0.170685 0.27618,-0.170684 0.39025,0.323877 0.39025,0.323877 0.47889,-0.433391 0.47889,-0.433391 h 1.53802 1.53802 l 0.75625,-0.791341 0.75625,-0.791342 v -0.785727 -0.785726 l 0.33073,-0.267495 0.33073,-0.267496 0.76624,-0.668978 0.76624,-0.668978 h 0.59694 0.59694 l 0.2816,0.807803 0.2816,0.807804 0.52197,-0.279353 0.52198,-0.279352 0.16396,0.265299 0.16396,0.265299 h 0.49734 0.49734 l 0.18148,-1.210157 0.18147,-1.210158 -0.84279,-0.869543 -0.8428,-0.869544 -0.0158,-1.14641 -0.0158,-1.14641 0.62721,-0.475184 0.62721,-0.475184 0.48989,-0.465892 0.48989,-0.465893 0.24851,-0.640939 0.24851,-0.64094 -0.14287,-0.372318 -0.14287,-0.372319 -0.73703,0.161878 -0.73702,0.161877 -0.043,-0.571194 -0.043,-0.571194 -0.54309,-0.505961 -0.54308,-0.505962 v 0.257061 0.25706 l -0.55269,0.175416 -0.55268,0.175415 -0.38836,-0.554461 -0.38836,-0.55446 h -1.28945 -1.28944 l 0.20539,0.727604 0.20539,0.727604 -0.0986,0.285773 -0.0986,0.285773 -1.29308,-0.112508 -1.29307,-0.112506 -0.29667,0.554338 -0.29667,0.554338 h -0.39587 -0.39587 l -0.1452,-0.378387 -0.1452,-0.378387 -0.77254,-0.269307 -0.77254,-0.269308 v -0.945478 -0.945478 l -0.66121,-0.301267 -0.66121,-0.301268 -1.05858,1.079913 -1.05858,1.079913 v 0.519514 0.519514 l 0.66146,0.433404 0.66146,0.433404 v 0.490671 0.49067 l -0.33824,0.280711 -0.33824,0.28071 -0.0789,1.932716 -0.0789,1.932716 -0.10868,0.108689 -0.10869,0.108688 -1.27379,0.04482 -1.27378,0.04482 -0.84622,0.625637 -0.84622,0.625637 v 0.193804 0.193804 l 0.7276,0.166625 0.72761,0.166625 0.49744,0.677405 0.49744,0.677405 -0.35546,0.219689 -0.35547,0.21969 0.45334,0.950654 0.45333,0.950655 v 0.620085 0.620085 l 0.39396,0.326959 0.39397,0.326959 -0.16243,0.262803 -0.16242,0.262803 0.33998,1.030135 0.33997,1.030134 z"
       id="path685" /><path
       style="display:inline;fill:#000000;stroke-width:0.264583"
       d="m 113.63627,63.663314 h 0.46731 l 0.74491,-0.777515 0.7449,-0.777515 -0.13963,-0.730449 -0.13963,-0.730445 0.21612,-0.568447 0.21612,-0.568447 0.81561,-0.892974 0.8156,-0.892971 V 57.39909 57.073631 l -0.30705,-0.67391 -0.30705,-0.673907 h -0.22212 -0.22211 l 0.0662,-0.308681 0.0661,-0.308679 0.45702,-0.47907 0.45702,-0.479068 -0.13833,-0.360484 -0.13833,-0.360487 0.40891,-0.339371 0.40892,-0.33937 V 52.49952 52.248433 l 0.37798,-0.377976 0.37797,-0.377976 h 0.28348 0.28349 l 0.0217,0.330729 0.0217,0.330729 -0.0387,1.058334 -0.0387,1.058333 -0.0703,1.150048 -0.0703,1.150046 0.35259,0.1353 0.35258,0.135303 1.77329,-0.352475 1.7733,-0.352476 0.63634,-0.547362 0.63635,-0.547362 -0.43152,-1.271 -0.43151,-1.271 -0.16199,-4.009302 -0.16198,-4.009303 0.43559,-1.032812 0.43558,-1.032811 -0.0696,-0.03945 -0.0696,-0.03945 -0.7183,-0.449088 -0.71829,-0.449088 h -0.61785 -0.61785 l -0.25136,0.230424 -0.25135,0.230423 -0.79375,0.174489 -0.79375,0.174489 0.39687,-0.268569 0.39688,-0.268569 -0.4458,-0.0041 -0.4458,-0.0041 -0.6946,0.264088 -0.6946,0.264088 0.19161,0.310041 0.19162,0.310042 -0.44028,-0.168951 -0.44028,-0.16895 v 0.643845 0.643845 l -0.50782,0.271779 -0.50782,0.271778 -0.15657,-0.328615 -0.15657,-0.328615 0.10846,0.587679 0.10846,0.58768 -0.95027,-0.397047 -0.95027,-0.397047 -0.4926,0.492602 -0.4926,0.492601 0.43482,0.360871 0.43482,0.36087 -0.0549,-0.382646 -0.0549,-0.382647 0.0313,-0.330729 0.0314,-0.330729 h 0.2802 0.2802 l -0.20706,0.330729 -0.20706,0.330729 -0.007,0.351447 -0.007,0.351447 -1.02272,0.706886 -1.02271,0.706887 -0.34741,1.027779 -0.3474,1.02778 -1.01113,1.042697 -1.01113,1.042696 -0.8572,0.362295 -0.85721,0.362294 0.15906,0.4145 0.15906,0.414501 -0.38273,-0.146867 -0.38273,-0.146865 -0.58944,0.477298 -0.58944,0.4773 -0.14892,1.11034 -0.14893,1.11034 0.43018,1.075123 0.43018,1.075122 0.0186,0.722251 0.0186,0.722249 0.21567,-0.529166 0.21567,-0.529167 0.19083,0.725776 0.19083,0.725776 0.19226,-0.118825 0.19227,-0.118824 v 0.396621 0.396624 l -0.35281,-0.135374 -0.35277,-0.135375 v 0.227973 0.227971 l 0.41851,0.160599 0.41851,0.1606 h 0.53284 0.53282 l 0.75733,-0.539266 0.75733,-0.539266 0.7835,1.399162 0.7835,1.399161 0.4306,0.595313 0.43059,0.595312 z"
       id="path621" /><path
       style="display:inline;fill:#000000;stroke-width:0.264583"
       d="m 174.13071,67.996067 0.52916,-0.160528 0.52917,0.02207 0.52917,0.02207 1.80412,0.172767 1.80413,0.172765 1.02376,-0.461653 1.02376,-0.46165 0.66952,0.16804 0.66952,0.168039 0.41558,-0.80364 0.41558,-0.803637 0.18839,-1.508165 0.18839,-1.508162 0.79341,-0.235815 0.79342,-0.235815 0.52223,-0.272683 0.52224,-0.272682 0.58996,0.766826 0.58996,0.766826 1.27008,1.716368 1.27009,1.716365 0.43666,0.08409 0.43666,0.0841 0.14889,-1.403585 0.14889,-1.403586 0.15386,-1.190625 0.15386,-1.190625 -1.03132,-1.180266 -1.03132,-1.18027 -1.13468,0.44572 -1.13469,0.445717 -0.22808,-0.140962 -0.22808,-0.14097 v -0.657317 -0.657315 l -1.45521,-1.49048 -1.45521,-1.490478 V 52.900957 49.90499 h -1.60489 -1.6049 l -0.52868,0.282944 -0.52869,0.282944 -0.34723,-0.288179 -0.34724,-0.288179 -0.30112,1.19586 -0.30112,1.19586 h -0.50974 -0.50974 l -0.16352,0.264583 -0.16352,0.264584 h -0.48146 -0.48145 l -0.34457,0.831855 -0.34456,0.831858 0.0381,0.821788 0.0381,0.82179 0.0882,1.5259 0.0882,1.525897 -0.58375,0.548402 -0.58375,0.548404 -0.43429,-0.486801 -0.4343,-0.486802 -0.49601,-0.661458 -0.49602,-0.661458 -0.94555,0.911799 -0.94555,0.911796 v 0.49103 0.491027 l -0.79375,0.276701 -0.79375,0.276704 v 0.247198 0.2472 l 0.3766,0.90135 0.37661,0.901351 -0.5089,0.998178 -0.5089,0.998177 v 0.319353 0.319352 l 0.89113,0.550746 0.89112,0.550746 0.76252,0.0094 0.76252,0.0094 0.66146,0.385183 0.66146,0.385181 z"
       id="path593" /><path
       style="display:inline;fill:#000000;stroke-width:0.264583"
       d="m 195.03279,72.216399 0.26458,-0.09802 0.50158,-1.044282 0.50157,-1.044283 -0.16679,-1.59575 -0.16679,-1.59575 h 0.28752 0.28753 l -0.16498,-1.78073 -0.16497,-1.780728 -0.43951,-1.394272 -0.4395,-1.39427 h -0.21627 -0.21626 v -0.280199 -0.280196 l 0.26458,0.16352 0.26458,0.163521 V 59.454905 58.65485 l -0.52653,-0.281792 -0.52653,-0.281792 0.0635,-0.281308 0.0635,-0.281305 -0.45629,-0.300508 -0.45629,-0.300509 -0.85297,0.321961 -0.85297,0.321961 -0.19463,-0.314928 -0.19464,-0.314926 0.11876,-0.192153 0.11876,-0.192154 -0.59924,-0.08522 -0.59924,-0.08522 0.0745,-0.914009 0.0745,-0.914011 0.5176,-0.482213 0.51759,-0.482214 0.17028,-0.67845 0.17028,-0.678448 1.17526,-0.503773 1.17525,-0.503772 0.49236,0.263502 0.49236,0.263502 h 0.5157 0.5157 l 0.13838,-0.529166 0.13838,-0.529167 h 0.28431 0.28432 l 0.16601,0.661458 0.16602,0.661459 h 0.73267 0.73267 l 0.30611,-0.368844 0.30611,-0.368843 -0.38688,-0.386886 -0.38689,-0.386886 -0.17163,-0.914885 -0.17163,-0.914884 0.4055,-0.336539 0.4055,-0.336539 0.27618,0.170684 0.27617,0.170685 v 0.38126 0.38126 h 0.2802 0.2802 l -0.16468,0.266452 -0.16467,0.266452 0.41701,0.160023 0.41701,0.160024 0.34842,-0.289162 0.34842,-0.289162 -0.10396,-0.732626 -0.10395,-0.732626 0.41362,-0.529167 0.41363,-0.529166 0.39688,0.51359 0.39687,0.513591 v 0.486142 0.486142 l -0.85512,1.646101 -0.85511,1.6461 -0.0118,0.264584 -0.0118,0.264583 -0.15988,0.264583 -0.15988,0.264584 0.001,1.984375 0.001,1.984375 0.91832,1.657752 0.91833,1.657755 0.50956,0.272711 0.50957,0.272711 0.23876,-0.147561 0.23876,-0.147563 0.20125,-0.856861 0.20126,-0.856861 0.0219,-0.396875 0.0219,-0.396875 -0.29997,-0.396875 -0.29998,-0.396875 0.009,-0.463021 0.009,-0.463021 h 0.22028 0.22048 v -0.811143 -0.811144 l -0.27389,-0.511773 -0.27389,-0.511773 h 0.26558 0.26559 l -0.17373,-0.463021 -0.17374,-0.463021 -0.31909,-0.264583 -0.31909,-0.264583 -0.11404,-0.856757 -0.11405,-0.856756 0.50708,-0.160938 0.50706,-0.160938 -0.1293,-0.494456 -0.1293,-0.494456 0.43898,-0.139326 0.43897,-0.139326 0.79612,-0.09269 0.79611,-0.09269 0.58708,-0.314194 0.58707,-0.314195 0.37448,-0.71976 0.37447,-0.719761 0.6866,-0.641433 0.6866,-0.641433 v -0.21365 -0.21365 l -0.8599,-0.881758 -0.85989,-0.881758 0.34516,-0.710555 0.34517,-0.710555 h 0.237 0.237 l 0.24552,0.438719 0.24551,0.438719 0.62753,0.04394 0.62752,0.04394 0.35837,0.735512 0.35837,0.735511 0.80704,-0.161408 0.80704,-0.161408 0.36262,-0.300948 0.36262,-0.300949 -0.40993,-0.452967 -0.40993,-0.452966 0.1664,-0.433619 0.16639,-0.433619 0.30301,0.181561 0.303,0.181561 -0.37917,-0.467002 -0.37918,-0.467002 -0.99934,-0.509828 -0.99935,-0.509829 h -0.5027 -0.5027 l -0.98443,-0.928441 -0.98444,-0.928442 -0.2432,0.150307 -0.2432,0.150306 v -0.248099 -0.248099 l -0.85989,-0.338878 -0.8599,-0.338878 -0.66146,-0.587218 -0.66145,-0.587218 -0.95667,-0.169663 -0.95667,-0.169662 -0.45266,0.173703 -0.45267,0.173702 -0.23776,0.625373 -0.23777,0.625374 h -0.38781 -0.38781 l -0.16352,-0.264584 -0.16352,-0.264583 h -2.07062 -2.07062 l -0.43341,-0.661458 -0.4334,-0.661459 h -0.60547 -0.60547 l -0.53374,0.497253 -0.53374,0.497253 -0.3196,0.759518 -0.3196,0.759518 -1.04863,0.744763 -1.04863,0.744764 v 0.963873 0.963872 l 0.94455,0.967312 0.94455,0.967311 -0.3704,1.270324 -0.37041,1.270323 -0.56573,0.209276 -0.56572,0.209275 -0.15693,-0.253914 -0.15693,-0.253913 -0.6487,0.162814 -0.64871,0.162815 -0.287,-0.823302 -0.28701,-0.823302 -0.43714,0.0046 -0.43713,0.0046 -0.62309,0.656887 -0.62308,0.656887 h -0.21356 -0.21355 l -0.17772,1.0519 -0.17772,1.0519 -0.63471,0.601746 -0.63472,0.601746 -0.005,3.196058 -0.005,3.196055 1.45521,1.608058 1.45521,1.608059 v 0.584557 0.584554 l 0.59531,-0.187886 0.59531,-0.187886 0.70236,-0.133879 0.70235,-0.133879 1.06547,1.097894 1.06547,1.097894 0.16133,0.734549 0.16134,0.734547 -0.29125,0.766022 -0.29124,0.766021 0.0716,1.922815 0.0716,1.922814 -0.32046,0.320463 -0.32045,0.320461 v 0.336394 0.336394 l 0.8599,0.222766 0.85989,0.222766 0.1323,0.737534 0.13229,0.737531 0.79375,0.33011 0.79375,0.33011 z"
       id="path567" /><path
       style="display:inline;fill:#000000;stroke-width:0.264583"
       d="m 170.47648,73.974018 0.31451,0.008 0.16977,-1.132117 0.16978,-1.132115 -0.4533,-1.132901 -0.4533,-1.132898 0.32179,-0.706242 0.32178,-0.706239 -0.62602,-0.534474 -0.62601,-0.534472 -0.62032,-0.407577 -0.62032,-0.40758 0.59121,-1.158854 0.5912,-1.158854 -0.29296,-0.977805 -0.29296,-0.977804 v -0.427284 -0.427283 l 0.66376,-0.166593 0.66377,-0.166595 0.15882,-0.632801 0.15882,-0.632801 1.00353,-0.794809 1.00353,-0.794808 0.41065,0.157583 0.41065,0.157583 0.55679,0.943682 0.55678,0.943684 0.34862,-0.371999 0.34862,-0.371999 0.15178,-1.381691 0.15179,-1.381691 -0.2766,-0.170945 -0.27659,-0.170947 0.18325,-1.222002 0.18325,-1.222002 0.38849,-0.75125 0.38848,-0.751251 -0.4342,-0.662673 -0.4342,-0.662673 0.14941,-0.389363 0.14942,-0.389363 -0.4167,-0.63596 -0.4167,-0.63596 0.15949,-0.258047 0.15948,-0.258048 -0.45661,-0.957505 -0.4566,-0.957506 0.30808,-0.493311 0.30808,-0.49331 -0.42524,-0.352914 -0.42523,-0.352913 -0.81969,-0.264962 -0.81969,-0.264963 v -0.271659 -0.271658 l 1.1058,-0.999022 1.1058,-0.999021 0.4817,0.29878 0.4817,0.29878 0.72761,-0.278322 0.7276,-0.278322 0.0314,-1.527903 0.0314,-1.527902 -0.0348,-0.295434 -0.0348,-0.295433 0.38464,-0.319224 0.38464,-0.319223 -0.15265,-0.397799 -0.15265,-0.397799 -0.62537,-0.237766 -0.62538,-0.237767 v -0.800298 -0.800299 h -0.39687 -0.39688 l 0.0661,-0.315016 0.0661,-0.315015 -0.51878,-0.111998 -0.51878,-0.111998 -0.90036,0.484878 -0.90037,0.484878 -0.47686,-0.5889 -0.47686,-0.5889 -0.77322,0.729473 -0.77321,0.729473 -0.62574,0.463021 -0.62574,0.463021 h -0.4974 -0.4974 l 0.0967,-0.198438 0.0967,-0.198437 0.33746,-0.661459 0.33745,-0.661458 1.0903,-0.778677 1.09029,-0.778677 -0.21828,0.381802 -0.21829,0.381802 0.35632,-0.330729 0.35631,-0.330729 -0.29854,-0.298538 -0.29853,-0.298537 0.31176,-0.503286 0.31177,-0.503286 -0.39687,-0.260012 -0.39688,-0.260013 -0.92604,0.06965 -0.92604,0.06965 -0.082,-0.576099 -0.082,-0.576098 -0.38464,-0.319222 -0.38464,-0.319222 -0.79241,0.829175 -0.7924,0.829174 h -0.24023 -0.24023 l -0.10933,-0.327973 -0.10932,-0.327973 -1.03721,0.08797 -1.0372,0.08797 -0.22139,0.389827 -0.2214,0.389827 -0.70465,-0.04557 -0.70464,-0.04557 -0.40972,0.02804 -0.40973,0.02804 -1.12783,1.083725 -1.12784,1.083726 -0.24048,0.63252 -0.24048,0.63252 -0.60321,-0.223048 -0.60321,-0.223048 -0.33073,0.116351 -0.33073,0.116352 2.6e-4,0.573263 2.7e-4,0.573264 0.66113,0.768757 0.66126,0.768758 v 0.09114 0.09114 h -0.52713 -0.52713 l -0.70067,-0.786389 -0.70068,-0.786389 -0.2274,0.140546 -0.22741,0.140545 v 0.609462 0.609462 l 0.79375,0.998805 0.79375,0.998804 v 0.47717 0.477171 l -0.24427,0.150967 -0.24427,0.150969 -0.94636,-0.558363 -0.94635,-0.558362 V 38.66642 38.328076 l -0.38598,-0.32033 -0.38597,-0.320329 -0.15887,0.632984 -0.15887,0.632985 0.56386,1.507031 0.56385,1.507032 h 0.73373 0.73373 l 0.40659,0.463021 0.40659,0.463021 0.2103,0.661458 0.21029,0.661458 0.0465,1.16562 0.0465,1.165619 0.46911,0.343023 0.46912,0.343023 -0.14717,0.383516 -0.14717,0.383516 0.51086,0.133592 0.51086,0.133593 v 1.094401 1.094401 l 1.12447,1.471091 1.12448,1.471089 0.39256,0.624147 0.39257,0.624144 -0.29973,0.794052 -0.29972,0.794051 0.63477,0.684922 0.63476,0.684921 -0.008,0.978556 -0.008,0.978557 -0.38845,0.51359 -0.38847,0.513591 v 0.391618 0.391617 l -0.42279,0.467183 -0.42279,0.46718 0.18497,0.299294 0.18497,0.299294 0.40838,-0.15671 0.40838,-0.156707 0.4909,0.444262 0.4909,0.444261 v 0.752743 0.752742 h 0.35009 0.35009 l 1.10512,1.358535 1.10512,1.358537 v 1.230252 1.230249 l 0.80602,0.476131 0.80603,0.476131 0.35106,-0.291357 0.35107,-0.291359 0.38695,0.148489 0.38695,0.148487 0.44034,0.923388 0.44033,0.923385 v 0.374754 0.37475 l 0.46302,0.269685 0.46302,0.269684 z"
       id="path538" /><path
       style="display:inline;fill:#000000;stroke-width:0.264583"
       d="m 161.67591,73.982064 h 0.3775 l 0.41625,-0.834401 0.41626,-0.8344 V 71.95049 71.587717 l 0.6564,-0.249565 0.6564,-0.249563 -0.16202,-0.42222 -0.16202,-0.422217 0.56395,-0.395007 0.56395,-0.395004 v -0.812824 -0.812826 l -0.92604,-1.025017 -0.92604,-1.025017 v -0.263821 -0.263822 h -0.52917 -0.52916 v -0.740833 -0.740833 l -0.3175,-0.3175 -0.3175,-0.3175 h -0.61685 -0.61685 l -0.15229,-0.396875 -0.1523,-0.396875 0.15892,-0.33073 0.15891,-0.330729 0.22753,-0.396875 0.22752,-0.396875 0.4523,-0.945801 0.45231,-0.9458 -0.1837,-0.773991 -0.1837,-0.773991 -0.51711,-0.570349 -0.51712,-0.570349 0.28726,-0.536737 0.28725,-0.536736 V 54.725882 54.22033 l -0.51861,-0.469334 -0.51861,-0.469334 -0.98771,-1.434122 -0.98772,-1.434121 0.0618,-1.047969 0.0618,-1.047969 h -0.57074 -0.57075 l 0.13838,-0.529167 0.13838,-0.529166 h -0.25358 -0.25357 l -0.2767,-0.79375 -0.27671,-0.79375 h -0.34268 -0.34269 l -0.19857,-0.463021 -0.19857,-0.463021 0.0579,-0.727604 0.0579,-0.727604 h -0.38442 -0.38442 l -0.25975,0.330729 -0.25975,0.330729 -0.17266,0.908681 -0.17267,0.90868 -0.43474,0.480382 -0.43474,0.480382 h -0.75274 -0.75274 v -0.49677 -0.49677 l 0.41621,-0.345426 0.41621,-0.345426 0.50223,-0.98446 0.50224,-0.984461 -0.40541,-0.812659 -0.4054,-0.812659 -0.61567,-0.484281 -0.61566,-0.484281 0.36322,-1.043591 0.36323,-1.043591 0.004,-0.325688 0.004,-0.325688 -0.66224,-0.166212 -0.66224,-0.166211 -0.63125,-0.7502 -0.63126,-0.750201 -0.16171,0.161718 -0.16174,0.161718 v 0.368393 0.368393 l 0.26458,-0.163522 0.26458,-0.163521 v 0.216553 0.216554 l -0.53304,0.332888 -0.53303,0.332887 0.16532,0.658727 0.16533,0.658725 -0.46103,0.703636 -0.46104,0.703635 0.48244,0.352771 0.48244,0.35277 h 0.21402 0.21401 v 0.529167 0.529166 h 0.36448 0.36448 l 0.35313,0.425507 0.35314,0.425506 -0.5036,0.368244 -0.5036,0.368243 h 0.32984 0.32985 l -0.1336,1.446462 -0.1336,1.446461 -0.7024,1.25811 -0.70239,1.25811 0.16539,1.594908 0.1654,1.594908 0.11201,0.79375 0.11202,0.79375 -0.30449,0.863986 -0.30449,0.863984 0.41644,0.723516 0.41643,0.723514 -0.11818,0.396875 -0.11819,0.396875 -0.14806,0.396875 -0.14807,0.396875 -0.0518,0.468968 -0.0518,0.468966 0.58448,0.146696 0.58448,0.146695 0.30692,0.673608 0.30692,0.673606 -0.39813,0.607626 -0.39814,0.607624 0.31985,1.346461 0.31984,1.34646 0.46603,0.147912 0.46603,0.147913 v 0.377002 0.377005 l 0.78947,0.703427 0.78948,0.703426 0.55704,1.150697 0.55704,1.150699 h 0.77015 0.77015 v 0.396875 0.396875 l 0.52917,0.529167 0.52916,0.529166 h 1.02594 1.02593 l 0.31955,0.385027 0.31954,0.385025 0.47925,-0.299294 0.47924,-0.299294 0.68046,0.774165 0.68045,0.774163 0.008,0.198438 0.008,0.198437 z"
       id="path532" /><path
       style="display:inline;fill:#000000;stroke-width:0.264583"
       d="m 117.16161,81.654981 h 1.04215 l -0.155,-1.12448 -0.155,-1.124479 0.8504,-1.322916 0.8504,-1.322917 0.0369,-0.396875 0.0369,-0.396875 0.0453,-0.463021 0.0453,-0.463021 0.59532,-0.004 0.59531,-0.004 0.29819,-0.194384 0.29819,-0.194387 0.69831,-1.751335 0.69831,-1.751335 -0.66258,-1.159082 -0.66259,-1.159081 -0.003,-1.089319 -0.003,-1.089321 -1.07879,-0.713907 -1.07878,-0.713904 -1.10403,-0.19305 -1.10403,-0.193048 -1.98437,0.340161 -1.98438,0.340162 -0.68956,0.240027 -0.68957,0.240028 -0.34075,-0.210593 -0.34075,-0.210595 0.16531,-1.033735 0.1653,-1.033738 -0.40676,-0.580728 -0.40679,-0.580739 h -0.34086 -0.34087 l -0.40173,0.46302 -0.40172,0.463021 0.06,2.182813 0.06,2.182812 h -0.19934 -0.19933 l -0.56504,1.202076 -0.56504,1.202076 -0.25785,-0.159358 -0.25784,-0.159356 v 0.295812 0.295812 l -0.25131,-0.155315 -0.25131,-0.155319 -0.30032,0.602724 -0.30032,0.602723 -0.96112,0.842018 -0.96111,0.842021 -0.0333,1.274646 -0.0333,1.274648 -0.1937,0.60206 -0.19369,0.602062 0.98272,1.367882 0.98273,1.36788 0.17565,0.656781 0.17565,0.65678 1.32974,0.07921 1.32974,0.07921 1.16988,-0.199388 1.16987,-0.199387 0.41272,-0.872342 0.41272,-0.872342 0.38103,-0.241088 0.38103,-0.241088 h 1.19063 1.19062 l 0.35952,0.22779 0.35952,0.227793 -0.18588,1.100225 -0.18588,1.100222 0.32178,0.387726 0.32178,0.387723 z"
       id="path498" /><path
       style="display:inline;fill:#000000;stroke-width:0.264583"
       d="m 194.77546,82.977897 h 0.34242 l 0.55276,-1.141867 0.55277,-1.141871 v -0.315356 -0.315357 l -1.73712,-1.762972 -1.73714,-1.762969 0.16412,-0.682408 0.16411,-0.682408 0.35402,-0.273002 0.35401,-0.273005 0.27061,-0.980043 0.2706,-0.980046 -0.69406,-0.334452 -0.69406,-0.334452 -0.15077,-0.661458 -0.15076,-0.661459 -0.85261,-0.378478 -0.85261,-0.378476 v -0.560795 -0.560792 l 0.29971,-0.299715 0.29972,-0.299717 -0.15912,-0.414658 -0.15912,-0.41466 h -0.47654 -0.47655 l -0.9812,-1.256771 -0.98121,-1.256771 -0.81686,-1.14613 -0.81685,-1.146132 -0.36075,0.13843 -0.36074,0.13843 -0.94483,0.177252 -0.94483,0.177249 -0.006,1.227326 -0.006,1.227325 -0.52507,1.157208 -0.52508,1.157208 -0.80892,-0.161782 -0.80891,-0.161785 -1.05437,0.537898 -1.05437,0.537898 -1.77302,-0.249912 -1.77301,-0.249915 -0.26459,-0.07004 -0.26458,-0.07004 -0.75552,0.211384 -0.75553,0.211383 -0.9071,-0.432564 -0.90707,-0.432565 h -0.37169 -0.37169 l -0.18308,1.220878 -0.18308,1.220874 0.41471,0.869654 0.41471,0.869656 -0.29656,0.966275 -0.29656,0.966274 0.4456,0.754329 0.44559,0.75433 v 0.942057 0.942054 l 0.48538,0.259771 0.48539,0.25977 0.63909,0.936115 0.6391,0.936114 0.79375,0.275677 0.79375,0.275678 0.39687,0.501578 0.39688,0.501579 2.13624,0.108439 2.13624,0.10844 0.3773,0.242832 0.3773,0.242834 1.32292,0.05554 1.32291,0.05554 1.7198,0.106685 1.71979,0.106688 1.16738,0.32254 1.16737,0.322543 0.61856,-0.331044 0.61856,-0.331041 v -0.45615 -0.456149 l -0.41604,-0.159653 -0.41604,-0.159649 -0.51393,0.275045 -0.51392,0.275045 -0.17709,-0.474433 -0.17709,-0.474429 -0.47065,-0.338873 -0.47065,-0.338873 0.45322,-0.892125 0.45323,-0.892122 0.47379,-0.299321 0.47378,-0.29932 0.27526,0.170119 0.27526,0.170119 -0.1547,0.616379 -0.1547,0.616378 0.24929,0.154073 0.24929,0.154069 0.23861,-0.426376 0.23862,-0.426376 0.63754,0.09008 0.63755,0.09008 0.13229,0.852782 0.13229,0.852781 0.37288,-0.23299 0.37288,-0.232989 0.35473,0.13612 0.35472,0.13612 0.004,0.831588 0.004,0.831588 0.15954,0.595313 0.15954,0.595312 z"
       id="path485" /><path
       style="display:inline;fill:#000000;stroke-width:0.264583"
       d="m 137.41977,88.412773 1.25677,-0.0965 0.21405,-0.0234 0.21405,-0.0234 -0.18878,-0.30546 -0.18879,-0.30547 0.3171,0.19598 0.3171,0.19598 0.64982,-0.42578 0.64983,-0.4258 v -1.171379 -1.171379 l 0.46302,-0.259596 0.46302,-0.259599 -0.70332,-0.745736 -0.70333,-0.745738 -0.96515,-1.768756 -0.96516,-1.768753 0.93109,-1.03061 0.9311,-1.030613 -0.4052,-0.578498 -0.4052,-0.578498 -0.29144,0.180123 -0.29144,0.18012 0.15729,-0.409903 0.1573,-0.409906 -0.36496,-0.521044 -0.36495,-0.521046 -0.35762,-1.037987 -0.35762,-1.03799 0.23019,-0.888309 0.23018,-0.888312 0.38006,-0.380053 0.38005,-0.380055 v -0.488627 -0.48863 l 0.1606,-0.418513 0.1606,-0.418515 h 0.5925 0.5925 l 0.8495,-0.423786 0.8495,-0.423786 0.51443,0.134528 0.51444,0.134527 -0.14007,-0.226634 -0.14007,-0.226632 0.60272,-0.329104 0.60273,-0.329102 0.79375,0.06677 0.79375,0.06677 0.41153,0.118253 0.41153,0.118256 0.64169,-0.596802 0.64169,-0.5968 0.20355,0.06615 0.20355,0.06615 V 65.49968 65.219483 l 0.26155,0.161648 0.26155,0.161649 -0.15756,-0.410617 -0.15757,-0.410617 0.49133,-0.02088 0.49132,-0.02088 -0.33237,-0.134003 -0.33238,-0.134001 0.15672,-0.253577 0.15671,-0.253574 -0.30041,-0.361979 -0.30042,-0.361979 0.12274,-1.321279 0.12273,-1.321276 -0.50018,-0.1308 -0.50018,-0.130799 -0.31294,-0.686821 -0.31293,-0.686822 0.505,-0.568896 0.505,-0.568897 -0.34178,-0.119366 -0.34177,-0.119364 0.27022,-0.325597 0.27022,-0.325596 -0.23499,-0.819383 -0.235,-0.819383 0.12781,-0.127812 0.12781,-0.127809 0.10893,-1.611898 0.10892,-1.611897 h -0.22862 -0.22862 l 0.0339,-1.861901 0.0339,-1.861902 0.3481,-0.214969 0.3481,-0.214969 0.36149,-0.696773 0.36149,-0.696774 -0.24657,-0.152388 -0.24657,-0.152411 0.004,-0.447406 0.004,-0.447406 0.25648,0.396875 0.25647,0.396875 0.004,-0.46302 0.004,-0.463021 h -0.23373 -0.23372 l -0.14999,-0.595313 -0.14999,-0.595312 0.38371,0.51359 0.38372,0.513591 v -0.341501 -0.341612 l -0.87872,-0.878716 -0.87871,-0.878716 -0.96911,-0.181806 -0.96911,-0.181806 -0.94543,0.557814 -0.94542,0.557813 h -0.62911 -0.62911 l -0.65258,-0.248111 -0.65258,-0.248111 -0.48912,0.558175 -0.48913,0.558175 0.33073,-0.193387 0.33073,-0.193387 v 0.251891 0.25189 l -0.39687,0.152296 -0.39688,0.152295 v -0.288676 -0.288676 l -0.39396,0.326959 -0.39396,0.326959 0.14499,0.234604 0.14499,0.234604 h -0.41248 -0.41249 l -0.47956,0.479558 -0.47956,0.479557 -0.35102,-0.117007 -0.35102,-0.117007 0.18473,0.298908 0.18474,0.298908 h -0.67707 -0.67708 v -0.778747 -0.778747 l -0.58804,-0.411878 -0.58803,-0.411878 h -0.36805 -0.36805 l 0.18845,1.256771 0.18845,1.256771 0.25683,0.479933 0.25683,0.479934 -0.31292,0.377049 -0.31292,0.377049 -0.1811,-0.11192 -0.18109,-0.111921 -0.28118,0.18098 -0.28118,0.180979 -0.41778,0.815799 -0.41778,0.815798 h -0.41289 -0.41288 v -0.227035 -0.227034 l -0.69815,-0.265438 -0.69816,-0.265437 -0.11703,0.117034 -0.11703,0.117033 0.27576,0.515278 0.27577,0.515278 -0.34142,0.466924 -0.34142,0.466924 -0.57437,-0.307392 -0.57437,-0.307392 v -0.363283 -0.363284 l -1.16773,-1.201509 -1.16773,-1.201509 0.3418,-0.283669 0.3418,-0.283669 0.71086,0.270271 0.71087,0.27027 h 0.8932 0.8932 l 0.15094,-0.244227 0.15095,-0.244227 0.78768,-0.173004 0.78768,-0.173004 0.16922,-0.273808 0.16922,-0.273809 -0.36462,-0.235002 -0.36463,-0.235002 0.35805,-0.230935 0.35804,-0.230935 -0.29108,-0.543886 -0.29107,-0.543886 -1.42982,-0.296829 -1.42982,-0.29683 -1.94444,-0.2192 -1.94444,-0.2192 -0.29598,0.298663 -0.29597,0.298663 -0.29934,0.899378 -0.29934,0.899378 0.008,1.878747 0.008,1.878747 0.2533,1.984375 0.25329,1.984375 0.32545,1.286907 0.32544,1.286907 -0.78534,0.67878 -0.78535,0.678778 0.0727,0.236792 0.0727,0.236794 -0.24291,-0.15013 -0.24292,-0.15013 -0.16827,0.670452 -0.16827,0.670451 -0.25233,-0.155948 -0.25232,-0.155945 -0.93055,0.174572 -0.93055,0.174569 V 58.549 58.932043 l 0.27114,-0.167571 0.27114,-0.167574 -0.0379,0.218104 -0.0379,0.218104 0.0313,0.330729 0.0313,0.330729 h 0.36448 0.36447 l 0.31534,0.379963 0.31534,0.379963 -0.28278,0.528386 -0.28279,0.528389 -0.80979,-0.02302 -0.80979,-0.02302 0.29299,-0.181078 0.29299,-0.181075 -0.37429,-0.310637 -0.3743,-0.310637 -0.2673,0.333992 -0.26731,0.333991 -0.1908,0.621443 -0.19079,0.621443 0.17323,1.155184 0.17323,1.155184 1.2739,0.825457 1.2739,0.825461 0.15521,1.310579 0.15522,1.310582 0.57698,1.02658 0.57697,1.026584 -0.15129,0.484708 -0.15129,0.484712 -0.42521,1.190625 -0.4252,1.190625 -0.54768,0.46302 -0.54768,0.463021 h -0.51926 -0.51926 l 0.0869,0.451419 0.0869,0.451422 0.59451,0.143891 0.59452,0.143893 0.92545,1.303343 0.92545,1.303343 v 1.554067 1.554067 l 0.40367,0.780611 0.40366,0.780611 h 0.35923 0.35922 l 0.19176,-0.595313 0.19177,-0.595312 -0.003,-0.132292 -0.003,-0.132291 0.37471,-0.344118 0.37471,-0.344119 0.15744,0.410265 0.15743,0.410263 h 0.50085 0.50086 v 0.309896 0.309896 l 0.43788,0.483854 0.43788,0.483854 h 0.61114 0.61114 l 0.2739,-0.511773 0.27389,-0.511783 v -0.149686 -0.149685 h -0.48495 -0.48495 l 0.0424,-0.595313 0.0424,-0.595312 0.71165,-0.08415 0.71165,-0.08415 -0.11736,-0.189878 -0.11735,-0.189881 0.4436,-0.04709 0.44359,-0.04709 0.6532,-0.07575 0.65321,-0.07575 0.0913,0.450069 0.0913,0.450073 -0.67837,0.58983 -0.67836,0.58983 v 0.211421 0.21142 l 1.25677,1.125324 1.25677,1.125325 1.25677,1.253463 1.25677,1.25345 v 0.26005 0.26005 z"
       id="path433" /><path
       style="display:inline;fill:#000000;stroke-width:0.264583"
       d="m 151.14788,90.121643 h 0.65254 l 0.39026,-0.93403 0.39027,-0.93404 0.79494,-0.15898 0.79494,-0.15899 0.49302,-0.62677 0.49301,-0.62677 0.49109,0.001 0.49109,10e-4 0.88564,0.53994 0.88564,0.53995 0.9003,-0.6867 0.9003,-0.68682 v -0.647995 -0.647994 h -0.23416 -0.23415 l -0.44553,-0.679961 -0.44552,-0.67996 -0.0234,-0.822714 -0.0234,-0.822714 0.92902,-0.81243 0.92903,-0.812429 0.70836,-0.961861 0.70836,-0.961861 -0.006,-0.757931 -0.006,-0.757931 -0.068,-1.344633 -0.068,-1.344631 -0.81003,-0.922891 -0.81004,-0.922888 -0.43125,0.272024 -0.43125,0.272023 -0.49934,-0.451898 -0.49933,-0.451897 h -0.97136 -0.97135 l -0.52917,-0.529167 -0.52916,-0.529167 v -0.413506 -0.413507 l -0.46303,0.0471 -0.46302,0.0471 -0.33287,-0.03047 -0.33287,-0.03047 -0.41316,-1.032589 -0.41316,-1.032589 -0.90761,-0.82591 -0.90762,-0.82591 v -0.362152 -0.362151 l -0.42038,-0.161313 -0.42038,-0.161317 -0.67363,0.529884 -0.67364,0.529881 h -0.23996 -0.23997 l -0.58425,0.548896 -0.58425,0.548894 -1.34539,-0.165602 -1.34539,-0.165603 -0.31768,0.382781 -0.31768,0.38278 -0.91005,0.170725 -0.91005,0.170725 -0.93261,0.389671 -0.9326,0.389668 v 0.393324 0.393324 h -0.28664 -0.28663 l 0.10946,0.328367 0.10945,0.328366 -0.35199,0.351991 -0.35199,0.351991 v 0.889918 0.889918 l 0.28114,0.739445 0.28113,0.739444 0.18189,0.137676 0.18188,0.137676 0.49916,0.981927 0.49916,0.981927 0.51224,-0.651198 0.51223,-0.651198 h 0.61637 0.61637 l 0.28337,0.812874 0.28337,0.812874 -0.64846,0.64846 -0.64846,0.648459 0.16528,1.205833 0.16527,1.205833 0.65453,0.248852 0.65452,0.248848 -0.16117,0.805871 -0.16118,0.805868 0.81566,0.744982 0.81565,0.744982 -0.28956,0.178956 -0.28955,0.178953 v 0.485246 0.485243 l 0.37192,0.142722 0.37193,0.142721 0.17826,0.811635 0.17826,0.81162 h 0.78123 0.78123 l 0.85139,0.37007 0.8514,0.37007 0.75003,0.82056 0.75003,0.82055 z"
       id="path413" /><path
       style="display:inline;fill:#000000;stroke-width:0.264583"
       d="m 118.58622,97.529985 h 0.37886 v -0.396877 -0.396875 l 0.72761,0.0186 0.7276,0.0186 -0.52917,0.227395 -0.52916,0.22739 0.59531,0.0186 0.59531,0.0186 v -0.37482 -0.374835 l -0.32762,-0.1092 -0.32761,-0.10921 0.29627,-0.65025 0.29628,-0.65026 -0.64441,-0.74916 -0.64441,-0.74917 0.0804,-0.55986 0.0804,-0.55985 0.66146,-0.004 0.66145,-0.004 -0.0367,-0.46303 -0.0367,-0.46302 h 0.26826 0.26826 l -0.16138,-0.8069 -0.16138,-0.8069 0.26059,0.16106 0.2606,0.16106 v -0.58368 -0.58368 l 0.98823,-1.21787 0.98823,-1.21788 0.46698,-0.512909 0.46698,-0.512913 v -0.193053 -0.193056 l 0.15143,-0.39461 0.15142,-0.394613 -0.51984,-0.164992 -0.51985,-0.164994 -0.31125,-0.751427 -0.31125,-0.751427 -0.18699,-1.957618 -0.187,-1.957618 -0.78698,-0.986313 -0.78698,-0.986317 -0.28461,-8e-6 -0.28461,-8e-6 -0.54751,0.595313 -0.5475,0.595312 -0.52288,0.873864 -0.52287,0.873863 0.13424,1.190937 0.13423,1.190934 -1.55737,-0.08042 -1.55737,-0.08043 v -1.5875 -1.5875 l -1.14609,-0.08241 -1.1461,-0.08241 -0.63984,0.419243 -0.63985,0.419246 v 0.650316 0.65032 l -0.7276,0.144864 -0.72761,0.144868 -0.72331,0.232447 -0.72332,0.232449 -1.06009,-0.142189 -1.06009,-0.142187 -0.3994,0.331478 -0.39941,0.331477 v 1.105311 1.105312 l -0.3175,0.3175 -0.3175,0.3175 0.3175,0.3175 0.3175,0.3175 v 1.116129 1.116129 l 0.88113,0.54457 0.88112,0.54456 -0.10968,0.7473 -0.10968,0.7473 0.68376,0.31154 0.68377,0.31155 v 0.28587 0.28587 l 0.27114,-0.16757 0.27113,-0.16758 -0.0654,0.21811 -0.0654,0.2181 0.47199,0.70599 0.47198,0.70599 -0.0824,1.1461 -0.0824,1.14609 -1.52135,0.0793 -1.52136,0.0794 v 0.24527 0.24528 l 0.65953,0.43215 0.65953,0.43214 0.72953,-0.19408 0.72954,-0.19408 -0.33073,-0.12172 -0.33073,-0.12172 v -0.24253 -0.24254 h 0.52917 0.52916 v -0.29289 -0.29289 l 0.43041,0.16516 0.43041,0.16517 0.36334,-0.30155 0.36334,-0.30154 v 0.14579 0.14579 l -0.43532,0.43532 -0.43532,0.43532 -0.22209,-0.35027 -0.22208,-0.35028 -0.004,0.31511 -0.004,0.31512 0.28417,0.17562 0.28417,0.17563 0.63372,-0.59535 0.63372,-0.59535 -0.16656,-0.29226 -0.16655,-0.29227 0.21651,0.19614 0.21651,0.19614 0.35021,-0.29065 0.35021,-0.29065 -0.37205,-0.53118 -0.37205,-0.53118 0.14064,-0.3665 0.14064,-0.3665 h 0.41388 0.41388 l 0.48385,0.43788 0.48385,0.43789 v -0.69217 -0.69217 l -1.18595,-1.45604 -1.18596,-1.45603 0.15593,-0.40635 0.15593,-0.40634 h 0.54203 0.54203 l 0.86885,0.6627 0.86884,0.6627 0.17749,1.18358 0.17749,1.18358 0.76458,1.20562 0.76458,1.20561 v 0.94216 0.94215 l 0.54718,0.76845 0.54718,0.768452 z"
       id="path370" /><path
       style="display:inline;fill:#000000;stroke-width:0.264583"
       d="m 98.724469,100.16204 0.529157,0.002 0.769844,-0.895804 0.76984,-0.895804 0.35464,0.136077 0.35463,0.13609 v -0.269127 -0.26913 l 1.06649,-1.349209 1.06648,-1.34921 0.0221,-0.85736 0.0221,-0.85737 -0.30233,-0.7646 -0.30232,-0.76461 0.47054,-0.53765 0.47054,-0.53764 -0.27403,0.15835 -0.27403,0.15834 -0.0459,-0.44359 -0.0459,-0.4436 -0.15982,-0.79375 -0.15983,-0.79375 0.43025,-0.52916 0.43025,-0.52917 0.11997,0.26458 0.11997,0.26459 0.19414,0.29506 0.19413,0.29507 0.56743,0.17693 0.56744,0.17694 0.4373,-0.4373 0.4373,-0.43731 -0.40942,-0.45241 -0.40942,-0.45245 v -1.01667 -1.016668 l -0.43789,-0.483854 -0.43788,-0.483854 0.41236,-0.463021 0.41237,-0.46302 0.0723,-1.322917 0.0723,-1.322917 -0.20013,-0.926041 -0.20015,-0.926042 -1.12575,-1.289725 -1.12575,-1.289727 -0.9614,0.347649 -0.9614,0.347647 -0.25924,0.74364 -0.25923,0.743641 h -1.161917 -1.161916 l -0.296087,0.649854 -0.296087,0.649851 -1.187072,0.540774 -1.18707,0.540771 h -0.19738 -0.19738 l 0.51359,-0.388461 0.51359,-0.388459 -0.3135,-0.0084 -0.31351,-0.0084 -0.67868,0.258035 -0.67868,0.258035 v 0.525407 0.525409 l 0.49864,0.473327 0.49864,0.473329 0.69199,1.02911 0.69198,1.029107 v 1.038807 1.038803 l -0.27389,0.51177 -0.2739,0.51178 h -0.65214 -0.65215 l -0.004,0.33073 -0.004,0.33073 -0.25649,-0.39688 -0.25648,-0.39687 -0.004,0.27403 -0.004,0.27403 h -0.52917 -0.52917 v -0.19858 -0.19857 l -0.51574,-0.27602 -0.51574,-0.27602 -0.87332,0.48632 -0.87332,0.48631 -0.0866,0.58944 -0.0865,0.58944 0.46023,0.70241 0.46024,0.70241 0.20303,-0.51927 0.20303,-0.51927 0.0468,0.39688 0.0468,0.39687 0.0618,1.90768 0.0618,1.90768 -0.21098,-0.13039 -0.21097,-0.13039 -0.40815,0.78926 -0.40815,0.78926 v 0.5423 0.542315 h 0.25779 0.25779 l 0.39236,0.758737 0.39236,0.758734 2.3936,0.18724 2.39361,0.18725 0.32968,0.327927 0.32969,0.327917 0.529162,0.30554 0.529167,0.305547 z"
       id="path342" /><path
       style="display:inline;fill:#000000;stroke-width:0.264583"
       d="m 187.26953,101.63777 0.56167,-0.71404 0.0341,-0.5724 0.0341,-0.572397 0.70553,0.0475 0.70553,0.0475 0.17072,-0.777287 0.17072,-0.777294 0.57381,-0.29545 0.57381,-0.295447 0.58792,-0.535277 0.58794,-0.535295 0.41941,-1.44274 0.41941,-1.44273 -0.17237,-0.78481 -0.17237,-0.78481 0.4628,-0.5114 0.46281,-0.51139 -0.4142,-0.46302 -0.4142,-0.46302 0.0554,-1.80277 0.0555,-1.80277 -0.61783,-0.909214 -0.61782,-0.909208 h -0.25894 -0.25893 l -0.52161,-0.859896 -0.52162,-0.859896 -1.8324,-0.420455 -1.83241,-0.420454 -0.45838,0.256521 -0.45838,0.256519 -0.75728,-0.447336 -0.75728,-0.447337 -1.21818,0.182679 -1.21819,0.182679 -0.17552,-0.283996 -0.17551,-0.283996 -2.25959,-0.110151 -2.25959,-0.110149 -0.69861,-0.698616 -0.69862,-0.698616 -0.34276,0.0021 -0.34275,0.0021 -1.38906,-1.499817 -1.38906,-1.499817 v -0.729636 -0.729639 l -0.17049,-0.444291 -0.1705,-0.444291 -1.15242,-0.493988 -1.15243,-0.493987 -0.006,-0.34013 -0.006,-0.340133 -0.53079,-1.169966 -0.53078,-1.169966 -0.31007,0.31007 -0.31005,0.310108 h -0.45595 -0.45595 l -0.80863,-0.680421 -0.80864,-0.680421 -0.28076,0.173521 -0.28076,0.173519 0.16143,0.50863 0.16143,0.508627 -0.55899,0.206785 -0.559,0.206788 -0.90355,2.078471 -0.90355,2.078472 0.28227,0.527428 0.28227,0.527429 -0.14316,0.882242 -0.14317,0.882245 -0.92482,1.211191 -0.92481,1.211191 -0.68054,0.535313 -0.68054,0.535313 v 0.754245 0.754248 l 0.67096,0.797393 0.67097,0.797394 0.7181,0.0828 0.7181,0.0828 0.0845,0.595312 0.0846,0.59531 h 0.62142 0.62142 l 0.41851,0.1606 0.41852,0.1606 -0.008,1.62534 -0.008,1.62534 -0.38846,0.51359 -0.38846,0.51359 v 0.29118 0.29118 l 0.85989,0.40715 0.8599,0.40716 0.79375,0.40955 0.79375,0.40956 1.85208,0.59552 1.85209,0.59551 0.43654,0.54607 0.43655,0.54607 1.08496,-0.35807 1.08496,-0.35807 0.67356,0.30689 0.67356,0.3069 0.45077,0.79425 0.45076,0.794255 0.39688,-0.1621 0.39687,-0.16209 0.37403,-0.0368 0.37402,-0.0367 0.88109,1.190614 0.88108,1.190624 0.58456,0.727597 0.58457,0.727607 h 0.2679 0.26791 l 1.23501,-1.216447 1.23501,-1.216431 0.51895,0.277727 0.51895,0.27774 0.71599,0.938704 0.71599,0.938707 0.31726,0.002 0.31727,0.002 0.46774,0.82175 0.46775,0.82175 z"
       id="path333" /><path
       style="display:inline;fill:#000000;stroke-width:0.264583"
       d="m 182.44364,118.43205 h 0.78396 l 0.16352,-0.26458 0.16352,-0.26459 h -0.27515 -0.27516 l -0.16121,-0.64231 -0.16121,-0.64231 -0.373,-0.14314 -0.37299,-0.14313 v -1.10361 -1.10362 l -0.43722,-0.3197 -0.43721,-0.3197 -0.0258,-1.13787 -0.0258,-1.13787 0.32693,-0.11373 0.32694,-0.11374 0.28522,0.6161 0.28523,0.61609 0.84305,0.39688 0.84305,0.39687 0.53138,1.5015 0.53138,1.50151 0.46081,-0.25788 0.46079,-0.25788 v -0.50923 -0.50922 l 0.7743,-0.40041 0.7743,-0.40041 0.18514,-1.52461 0.18513,-1.52462 0.0862,-0.47576 0.0862,-0.47576 -0.51643,-0.51643 -0.51643,-0.51642 v -0.2802 -0.2802 l -0.30547,0.18879 -0.30546,0.18879 0.18698,-0.30254 0.18697,-0.30253 -0.41317,-0.87069 -0.41316,-0.87069 -1.05585,-1.27772 -1.05584,-1.27771 v -0.68175 -0.68174 l 0.5593,-0.59535 0.5593,-0.59535 -0.53074,-0.74462 -0.53075,-0.744617 -0.50855,-0.459517 -0.50855,-0.459527 -1.17365,1.181814 -1.17365,1.181807 -0.43224,0.005 -0.43223,0.005 -0.91492,-1.012697 -0.91491,-1.012697 -0.49584,-0.839374 -0.49583,-0.839384 h -0.35722 -0.35723 l -0.51213,0.274087 -0.51213,0.27408 -0.64688,1.247261 -0.64688,1.247264 -0.80555,1.19063 -0.80556,1.19062 0.26217,0.0882 0.26217,0.0882 v 0.22408 0.22407 l 0.83111,1.8044 0.83111,1.8044 0.29337,0.19438 0.29337,0.19439 -0.18581,0.004 -0.1858,0.004 0.58268,0.61503 0.58268,0.61503 0.42086,0.15424 0.42087,0.15424 0.35863,-0.22164 0.35863,-0.22164 0.45362,0.24277 0.45363,0.24278 0.55282,0.89447 0.55281,0.89447 v 2.19554 2.19553 l 0.40919,0.41907 0.40919,0.41907 0.77561,1.25677 0.77561,1.25677 z"
       id="path210" /><path
       style="display:inline;fill:#000000;stroke-width:0.264583"
       d="m 141.35424,118.96122 h 1.65051 l 1.58347,-1.05177 1.58347,-1.05178 0.90966,-0.43378 0.90966,-0.43379 0.48435,-0.82955 0.48435,-0.82954 0.47508,-0.34172 0.47509,-0.34172 0.79947,-1.63872 0.79948,-1.63871 v -0.82436 -0.82435 l -0.27775,-0.79676 -0.27775,-0.79677 -0.62534,-0.28492 -0.62534,-0.28492 -0.16878,-0.53176 -0.16877,-0.53177 -0.51286,-0.16277 -0.51285,-0.16277 -0.59082,0.41382 -0.59081,0.41382 h -0.73488 -0.73488 v -0.21219 -0.2122 l -1.30074,-1.42975 -1.30073,-1.42976 -0.15447,-0.77237 -0.15448,-0.77237 v -0.61056 -0.610547 l 0.5943,-0.18863 0.5943,-0.18862 0.27951,-0.382257 0.27953,-0.382267 0.32616,0.392997 0.32616,0.392997 0.24723,1.519077 0.24724,1.51908 0.0741,0.0516 0.0741,0.0516 0.60975,0.41031 0.60976,0.41032 0.92489,-0.20859 0.92488,-0.20861 0.31495,0.50431 0.31493,0.5043 h 0.56984 0.56983 l 0.75558,-0.73561 0.75559,-0.73561 0.57401,-0.69711 0.57401,-0.69711 -0.53209,-0.99277 -0.53209,-0.992768 0.15331,-0.766517 0.1533,-0.766514 -0.77113,-1.504342 -0.77113,-1.50435 -0.18326,-2.05562 -0.18326,-2.05563 -0.96063,-0.96154 -0.96062,-0.96154 -0.86213,-0.36075 -0.86212,-0.36076 -0.65923,0.16546 -0.65923,0.16546 v 0.48158 0.48159 l -0.38138,0.38137 -0.38138,0.38138 -1.37346,-0.30933 -1.37346,-0.30933 -0.71831,-0.71831 -0.71831,-0.71831 -0.63571,0.47726 -0.6357,0.47726 -0.74005,0.32019 -0.74006,0.3202 h -0.88119 -0.8812 l -0.30479,-0.36725 -0.30479,-0.36725 -0.98438,0.22864 -0.98437,0.22865 -0.80098,0.006 -0.80098,0.006 -0.70891,-0.80789 -0.70891,-0.80789 -1.00365,0.1767 -1.00366,0.17669 -1.16619,0.50248 -1.1662,0.50248 -0.81014,0.14273 -0.81014,0.14272 -0.11671,0.11672 -0.11672,0.11671 -0.29484,-0.5914 -0.29485,-0.5914 -0.40916,-0.0788 -0.40916,-0.0788 -0.41223,0.87021 -0.41223,0.8702 -0.39688,1.20502 -0.39689,1.20501 0.36503,0.4992 0.36502,0.4992 v 0.98289 0.9829 l 1.23776,0.42174 1.23776,0.42175 h 1.40807 1.40808 v 0.26458 0.26458 h 0.81748 0.81749 l 0.48886,-0.59531 0.48885,-0.59531 0.4796,0.29478 0.47959,0.29479 -0.0352,2.968013 -0.0352,2.968018 -0.86571,0.89317 -0.86572,0.8932 0.9671,1.1802 0.96709,1.18021 v 0.44147 0.44148 l 0.7276,0.27747 0.7276,0.27747 0.59172,0.82403 0.5917,0.82402 0.57241,1.19063 0.57241,1.19062 0.635,0.836 0.635,0.83601 0.93571,0.44402 0.93571,0.44402 -0.15276,0.60865 -0.15276,0.60864 0.56994,1.41862 0.56993,1.41863 0.4043,0.33073 0.40429,0.33072 z"
       id="path193" /><path
       style="display:inline;fill:#000000;stroke-width:0.264583"
       d="m 164.60733,121.07788 h 0.31031 l 0.35674,-0.7276 0.35673,-0.7276 0.0652,-0.57474 0.0652,-0.57474 0.4143,-0.80119 0.41431,-0.80118 v -1.10909 -1.1091 l 0.51846,-1.74831 0.51847,-1.74832 0.0664,-1.01619 0.0664,-1.0162 0.48823,-0.34197 0.48823,-0.34196 0.0993,-0.75851 0.0993,-0.7585 0.0182,-0.57642 0.0182,-0.57641 0.41578,-0.41578 0.41577,-0.41577 h 0.79268 0.79268 l -0.20045,-0.59531 -0.20046,-0.59531 -0.0158,-0.66146 -0.0158,-0.66146 h 0.39687 0.39688 l 0.88206,-1.19063 0.88207,-1.19062 0.65896,-1.286781 0.65895,-1.286774 -0.3127,-0.754942 -0.31271,-0.75494 -0.52684,-0.16721 -0.52684,-0.16721 -1.19195,0.17874 -1.19195,0.17875 -0.56786,-0.50539 -0.56786,-0.50539 -1.32291,-0.50066 -1.32292,-0.50066 -0.64649,-0.0607 -0.6465,-0.0607 -0.70689,-0.52263 -0.70688,-0.52263 -0.96173,-0.40183 -0.96172,-0.40183 0.002,-0.21194 0.002,-0.21194 0.52568,-0.79375 0.52568,-0.79375 0.002,-0.84267 0.002,-0.84267 -0.25804,-0.67868 -0.25845,-0.67869 h -0.8003 -0.80029 v -0.53747 -0.537467 l -0.44716,-0.171588 -0.44715,-0.17159 -0.12235,0.378331 -0.12234,0.37833 -0.90455,0.859894 -0.90455,0.8599 h -0.40245 -0.40245 l -0.67272,-0.52917 -0.67273,-0.52917 h -0.34084 -0.34084 l -0.79375,0.79375 -0.79375,0.79375 h -0.56302 -0.56302 l -0.37842,0.90569 -0.37842,0.90569 -0.46654,0.0898 -0.46655,0.0898 0.0772,1.98103 0.0772,1.98103 0.78128,1.52522 0.78127,1.525222 v 1.148114 1.148124 l 0.64116,0.633947 0.64116,0.63394 0.81405,0.61544 0.81405,0.61544 v 0.28977 0.28977 l 0.43788,0.48385 0.43788,0.48386 h 0.519 0.51901 l -0.12456,0.65158 -0.12456,0.65158 0.62288,0.58516 0.62288,0.58517 v -0.26081 -0.26082 l 0.56003,-0.60111 0.56002,-0.60112 0.27192,0.27192 0.27193,0.27192 -0.28393,0.74233 -0.28393,0.74232 -0.1111,2.04576 -0.1111,2.04575 0.47073,0.42601 0.47074,0.426 -0.023,0.80858 -0.023,0.80857 0.87942,0.71775 0.87942,0.71775 -0.28999,0.10296 -0.29,0.10296 0.64455,1.83712 0.64454,1.83712 0.5272,0.56118 0.52721,0.56118 v 0.53416 0.53417 l 0.17639,0.17638 0.17639,0.17639 z"
       id="path180" /><path
       style="fill:#000000;stroke-width:0.264583"
       d="m 57.101666,76.942817 h 0.29691 l 0.138186,-3.241145 0.138187,-3.241146 -0.268489,-0.33306 -0.268491,-0.33306 -0.03182,-1.715371 -0.03181,-1.71537 -0.581313,-0.0021 -0.581311,-0.0021 -1.244031,-0.661458 -1.244034,-0.661458 h -0.31646 -0.31646 l -0.504029,-0.559531 -0.504028,-0.559532 -0.591355,-0.226166 -0.591354,-0.226163 0.141261,-1.264825 0.141261,-1.264825 0.10101,-0.668912 0.101013,-0.668911 -1.035815,-0.323223 -1.035812,-0.323276 h -1.723959 -1.723958 v 2.190086 2.190088 l -0.358326,0.521891 -0.358325,0.521893 -0.178959,4.299479 -0.178959,4.299479 h 2.922125 2.922124 l 0.503267,0.314296 0.503266,0.314296 1.114431,-0.367797 1.114427,-0.367795 0.627674,0.729713 0.627671,0.729713 v 0.520959 0.520962 l 0.653156,0.24833 0.653155,0.24833 0.336529,0.538872 0.336532,0.538871 z"
       id="path581" /><path
       style="fill:#000000;stroke-width:0.264583"
       d="m 55.522359,98.438474 h 0.531884 l 0.64943,-0.64943 0.649433,-0.64943 v -0.6249 -0.62489 l -0.276939,-1.4981 -0.276942,-1.49811 0.283276,-0.52931 0.283276,-0.5293 1.525678,-1.03607 1.525677,-1.03607 0.382728,-0.46115 0.382725,-0.46116 0.0035,-1.2568 0.0035,-1.2568 1.083895,-1.28643 1.083892,-1.28642 0.405595,-0.79375 0.405593,-0.79375 0.178353,-0.82881 0.178353,-0.82881 0.779555,-0.69459 0.779556,-0.69459 -0.004,-1.254724 -0.004,-1.254731 -0.232132,-0.36654 -0.232132,-0.366538 -0.644499,0.161758 -0.644495,0.161759 -0.306692,0.673113 -0.306692,0.673116 -0.681934,0.25927 -0.681948,0.259267 h -0.740956 -0.740844 l -0.713385,-0.561146 -0.713386,-0.561149 -0.975942,0.156228 -0.975942,0.156226 -0.455628,0.557398 -0.455631,0.557393 -0.312854,-0.19335 -0.312857,-0.193358 0.169569,0.274368 0.169566,0.27436 -0.544766,0.69256 -0.544764,0.69256 H 54.86283 54.527629 l -0.307052,-0.67391 -0.307054,-0.67391 v -0.41682 -0.416823 l -0.424312,0.352153 -0.424312,0.35214 0.130643,0.97402 0.130643,0.97403 -0.607145,0.32493 -0.607142,0.32494 -0.315163,-0.19479 -0.315164,-0.19478 0.182986,-1.22023 0.182986,-1.22024 0.503825,-0.707555 0.503822,-0.707554 v -0.391318 -0.391319 l -0.595313,-0.159536 -0.595312,-0.159538 -0.735907,-0.0036 -0.735909,-0.0036 -0.144093,-0.375499 -0.144092,-0.3755 0.440275,-0.671946 0.440275,-0.671946 -0.663827,-0.166661 -0.663826,-0.166608 -0.483949,0.09276 -0.483947,0.09276 -0.132292,5.24422 -0.132292,5.24422 -0.529166,0.39223 -0.529167,0.39223 -1.254051,-0.0834 -1.254048,-0.0834 -0.135014,0.35237 -0.135012,0.35239 v 0.63303 0.63302 l -0.742238,0.38383 -0.742241,0.38383 -0.316092,0.69375 -0.316095,0.69375 v 0.76209 0.7621 l -0.661459,0.5203 -0.661458,0.52031 v 0.83031 0.83032 l 0.406966,0.974 0.406966,0.97401 0.411703,0.45492 0.411702,0.45493 1.346829,-0.82871 1.346833,-0.82872 1.75002,-0.0417 1.75002,-0.0418 0.549429,-0.29405 0.549431,-0.29404 1.097386,0.43106 1.097383,0.43107 0.963615,-0.29575 0.963613,-0.29574 0.220927,0.13654 0.220927,0.13654 v 1.72157 1.72157 l 0.273891,0.51178 0.273894,0.51177 z"
       id="path390" /><path
       style="fill:#000000;stroke-width:0.264583"
       d="m 75.238645,56.416625 0.315724,0.0064 0.41188,-0.588039 0.411877,-0.588037 V 54.213839 53.1807 l 0.837276,-1.70075 0.837277,-1.70075 0.892302,-0.372828 0.892302,-0.372828 1.180838,-0.848013 1.180838,-0.848025 v -0.358571 -0.358572 l 0.595313,-0.22767 0.595312,-0.22767 0.507659,-0.563542 0.507656,-0.563542 1.013698,-0.162097 1.013695,-0.162096 v -0.215153 -0.215152 l -0.264583,-0.163522 -0.264583,-0.163521 v -0.272225 -0.272225 l 1.058333,0.178805 1.058333,0.178804 -0.0059,-0.353986 -0.0059,-0.353985 -0.5174,-0.661458 -0.517401,-0.661459 -0.0059,-0.444619 -0.0059,-0.444618 0.595312,-0.08455 0.595313,-0.08455 0.08203,-0.576099 0.08203,-0.576098 0.374023,-0.310411 0.374023,-0.310412 -0.359331,-0.70099 -0.359333,-0.70099 0.0024,-1.832502 0.0024,-1.8325 0.885375,-1.384065 0.885375,-1.384065 0.338323,-0.126067 0.338322,-0.126067 -0.49399,-0.203288 -0.49399,-0.203287 -2.078625,0.70165 -2.078395,0.70165 h -0.66853 -0.668528 v -0.493264 -0.493264 l 0.923372,-0.366632 0.923372,-0.366632 -0.211442,-0.330824 -0.211442,-0.330825 -2.08961,-0.264937 -2.089608,-0.264936 -0.46441,0.147398 -0.46441,0.147398 -0.605308,-0.327615 -0.605306,-0.327615 -0.738584,0.05341 -0.738585,0.05341 -1.811917,1.317877 -1.811916,1.317877 h -0.256847 -0.25685 l -1.006366,0.682939 -1.006367,0.682939 -0.586674,-0.313979 -0.586674,-0.313979 -0.807317,0.177317 -0.807321,0.177317 -1.153861,1.015669 -1.153859,1.015669 -0.64989,0.0917 -0.649888,0.0917 -0.292899,0.906207 -0.292902,0.906208 -0.539922,0.19973 -0.539922,0.19973 -0.189227,0.306178 -0.18923,0.306179 0.294446,0.294446 0.294447,0.294446 v 0.218215 0.218216 l -0.661458,0.251486 -0.661458,0.251486 v 0.421415 0.421415 l 2.360583,-0.0681 2.360583,-0.0681 0.750298,0.777709 0.750295,0.777709 1.11902,0.926041 1.119019,0.926042 0.132696,0.344471 0.132694,0.344471 -0.261551,-0.161648 -0.261554,-0.161649 v 0.135457 0.135457 l 0.303482,0.666073 0.303483,0.666072 -0.345612,0.416437 -0.345612,0.416437 0.571296,0.400152 0.571296,0.400151 v 0.407195 0.407194 l -0.424357,0.718381 -0.42436,0.718381 0.42436,1.249918 0.424357,1.249918 -0.0073,1.115232 -0.0073,1.115233 1.528691,1.382644 1.528694,1.382641 z"
       id="path667" /><path
       style="fill:#000000;stroke-width:0.264583"
       d="m 96.705351,58.625009 0.31512,0.01056 0.18879,-0.305464 0.18878,-0.305464 -0.37161,0.223961 -0.37161,0.223962 0.36313,-0.447664 0.36313,-0.447678 h 0.1155 0.11551 l -0.16352,0.264584 -0.16352,0.264583 h 0.2885 0.28851 l 0.17373,-0.463021 0.17374,-0.463021 0.39238,-0.294124 0.39238,-0.294124 0.44371,0.116033 0.443722,0.116033 0.950147,-0.396999 0.95017,-0.397002 0.67754,-1.073296 0.67755,-1.073298 v -0.475551 -0.475554 l -0.41187,-0.588038 -0.41189,-0.588038 h -0.24128 -0.24127 l 0.12787,0.463021 0.12787,0.463021 -0.40152,-0.859896 -0.40152,-0.859896 h -0.14892 -0.14894 l -0.46767,0.250292 -0.46768,0.250293 v -0.39397 -0.39397 l 0.40409,0.155064 0.40409,0.155063 -0.48919,-0.540553 -0.489197,-0.540552 h -0.455762 -0.45576 l -0.29469,0.355073 -0.29468,0.355073 0.19614,0.216513 0.19614,0.216513 -0.30853,-0.176604 -0.30852,-0.176604 -0.74981,0.301598 -0.74981,0.301598 -0.85989,-0.04341 -0.8599,-0.04341 v 0.348859 0.348858 l -0.52916,0.03986 -0.52917,0.03986 v -0.24814 -0.248139 h -0.42064 -0.42064 l -0.76776,0.724644 -0.76776,0.724646 0.13604,0.428624 0.13604,0.428625 -0.40285,0.334336 -0.40285,0.334335 v 0.26303 0.263031 l 0.65345,-0.124915 0.65346,-0.124916 -0.13991,0.226365 -0.13989,0.226361 h 0.28524 0.28523 l -0.15959,0.635855 -0.15959,0.635857 0.48308,0.270341 0.48307,0.27034 -0.21062,0.210622 -0.21062,0.210619 -0.23581,-0.38155 -0.23581,-0.381551 -0.17317,0.173173 -0.17317,0.173172 0.1898,0.307102 0.18979,0.307102 0.63045,-0.120518 0.63045,-0.120518 v 0.219591 0.219589 l 0.33793,-0.129678 0.33793,-0.129677 1.05113,0.524314 1.05113,0.524314 z"
       id="path654" /><path
       style="display:inline;fill:#000000;stroke-width:0.264583"
       d="m 122.58227,114.06702 h 0.25772 l 0.44339,-0.6767 0.44339,-0.6767 0.96497,-0.49229 0.96497,-0.49229 2.36805,0.0157 2.36805,0.0157 1.15914,-0.19877 1.15914,-0.19878 -0.25902,-0.16932 -0.259,-0.16933 -0.66714,-1.32291 -0.66714,-1.32292 -0.29913,0.0661 -0.29914,0.0661 v -1.65635 -1.65635 l -0.6458,-0.69646 -0.6458,-0.69646 0.0505,-0.0978 0.0505,-0.0977 -0.26593,0.29584 -0.26592,0.29584 -1.057,-0.10229 -1.05699,-0.10229 -0.79375,-0.25522 -0.79375,-0.25522 -0.13229,0.0474 -0.13229,0.0474 -0.77352,-0.71688 -0.77352,-0.71687 -0.28481,0.10596 -0.28482,0.10597 0.0661,0.29765 0.0661,0.29766 h -0.26458 -0.26458 l -0.19844,-0.0156 -0.19844,-0.0156 -0.14314,0.61093 -0.14313,0.61093 -0.59387,0.0858 -0.59386,0.0858 -1.14639,-0.67183 -1.1464,-0.67183 -0.13151,0.13151 -0.13151,0.13152 -0.32113,-0.77528 -0.32113,-0.77528 -0.74563,-0.10943 -0.74563,-0.10943 -0.47223,0.3453 -0.47223,0.34531 -0.70636,1.20945 -0.70636,1.20945 0.23618,1.29942 0.23617,1.29942 0.3634,0.86632 0.36339,0.86633 1.07066,1.1573 1.07065,1.1573 0.69589,-0.13303 0.69588,-0.13303 1.23269,0.67612 1.23269,0.67612 0.99294,0.8793 0.99295,0.87928 z"
       id="path294" /><path
       style="display:inline;fill:#000000;stroke-width:0.264583"
       d="m 114.05479,130.34466 0.99219,-0.18541 0.35754,-0.29555 0.35754,-0.29556 1.02366,-0.0257 1.02366,-0.0257 0.20206,-0.20206 0.20205,-0.20206 0.0985,-1.95145 0.0985,-1.95146 1.95622,-1.49835 1.95622,-1.49832 v -1.52708 -1.52708 l 0.39688,-0.32938 0.39687,-0.32937 v -1.60527 -1.60527 l -1.38906,-1.2945 -1.38906,-1.29451 -1.24798,-0.6397 -1.24797,-0.63971 h -0.74635 -0.74635 l -1.22255,-1.25677 -1.22255,-1.25677 -0.39823,-1.19851 -0.39823,-1.19852 -0.18361,-0.97873 -0.18361,-0.97874 0.72625,-1.26233 0.72625,-1.26234 0.8676,-0.83852 0.8676,-0.83852 v -1.204144 -1.204134 l -0.90516,-0.169807 -0.90516,-0.16981 -0.67235,0.440537 -0.67235,0.440537 -0.58326,-0.198707 -0.58325,-0.19872 -0.17307,0.044 -0.17306,0.044 -0.32236,-0.388407 -0.32236,-0.38842 h -0.2478 -0.2478 l 0.14955,0.24198 0.14956,0.24199 -0.33238,0.115907 -0.33238,0.11592 -0.33074,-0.12163 -0.33073,-0.121617 v -0.36857 -0.368557 h -0.91042 -0.91044 l -0.15638,0.253017 -0.15638,0.25303 -0.36811,-0.14125 -0.36811,-0.14126 -0.29418,0.549677 -0.2942,0.549687 h -0.32915 -0.32916 l -0.3814,-0.529157 -0.38142,-0.529167 h -0.20686 -0.20686 l -0.96246,1.065324 -0.96247,1.065314 -0.13577,-0.135777 -0.13578,-0.13577 -0.86248,0.533037 -0.862497,0.533037 -1.101429,-0.0735 -1.10144,-0.0735 -0.51167,1.32292 -0.51167,1.32292 0.0331,0.39687 0.0331,0.39688 -0.0305,0.61093 -0.0305,0.61092 -0.26459,-0.16352 -0.26458,-0.16352 v 0.3243 0.32429 l -0.16708,-0.16708 -0.16708,-0.16708 -0.52075,0.2787 -0.52074,0.27869 0.12197,0.63804 0.12197,0.63804 h -0.21728 -0.21727 l -0.32533,1.08587 -0.32534,1.08588 -0.34522,0.13247 -0.34523,0.13248 0.14452,0.23383 0.14451,0.23382 -0.41062,-0.15756 -0.41061,-0.15757 v 0.52709 0.52709 l 0.44302,1.37174 0.44303,1.37175 -0.43606,0.73818 -0.43605,0.73818 0.16942,0.16941 0.16941,0.16942 -0.24253,0.002 -0.24253,0.002 -0.065,1.55385 -0.065,1.55384 0.39571,0.32841 0.39571,0.32842 -0.004,0.29833 -0.004,0.29854 -0.25648,-0.39688 -0.25648,-0.39687 -0.004,0.31183 -0.004,0.31183 0.33072,0.34998 0.33073,0.34998 0.98207,1.22245 0.98206,1.22244 -0.16626,0.16626 -0.16627,0.16627 h 0.3243 0.32429 l -0.17071,0.27622 -0.17071,0.27622 0.42578,0.64982 0.42578,0.64982 h 0.25917 0.25917 l 0.93224,1.03188 0.93224,1.03187 h 0.91842 0.918416 l -0.17244,-0.279 -0.17243,-0.27901 0.31705,0.19595 0.31707,0.19595 0.36837,-0.30572 0.36837,-0.30572 0.55155,0.29518 0.55155,0.29518 0.21092,-0.13036 0.21092,-0.13036 0.35368,0.4907 0.35366,0.49069 0.62058,-0.28275 0.62056,-0.28275 v -0.23773 -0.23773 l 0.26458,0.16352 0.26459,0.16352 0.32101,-0.19839 0.32103,-0.1984 1.42401,-0.0248 1.424,-0.0248 0.49913,0.4329 0.49914,0.43289 -0.13387,0.13387 -0.13388,0.13388 0.45406,0.36843 0.45406,0.36843 -0.23387,-0.39687 -0.23387,-0.39688 0.44766,0.36313 0.44767,0.36314 v -0.19709 -0.19709 l 0.39351,0.32659 0.39351,0.32658 0.39835,-0.15286 0.39835,-0.15287 0.53107,0.57003 0.53106,0.57003 v 0.47927 0.47928 h -0.26458 -0.26459 v 0.42632 0.42632 z"
       id="path148" /><path
       style="display:inline;fill:#000000;stroke-width:0.264583"
       d="m 127.2531,142.10405 0.29987,0.009 0.13583,-0.51943 0.13584,-0.51944 -0.36956,-0.30671 -0.36956,-0.30672 v -0.75911 -0.75911 l 0.47763,-0.29828 0.47763,-0.29829 -0.11295,-1.56151 -0.11295,-1.5615 0.65128,-0.98673 0.65128,-0.98672 0.48015,-0.79375 0.48015,-0.79375 0.99396,-1.19931 0.99396,-1.19931 -0.25426,-0.45433 -0.25426,-0.45434 h -1.88769 -1.88769 l -1.14187,-0.55277 -1.14187,-0.55277 v -0.72914 -0.72914 l -0.53038,-0.47998 -0.53038,-0.47999 -0.70665,-1.3956 -0.70666,-1.3956 -0.43308,0.31323 -0.43308,0.31322 -1.63717,1.2958 -1.63718,1.2958 -0.006,0.95316 -0.006,0.95316 -0.24373,1.05124 -0.24373,1.05126 -0.46199,0.33781 -0.46199,0.33781 h -0.71293 -0.71294 l -0.75785,0.39525 -0.75785,0.39524 -0.57367,0.002 -0.57367,0.002 -0.41852,0.1606 -0.41852,0.16068 v 0.73544 0.73543 l 0.96398,1.48522 0.96398,1.48521 h 0.72557 0.72557 l 0.75785,0.39525 0.75785,0.39524 0.42055,0.002 0.42055,0.002 0.30309,0.66522 0.3031,0.66521 0.99691,-0.15941 0.99691,-0.15941 0.72684,0.57173 0.72684,0.57182 v 1.03913 1.03913 h 0.50086 0.50086 l 0.1539,0.40107 0.15391,0.40107 1.00567,-0.16081 1.00568,-0.16082 0.65466,0.54469 0.65467,0.54469 z"
       id="path115" /><path
       style="display:inline;fill:#000000;stroke-width:0.264583"
       d="m 131.62349,145.35363 0.22124,-0.22123 0.1715,-1.64084 0.1715,-1.64085 0.35201,-0.29214 0.35202,-0.29214 0.86719,-0.0398 0.8672,-0.0398 0.41263,-0.52916 0.41265,-0.52917 0.0731,-0.66146 0.0731,-0.66146 -0.0354,-0.52916 -0.0354,-0.52917 -0.0339,-0.85467 -0.0339,-0.85466 0.61616,-0.5344 0.61617,-0.53439 h -0.12742 -0.12743 l 1.11783,-1.16663 1.11783,-1.16663 0.56402,-0.30186 0.56402,-0.30185 -0.15937,-0.25787 -0.15937,-0.25786 0.25821,0.0727 0.25821,0.0727 1.21667,-1.31715 1.21666,-1.31715 v -0.29549 -0.29548 l 0.5385,-0.48734 0.5385,-0.48733 -0.13859,-0.36117 -0.1386,-0.36116 0.21909,0.1354 0.21908,0.1354 0.0618,-0.98156 0.0617,-0.98155 0.0248,-0.33073 0.0248,-0.33073 h 0.19844 0.19843 l 0.1519,0.33073 0.1519,0.33073 -0.14768,-0.59531 -0.14768,-0.59531 h 0.24934 0.24934 l 0.1672,-0.83601 0.16721,-0.83601 -0.12774,-0.12774 -0.12773,-0.12773 -0.42344,0.35142 -0.42343,0.35142 -0.19585,-0.31689 -0.19584,-0.31688 -0.90847,0.29105 -0.90847,0.29105 -0.39687,0.15471 -0.39688,0.15471 -0.81462,0.0876 -0.81463,0.0876 -0.37307,-0.69709 -0.37307,-0.69708 0.0751,-0.57306 0.0751,-0.57305 -1.0547,-0.84758 -1.0547,-0.84758 h -0.24967 -0.24967 l -0.4273,-0.65215 -0.42731,-0.65215 0.004,-0.20774 0.004,-0.20775 0.25648,0.39688 0.25648,0.39687 0.004,-0.61093 0.004,-0.61092 -0.26458,0.16352 -0.26458,0.16352 v -0.41246 -0.41249 h -0.26156 -0.26156 l -0.53219,-0.45568 -0.53218,-0.45567 v -0.33808 -0.33807 h 0.26459 0.26458 v -0.71313 -0.71312 l -0.65974,-0.68863 -0.65975,-0.68862 -2.05223,0.20892 -2.05224,0.20892 -1.34953,-0.15563 -1.34952,-0.15564 -1.07286,0.54733 -1.07286,0.54734 -0.54062,0.68728 -0.54061,0.68728 0.25102,0.66024 0.25102,0.66024 v 1.55466 1.55466 l -0.26458,0.16352 -0.26458,0.16352 v 1.14296 1.14295 l 0.92354,1.53371 0.92355,1.5337 0.53166,0.56592 0.53166,0.56593 v 0.707 0.707 l 0.95836,0.40043 0.95835,0.40043 1.09217,0.003 1.09217,0.003 1.01534,0.16775 1.01535,0.16776 0.27452,0.60251 0.27452,0.60251 -1.05974,1.27734 -1.05973,1.27734 -1.09003,1.74839 -1.09003,1.74838 v 1.07559 1.07559 l 0.66146,0.78609 0.66146,0.7861 v 0.36118 0.36119 l 0.50441,0.31501 0.5044,0.315 0.28458,1.32692 0.28457,1.32691 -0.16046,0.80232 -0.16047,0.80231 0.33923,0.40875 0.33923,0.40874 z"
       id="path102" /><path
       style="display:inline;fill:#000000;stroke-width:0.264583"
       d="m 120.93074,163.13662 0.3275,-0.1026 1.33535,-0.17714 1.33534,-0.17714 0.65477,-0.51505 0.65478,-0.51504 -0.17569,-0.28428 -0.1757,-0.28428 0.32307,0.19967 0.32307,0.19967 0.35581,-0.4866 0.35581,-0.4866 -0.1285,-0.20791 -0.1285,-0.20791 0.21811,0.0444 0.2181,0.0444 0.83558,-0.31984 0.83559,-0.31985 0.14636,-0.58317 0.14637,-0.58317 0.55737,-0.59827 0.55738,-0.59827 0.14753,-0.90915 0.14754,-0.90915 0.63667,-0.41717 0.63668,-0.41716 -0.1635,-0.26456 -0.1635,-0.26455 0.25745,-0.31913 0.25744,-0.31914 0.18143,-1.10058 0.18142,-1.10058 -0.48223,-0.28774 -0.48224,-0.28773 1.4552,-1.30254 1.45521,-1.30253 0.68054,-0.1374 0.68054,-0.13739 0.84082,-0.86 0.84081,-0.86001 v -1.57272 -1.57272 l -0.30646,-1.02289 -0.30647,-1.02288 h -0.3633 -0.36329 l -0.15306,0.39886 -0.15306,0.39887 -0.69853,-0.0504 -0.69854,-0.0504 -0.59531,0.32227 -0.59531,0.32226 v 1.39533 1.39533 l -0.35168,0.48095 -0.35167,0.48094 -0.55645,-0.2978 -0.55645,-0.2978 -0.16487,-0.51946 -0.16487,-0.51945 0.2545,-0.47553 0.2545,-0.47553 -0.32797,-1.29166 -0.32796,-1.29165 -0.50719,-0.37177 -0.50718,-0.37176 -10e-4,-0.42274 -0.001,-0.42275 -0.45671,-0.28808 -0.45671,-0.28809 -0.46079,0.46079 -0.46079,0.46079 0.48863,0.90735 0.48864,0.90734 -0.17392,0.69293 -0.17391,0.69294 -0.5865,-0.17404 -0.58654,-0.17404 -0.29376,-0.37016 -0.29375,-0.37016 h -1.20616 -1.20616 l -0.81352,-0.46302 -0.81352,-0.46302 -0.002,-0.94607 -0.002,-0.94607 -0.66686,-0.62648 -0.66687,-0.62649 -0.94044,0.34007 -0.94045,0.34007 -0.0603,-0.0904 -0.0603,-0.0904 -0.45519,-0.7276 -0.45518,-0.7276 h -0.4642 -0.4642 l -0.59081,-0.41383 -0.59081,-0.41382 -0.49606,0.15744 -0.49605,0.15744 0.3397,1.11628 0.33971,1.11628 0.35756,-0.0882 0.35756,-0.0882 -0.18909,0.18909 -0.1891,0.1891 0.37183,0.53086 0.37183,0.53087 -0.53329,0.43182 -0.53328,0.43184 0.54899,0.69792 0.54899,0.69794 v 0.24287 0.24288 l -0.66163,0.62141 -0.66146,0.6214 v 0.74763 0.74763 h -0.29289 -0.29289 l 0.15757,0.41062 0.15757,0.41062 -0.26156,-0.16165 -0.26155,-0.16165 v 1.08326 1.08325 l 0.42582,0.64988 0.42581,0.64988 0.27652,-0.1709 0.27653,-0.1709 -0.18283,0.29581 -0.18282,0.29581 0.58779,0.58779 0.58779,0.58779 -0.0401,1.73697 -0.0401,1.73696 -0.008,0.87503 -0.008,0.87503 0.40711,0.78727 0.40711,0.78727 0.2942,-0.18183 0.2942,-0.18182 -0.18541,0.3 -0.18541,0.29999 0.31643,0.60078 0.31643,0.60078 0.26601,0.17327 0.266,0.17327 0.0892,0.75277 0.0892,0.75278 -0.29181,0.56648 -0.2918,0.56648 0.27001,0.48249 0.27001,0.48248 0.88375,0.31995 0.88375,0.31995 z"
       id="path48" /><path
       style="display:inline;fill:#000000;stroke-width:0.264583"
       d="m 174.87388,170.10783 1.00101,0.008 0.92604,-0.92604 0.92604,-0.92604 h 0.93306 0.93306 l 1.37323,-1.26232 1.37322,-1.26232 1.05833,-0.55627 1.05834,-0.55627 1.61529,0.0688 1.61529,0.0688 0.5198,0.16497 0.51979,0.16498 0.4446,0.93233 0.4446,0.93234 v 0.42891 0.4289 l 0.48386,-0.43788 0.48385,-0.43788 h 0.3099 0.30989 v 0.26458 0.26459 h 0.33808 0.33807 l 0.4917,0.57427 0.49171,0.57427 0.4824,-0.905 0.48241,-0.905 -0.13633,-2.77813 -0.13632,-2.77812 0.22407,-2.3151 0.22406,-2.31511 h -4.29473 -4.29472 l -0.21003,-0.33073 -0.21003,-0.33073 -0.0755,-4.10104 -0.0755,-4.10104 -0.25923,-0.0882 -0.25924,-0.0882 v -1.83003 -1.83004 h -0.26458 -0.26458 v 0.81115 0.81114 l -0.27389,0.51177 -0.2739,0.51178 h -0.27293 -0.27292 l -0.91559,-0.69836 -0.91559,-0.69835 -0.0759,0.10304 -0.0759,0.10304 -1.00468,1.25379 -1.00469,1.25379 0.16411,0.65385 0.16411,0.65386 -0.52552,0.28124 -0.52551,0.28125 -0.33427,-0.53524 -0.33426,-0.53525 h -0.20094 -0.20094 v 1.13175 1.13176 l -0.40663,0.58054 -0.40663,0.58055 -1.77618,0.97901 -1.77618,0.97902 -0.78042,0.54983 -0.78041,0.54983 -0.80709,0.28684 -0.80708,0.28683 -0.0846,0.57306 -0.0845,0.57306 h 0.41528 0.41527 l 0.009,0.99219 0.009,0.99219 0.37812,0.66146 0.37813,0.66146 0.009,1.35666 0.009,1.35667 0.40711,0.33787 0.40711,0.33787 0.55151,1.28203 0.55152,1.28202 h 0.2259 0.2259 l 0.44248,0.67532 0.44249,0.67532 -0.56868,0.76917 -0.56864,0.76918 v 0.26215 0.26215 l 0.46302,0.26968 0.46302,0.26969 z"
       id="path67" /><path
       style="display:inline;fill:#000000;stroke-width:0.264583"
       d="m 198.67466,172.49712 h 0.21443 l 0.24547,-0.64563 0.24547,-0.64563 1.13477,-0.082 1.13476,-0.082 0.0754,-0.52916 0.0754,-0.52917 0.48362,-1.05833 0.48361,-1.05834 0.63103,-1.32291 0.63103,-1.32292 0.73045,-1.0967 0.73044,-1.09671 -0.003,-1.68142 -0.003,-1.68142 -0.16375,-0.99063 -0.16374,-0.99064 -0.62709,-0.67664 -0.6271,-0.67664 v -0.51554 -0.51554 h -0.25779 -0.25779 l -0.40367,-0.78061 -0.40367,-0.78061 v -0.6685 -0.66849 l -0.7276,-0.45183 -0.7276,-0.45182 -0.59532,-0.52644 -0.59531,-0.52644 v -0.58208 -0.58208 l -0.92056,-1.00502 -0.92055,-1.00501 -0.37517,-1.34334 -0.37516,-1.34335 -0.16895,-0.92604 -0.16895,-0.92604 -0.62255,-0.76117 -0.62255,-0.76117 -0.19137,1.42263 -0.19136,1.42262 -0.20932,0.26459 -0.20932,0.26458 -0.0903,1.85208 -0.0903,1.85209 -0.39106,0.46302 -0.39104,0.46302 h -0.28617 -0.28618 l -0.87027,-0.89789 -0.87027,-0.8979 -0.73724,-0.14744 -0.73724,-0.14745 -0.42876,-0.42877 -0.42877,-0.42877 v -0.23647 -0.23648 l 0.79375,-0.90403 0.79375,-0.90403 v -0.38563 -0.38562 l -0.67391,-0.30705 -0.67391,-0.30705 h -1.03027 -1.03027 l -0.14148,0.22892 -0.14148,0.22892 -0.95608,0.15515 -0.95607,0.15515 -0.37327,0.30978 -0.37326,0.30979 v 1.66534 1.66535 l 0.33073,0.10974 0.33073,0.10975 0.13229,4.34407 0.13229,4.34408 4.36562,0.13229 4.36563,0.13229 -0.0596,0.66146 -0.0596,0.66146 -0.0812,4.7625 -0.0812,4.7625 -0.34385,0.61838 -0.34385,0.61838 0.17877,1.29985 0.17878,1.29984 h 0.68572 0.68572 l 0.61141,0.57439 0.61141,0.57439 0.67022,-0.35869 0.67023,-0.3587 0.44576,0.44577 0.44576,0.44576 z"
       id="path15" /><path
       style="display:inline;fill:#000000;stroke-width:0.264583"
       d="m 196.72599,139.58011 0.46302,-0.39562 v -0.5008 -0.50079 l -0.66146,-0.61302 -0.66146,-0.61301 v -0.56498 -0.56497 h -0.26458 -0.26459 v -0.40047 -0.40046 l 0.33073,-0.53408 0.33073,-0.53407 -0.98098,-0.8514 -0.98099,-0.8514 -0.0773,-0.78433 -0.0773,-0.78434 -0.88908,-0.18041 -0.88909,-0.1804 -1.22758,-1.16965 -1.22758,-1.16966 -0.74005,-0.313 -0.74006,-0.313 h -0.6664 -0.6664 l -0.51177,0.27389 -0.51178,0.2739 v 1.18131 1.18132 h -0.38187 -0.38187 l -0.41188,-0.58804 -0.41188,-0.58804 v -0.73488 -0.73487 h -0.57826 -0.57826 l -0.59478,-0.55878 -0.59479,-0.55877 -0.69328,0.69328 -0.69328,0.69328 0.14501,0.23465 0.14502,0.23464 -0.43137,0.16553 -0.43137,0.16553 0.43289,0.47834 0.43289,0.47834 v 0.44219 0.44218 h 0.24675 0.24676 l 0.15314,0.48253 0.15315,0.48252 0.53645,0.57581 0.53645,0.57581 h 0.93463 0.93463 l 0.44413,0.44591 0.44412,0.44592 -0.0369,1.80304 -0.0369,1.80305 h 0.4843 0.48429 l 0.14817,0.23974 0.14817,0.23975 0.5019,-0.13125 0.50189,-0.13125 0.64057,0.41971 0.64056,0.41971 1.23136,0.23005 1.23136,0.23004 0.41014,-0.62596 0.41015,-0.62596 h 0.43608 0.43609 l 0.48386,0.43788 0.48385,0.43789 v 0.48815 0.48816 l 0.46302,0.004 0.46302,0.004 0.66146,0.35072 0.66146,0.35071 z"
       id="path165" /><path
       id="path1"
       style="fill:#000000"
       d="M 202.6137 60.918257 C 202.06202 60.889271 201.69772 61.153287 201.50627 61.712524 C 201.30205 62.309075 201.35518 62.520631 201.82047 62.964127 C 202.40935 63.525434 202.54481 64.127096 202.13983 64.383162 C 202.00744 64.466878 201.8211 65.066664 201.7259 65.715897 C 201.58695 66.663881 201.64578 67.001302 202.02407 67.42897 C 202.47309 67.936597 202.4745 67.998121 202.05456 68.74672 C 201.51269 69.712685 201.71234 70.369689 202.21527 70.796724 L 202.43076 71.962544 C 202.18164 72.40737 200.53188 74.63097 200.14718 75.681697 L 199.86761 75.752493 C 199.72655 75.970775 199.51305 76.55583 199.51105 76.818061 C 199.50858 77.109703 199.19404 77.404198 198.70076 77.576155 C 198.12988 77.775166 197.85073 78.074592 197.74526 78.601932 C 197.66332 79.011635 197.31208 79.614268 196.96443 79.940868 C 196.59476 80.288154 196.33191 80.837082 196.33191 81.263268 C 196.33191 81.664068 196.15332 82.170491 195.93504 82.388781 C 195.34068 82.98314 195.45338 83.684287 196.26577 84.446536 C 196.66584 84.82193 197.20727 85.444328 197.46879 85.828881 C 198.05684 86.693713 198.11458 86.693461 199.02942 85.816995 C 199.55007 85.318176 199.77149 84.844485 199.77149 84.229495 C 199.77149 83.646146 199.89819 83.352546 200.14977 83.352546 C 200.35769 83.352546 200.96198 82.943194 201.49284 82.442524 C 202.0237 81.941865 202.70877 81.495337 203.01522 81.450337 C 203.35964 81.399727 203.64393 81.098667 203.75988 80.662271 C 204.05533 79.550331 204.87063 78.607931 205.54427 78.598831 C 205.26376 78.595557 205.999 78.820008 206.68528 78.138394 C 207.00805 77.817833 206.90616 77.598235 207.16122 76.475963 C 207.34062 75.686638 207.79464 74.151718 207.65422 73.849767 L 207.65835 73.848217 C 207.73438 73.770429 207.67204 73.316872 207.51986 72.84001 C 207.36772 72.363146 207.26236 71.67858 207.28576 71.319172 C 207.39826 69.590702 207.22067 69.044505 206.2171 68.032551 C 205.03058 66.836129 204.96724 66.61455 205.81144 66.61455 C 206.50709 66.61455 207.23461 65.994958 207.23461 65.402738 C 207.23461 65.18808 207.57941 64.715579 208.00097 64.352672 C 208.42252 63.989766 208.76733 63.478275 208.76733 63.216308 C 208.76733 62.540459 207.27168 61.306994 206.75195 61.554394 C 206.06334 61.882182 204.80294 61.767249 203.81208 61.286193 C 203.34319 61.058555 202.94471 60.935648 202.6137 60.918257 z " /><g
       id="g37"
       transform="translate(31.684561,-25.761311)"
       inkscape:label="g37"><g
         id="g6"><path
           style="opacity:1;fill:#000000"
           d="m 67.019952,102.1893 c 0.08994,0.14552 -4.423042,0.93605 -4.674832,0.93605 -0.251792,0 -0.666832,0.18917 -0.922313,0.42038 -0.43492,0.39359 -1.51224,0.7577 -3.215178,1.08664 -0.618336,0.11943 -0.727604,0.0519 -0.727604,-0.44978 h 6e-6 c 0,-0.33594 0.456071,-1.0464 1.058334,-1.64866 1.068955,-1.06896 1.221018,-1.28635 0.859895,-1.22933 -1.210843,0.19119 -1.528103,-0.75821 -0.587832,-1.759086 0.326396,-0.347433 0.46978,-0.745484 0.365976,-1.015993 -0.260466,-0.678764 -0.8571,-0.04197 -1.046267,1.116687 -0.08671,0.531082 -0.398831,1.641662 -0.693611,2.467952 -0.511788,1.43458 -0.585553,1.51086 -1.635292,1.6911 -3.094354,0.53129 -5.20037,-0.37946 -5.20037,-2.24892 0,-1.05599 0.645187,-1.968369 1.608019,-2.27396 0.494027,-0.156798 0.546217,-0.313782 0.402699,-1.211295 -0.100376,-0.627715 2.502381,-4.560686 2.665353,-4.560686 l -0.132132,0.104586 c 6.306712,0.773001 0.748278,-4.43835 4.068548,-7.893795 0.323605,-0.207899 1.190587,-0.321028 1.692144,-0.368648 0.857265,-0.08139 0.926118,-0.02761 1.148791,0.897278 0.189517,0.787171 0.417136,1.049038 1.1386,1.309923 0.495951,0.179338 0.901729,0.425038 0.901729,0.545999 0,0.518632 -0.765404,1.962542 -1.2864,2.426753 -0.780254,0.695212 -0.713367,1.040314 0.360358,1.859284 0.509323,0.388476 4.890922,5.083599 4.890922,4.94281"
           id="path11" /></g></g><path
       style="fill:#000000;stroke-width:0.0319749"
       d="m 164.38726,139.49568 c -0.31401,-0.23213 -0.89014,-0.87191 -1.38131,-1.5339 -0.0757,-0.10207 -0.32545,-0.46153 -0.55493,-0.79881 -0.62522,-0.91894 -1.19779,-1.66712 -1.81599,-2.37297 -0.71883,-0.82072 -1.24227,-1.59712 -1.82687,-2.70965 -0.51915,-0.98799 -1.17898,-2.05577 -1.73395,-2.806 -0.76379,-1.03253 -1.2107,-1.84755 -1.38298,-2.52212 -0.12119,-0.47452 -0.0967,-0.72092 0.0917,-0.92098 0.0625,-0.0664 0.1496,-0.11463 0.25085,-0.13892 0.46764,-0.11219 1.68705,0.40526 2.93237,1.24432 0.73087,0.49243 1.16828,0.88843 2.17599,1.96998 1.55946,1.67375 2.42124,2.72079 2.48582,3.0202 0.0531,0.24624 0.23308,0.44692 0.5727,0.6386 0.25892,0.14612 0.41745,0.31683 0.43825,0.4719 0.0259,0.19332 0.383,0.94104 0.96677,2.02446 0.82408,1.52942 0.98629,1.93806 0.99004,2.49404 0.002,0.31432 -0.004,0.34963 -0.10091,0.55355 -0.16752,0.35369 -0.58856,0.75005 -1.30372,1.22731 -0.34235,0.22846 -0.47102,0.2975 -0.55446,0.2975 -0.0341,0 -0.14634,-0.0623 -0.24939,-0.13851 z"
       id="path39"
       inkscape:label="path39" /><path
       style="fill:#000000;stroke-width:0.0319749"
       d="m 167.89213,141.25005 c -1.02874,-0.0454 -1.53181,-0.10909 -1.79783,-0.22752 -0.51212,-0.22797 -0.57735,-0.82569 -0.18113,-1.65982 0.18735,-0.39443 0.49566,-0.64257 0.93978,-0.75638 0.45025,-0.11538 0.74264,-0.13258 2.25423,-0.13258 1.5588,0 1.71285,0.0108 2.14231,0.1496 0.67054,0.21677 1.64655,0.95205 1.90237,1.43316 0.11955,0.22483 0.13185,0.49035 0.0291,0.62906 -0.34691,0.46849 -1.17439,0.59254 -3.86599,0.57953 -0.66827,-0.003 -1.30857,-0.01 -1.42288,-0.0151 z"
       id="path40"
       inkscape:label="path40" /><path
       style="fill:#000000;stroke-width:0.0319749"
       d="m 172.4515,138.7478 c -0.10883,-0.10883 -0.15187,-0.22289 -0.25052,-0.66397 -0.11425,-0.51079 -0.20083,-1.14538 -0.24527,-1.79778 -0.0474,-0.69505 -0.0173,-0.94846 0.15743,-1.32696 0.18021,-0.39042 0.54369,-1.39349 1.03397,-2.85344 l 0.42672,-1.27068 0.15988,-2.6e-4 c 0.32381,-7.9e-4 1.47679,-0.10018 1.66429,-0.14352 0.49557,-0.11454 0.7792,-0.29684 1.17902,-0.75783 0.42906,-0.4947 0.55675,-0.54505 0.84525,-0.33327 0.1837,0.13485 0.30297,0.28276 0.39407,0.4887 0.0533,0.1205 0.0631,0.19465 0.0516,0.39239 -0.0245,0.42259 -0.23942,0.71185 -0.79965,1.07607 -0.54697,0.35559 -0.70936,0.58698 -0.76062,1.08377 -0.0488,0.47295 -0.25579,0.81786 -0.71163,1.18574 -0.52438,0.4232 -0.55108,0.56359 -0.29376,1.54443 0.19324,0.73656 0.44806,1.3416 0.71368,1.69455 0.15209,0.2021 0.23975,0.44101 0.23716,0.64635 -0.006,0.50211 -0.5873,0.725 -1.17403,0.45043 -0.14464,-0.0677 -0.29743,-0.18168 -0.49701,-0.37083 -0.40733,-0.38602 -0.7468,-0.54106 -1.02229,-0.46688 -0.26743,0.072 -0.385,0.24783 -0.47935,0.71686 -0.0836,0.41571 -0.17798,0.61132 -0.35307,0.73199 -0.10898,0.0751 -0.18181,0.0683 -0.27588,-0.0257 z"
       id="path41" /><path
       style="display:inline;fill:#000000;stroke-width:0.0452191"
       d="m 168.21866,136.97747 c -0.35214,-0.0584 -0.59977,-0.22146 -0.83329,-0.54872 -0.35737,-0.50083 -1.07026,-1.6724 -1.27202,-2.09042 -0.2444,-0.50639 -0.31291,-0.71324 -0.44894,-1.35546 -0.11699,-0.55238 -0.19725,-0.74914 -0.34889,-0.85535 -0.0928,-0.065 -0.0962,-0.091 -0.0676,-0.52717 0.038,-0.57967 0.14363,-1.09964 0.27002,-1.32907 0.056,-0.1017 0.20492,-0.25163 0.34687,-0.3493 0.37909,-0.2608 0.7868,-0.64559 1.36337,-1.28672 1.02017,-1.13439 1.93304,-2.33681 2.4764,-3.26185 0.65702,-1.11856 0.80593,-1.25084 1.40566,-1.24863 0.2815,0.001 0.41754,0.0308 0.80034,0.17525 0.25365,0.0957 0.45009,0.19195 0.43653,0.2139 -0.0514,0.0832 0.0894,0.30139 0.32691,0.50642 0.34575,0.2985 0.44253,0.50507 0.41525,0.88634 -0.0178,0.24798 -0.0622,0.38057 -0.254,0.75812 -0.31398,0.61797 -0.3607,0.89745 -0.28298,1.69299 0.0955,0.9777 0.10997,1.53591 0.0538,2.07777 -0.0987,0.95329 -0.28828,1.69823 -0.51733,2.03327 -0.0927,0.13561 -0.12277,0.14991 -0.29225,0.13903 -0.17926,-0.0115 -0.18888,-0.006 -0.18837,0.11305 2.6e-4,0.0688 0.0306,0.23709 0.0673,0.37388 0.0881,0.32807 0.0862,0.34904 -0.041,0.46698 -0.15615,0.14472 -0.24295,0.49702 -0.31946,1.29657 -0.0745,0.77829 -0.13871,1.04021 -0.34108,1.39088 -0.23959,0.41515 -0.6683,0.65012 -1.3455,0.73745 -0.38108,0.0491 -1.08561,0.0445 -1.40975,-0.009 z"
       id="path42" /><path
       style="fill:#ae0000;fill-opacity:1;stroke:#ff0000;stroke-width:0.26447025;stroke-linecap:butt;stroke-linejoin:bevel;stroke-dasharray:0.26447025,0.26447025;stroke-dashoffset:0;stroke-opacity:1;marker-start:url(#Dot);marker-end:url(#Dot)"
       d="M 70.965087,42.587482 54.088856,66.038867"
       id="path12"
       inkscape:label="path12" /><path
       style="fill:#ae0000;fill-opacity:1;stroke:#ff0000;stroke-width:0.26447025;stroke-linecap:butt;stroke-linejoin:bevel;stroke-dasharray:0.26447025,0.26447025;stroke-dashoffset:0;stroke-opacity:1;marker-start:url(#Dot);marker-end:url(#Dot)"
       d="M 71.052757,42.321321 68.378859,60.337245"
       id="path13" /><path
       style="fill:#ae0000;fill-opacity:1;stroke:#ff0000;stroke-width:0.28653106;stroke-linecap:butt;stroke-linejoin:bevel;stroke-dasharray:0.28653106,0.28653106;stroke-dashoffset:0;stroke-opacity:1;marker-start:url(#Dot);marker-end:url(#Dot)"
       d="m 71.132288,42.555074 -11.54955,6.946811"
       id="path14" /><path
       style="fill:#ae0000;fill-opacity:1;stroke:#ff0000;stroke-width:0.26447025;stroke-linecap:butt;stroke-linejoin:bevel;stroke-dasharray:0.26447025,0.26447025;stroke-dashoffset:0;stroke-opacity:1;marker-start:url(#Dot);marker-end:url(#Dot)"
       d="m 85.693436,43.858678 10.257239,7.539511"
       id="path16" /><path
       style="fill:#ae0000;fill-opacity:1;stroke:#ff0000;stroke-width:0.264;stroke-linecap:butt;stroke-linejoin:bevel;stroke-dasharray:0.264,0.264;stroke-dashoffset:0;stroke-opacity:1;marker-start:url(#Dot);marker-end:url(#Dot)"
       d="m 96.739694,76.383777 c 0.263007,0.526013 1.315032,4.383436 1.315032,4.383436"
       id="path18" /><path
       style="fill:#ae0000;fill-opacity:1;stroke:#ff0000;stroke-width:0.264;stroke-linecap:butt;stroke-linejoin:bevel;stroke-dasharray:0.264,0.264;stroke-dashoffset:0;stroke-opacity:1;marker-start:url(#Dot);marker-end:url(#Dot)"
       d="m 99.895769,56.395308 c 0.08767,0.263006 -3.857424,11.747608 -3.857424,11.747608"
       id="path19" /><path
       style="fill:#ae0000;fill-opacity:1;stroke:#ff0000;stroke-width:0.264;stroke-linecap:butt;stroke-linejoin:bevel;stroke-dasharray:0.264,0.264;stroke-dashoffset:0;stroke-opacity:1;marker-start:url(#Dot);marker-end:url(#Dot)"
       d="M 108.39964,69.545618 107.87362,59.463712"
       id="path21" /><path
       style="fill:#ae0000;fill-opacity:1;stroke:#ff0000;stroke-width:0.264;stroke-linecap:butt;stroke-linejoin:bevel;stroke-dasharray:0.264,0.264;stroke-dashoffset:0;stroke-opacity:1;marker-start:url(#Dot);marker-end:url(#Dot)"
       d="m 99.106749,71.561997 7.890191,-0.438343"
       id="path20" /><path
       style="fill:#ae0000;fill-opacity:1;stroke:#ff0000;stroke-width:0.264;stroke-linecap:butt;stroke-linejoin:bevel;stroke-dasharray:0.264,0.264;stroke-dashoffset:0;stroke-opacity:1;marker-start:url(#Dot);marker-end:url(#Dot)"
       d="m 107.34761,57.973344 -5.69847,-2.717732"
       id="path22" /><path
       style="fill:#ae0000;fill-opacity:1;stroke:#ff0000;stroke-width:0.264;stroke-linecap:butt;stroke-linejoin:bevel;stroke-dasharray:0.264, 0.264;stroke-dashoffset:0;stroke-opacity:1"
       d="M 96.739694,70.071628 108.83798,58.14868"
       id="path23" /><path
       style="fill:#ae0000;fill-opacity:1;stroke:#ff0000;stroke-width:0.264;stroke-linecap:butt;stroke-linejoin:bevel;stroke-dasharray:0.264,0.264;stroke-dashoffset:0;stroke-opacity:1;marker-start:url(#Dot);marker-end:url(#Dot)"
       d="m 81.778089,123.34033 14.753894,-3.59548"
       id="path24" /><path
       style="fill:#ae0000;fill-opacity:1;stroke:#ff0000;stroke-width:0.264;stroke-linecap:butt;stroke-linejoin:bevel;stroke-dasharray:0.264,0.264;stroke-dashoffset:0;stroke-opacity:1;marker-start:url(#Dot);marker-end:url(#Dot)"
       d="m 118.97278,95.444312 0.61991,10.042568"
       id="path25" /><path
       style="fill:#ae0000;fill-opacity:1;stroke:#ff0000;stroke-width:0.264;stroke-linecap:butt;stroke-linejoin:bevel;stroke-dasharray:0.264,0.264;stroke-dashoffset:0;stroke-opacity:1;marker-start:url(#Dot);marker-end:url(#Dot)"
       d="m 111.03792,93.212631 -2.1077,9.918589"
       id="path26" /><path
       style="fill:#ae0000;fill-opacity:1;stroke:#ff0000;stroke-width:0.264;stroke-linecap:butt;stroke-linejoin:bevel;stroke-dasharray:0.264,0.264;stroke-dashoffset:0;stroke-opacity:1;marker-start:url(#Dot);marker-end:url(#Dot)"
       d="m 133.85066,117.38918 3.96743,-4.71133"
       id="path27" /><path
       style="fill:#ae0000;fill-opacity:1;stroke:#ff0000;stroke-width:0.264;stroke-linecap:butt;stroke-linejoin:bevel;stroke-dasharray:0.264,0.264;stroke-dashoffset:0;stroke-opacity:1;marker-start:url(#Dot);marker-end:url(#Dot)"
       d="m 185.79925,135.36662 c 1.3638,11.28239 1.3638,11.28239 1.3638,11.28239"
       id="path28" /><path
       style="fill:#ae0000;fill-opacity:1;stroke:#ff0000;stroke-width:0.264;stroke-linecap:butt;stroke-linejoin:bevel;stroke-dasharray:0.264,0.264;stroke-dashoffset:0;stroke-opacity:1;marker-start:url(#Dot);marker-end:url(#Dot)"
       d="m 185.92323,135.24264 -4.2154,11.28238"
       id="path29" /><path
       style="fill:#ae0000;fill-opacity:1;stroke:#ff0000;stroke-width:0.264;stroke-linecap:butt;stroke-linejoin:bevel;stroke-dasharray:0.264,0.264;stroke-dashoffset:0;stroke-opacity:1;marker-start:url(#Dot);marker-end:url(#Dot)"
       d="m 180.46801,147.02095 -4.95929,-9.67062"
       id="path30" /><path
       style="fill:#ae0000;fill-opacity:1;stroke:#ff0000;stroke-width:0.264;stroke-linecap:butt;stroke-linejoin:bevel;stroke-dasharray:0.264,0.264;stroke-dashoffset:0;stroke-opacity:1;marker-start:url(#Dot);marker-end:url(#Dot)"
       d="m 180.34403,114.66157 -8.18284,10.5385"
       id="path31" /><path
       style="fill:#ae0000;fill-opacity:1;stroke:#ff0000;stroke-width:0.264;stroke-linecap:butt;stroke-linejoin:bevel;stroke-dasharray:0.264,0.264;stroke-dashoffset:0;stroke-opacity:1;marker-start:url(#Dot);marker-end:url(#Dot)"
       d="m 172.28518,126.06794 8.55477,2.60363"
       id="path32" /><path
       style="fill:#ae0000;fill-opacity:1;stroke:#ff0000;stroke-width:0.264;stroke-linecap:butt;stroke-linejoin:bevel;stroke-dasharray:0.264,0.264;stroke-dashoffset:0;stroke-opacity:1;marker-start:url(#Dot);marker-end:url(#Dot)"
       d="m 195.46987,64.324754 c 7.56292,6.199116 7.56292,6.199116 7.56292,6.199116"
       id="path33" /><path
       style="fill:#ae0000;fill-opacity:1;stroke:#ff0000;stroke-width:0.264;stroke-linecap:butt;stroke-linejoin:bevel;stroke-dasharray:0.264,0.264;stroke-dashoffset:0;stroke-opacity:1;marker-start:url(#Dot);marker-end:url(#Dot)"
       d="m 201.91695,74.491302 -9.67062,-0.371946"
       id="path34" /><path
       style="fill:#ae0000;fill-opacity:1;stroke:#ff0000;stroke-width:0.264;stroke-linecap:butt;stroke-linejoin:bevel;stroke-dasharray:0.264,0.264;stroke-dashoffset:0;stroke-opacity:1;marker-start:url(#Dot);marker-end:url(#Dot)"
       d="m 212.0835,41.388027 11.65433,0.123982"
       id="path35" /><path
       style="fill:#ae0000;fill-opacity:1;stroke:#ff0000;stroke-width:0.264;stroke-linecap:butt;stroke-linejoin:bevel;stroke-dasharray:0.264,0.264;stroke-dashoffset:0;stroke-opacity:1;marker-start:url(#Dot);marker-end:url(#Dot)"
       d="M 1.9334826,55.769976 C 4.0411818,55.522011 11.97605,56.141922 11.97605,56.141922"
       id="path36" /></g></svg>
