<?xml version="1.0" encoding="UTF-8" standalone="no"?>
<!-- Created with Inkscape (http://www.inkscape.org/) -->

<svg
   width="25.135433mm"
   height="25.182299mm"
   viewBox="0 0 25.135433 25.182299"
   version="1.1"
   id="svg1"
   xml:space="preserve"
   xmlns="http://www.w3.org/2000/svg"
   xmlns:svg="http://www.w3.org/2000/svg"><defs
     id="defs1" /><g
     id="layer1"
     transform="translate(-33.011437,-68.493673)"><path
       style="fill:#000000;stroke-width:0.264583"
       d="m 47.584854,93.675971 h 0.531884 l 0.64943,-0.64943 0.649433,-0.64943 v -0.6249 -0.62489 l -0.276939,-1.4981 -0.276942,-1.49811 0.283276,-0.52931 0.283276,-0.5293 1.525678,-1.03607 1.525677,-1.03607 0.382728,-0.46115 0.382725,-0.46116 0.0035,-1.2568 0.0035,-1.2568 1.083895,-1.28643 1.083892,-1.28642 0.405595,-0.79375 0.405593,-0.79375 0.178353,-0.82881 0.178353,-0.82881 0.779555,-0.69459 0.779556,-0.69459 -0.004,-1.254724 -0.004,-1.254731 -0.232132,-0.36654 -0.232132,-0.366538 -0.644499,0.161758 -0.644495,0.161759 -0.306692,0.673113 -0.306692,0.673116 -0.681934,0.25927 -0.681948,0.259267 h -0.740956 -0.740844 l -0.713385,-0.561146 -0.713386,-0.561149 -0.975942,0.156228 -0.975942,0.156226 -0.455628,0.557398 -0.455631,0.557393 -0.312854,-0.19335 -0.312857,-0.193358 0.169569,0.274368 0.169566,0.27436 -0.544766,0.69256 -0.544764,0.69256 h -0.335203 -0.335201 l -0.307052,-0.67391 -0.307054,-0.67391 v -0.41682 -0.416823 l -0.424312,0.352153 -0.424312,0.35214 0.130643,0.97402 0.130643,0.97403 -0.607145,0.32493 -0.607142,0.32494 -0.315163,-0.19479 -0.315164,-0.19478 0.182986,-1.22023 0.182986,-1.22024 0.503825,-0.707555 0.503822,-0.707554 v -0.391318 -0.391319 l -0.595313,-0.159536 -0.595312,-0.159538 -0.735907,-0.0036 -0.735909,-0.0036 -0.144093,-0.375499 -0.144092,-0.3755 0.440275,-0.671946 0.440275,-0.671946 -0.663827,-0.166661 -0.663826,-0.166608 -0.483949,0.09276 -0.483947,0.09276 -0.132292,5.24422 -0.132292,5.24422 -0.529166,0.39223 -0.529167,0.39223 -1.254051,-0.0834 -1.254048,-0.0834 -0.135014,0.35237 -0.135012,0.35239 v 0.63303 0.63302 l -0.742238,0.38383 -0.742241,0.38383 -0.316092,0.69375 -0.316095,0.69375 v 0.76209 0.7621 l -0.661459,0.5203 -0.661458,0.52031 v 0.83031 0.83032 l 0.406966,0.974 0.406966,0.97401 0.411703,0.45492 0.411702,0.45493 1.346829,-0.82871 1.346833,-0.82872 1.75002,-0.0417 1.75002,-0.0418 0.549429,-0.29405 0.549431,-0.29404 1.097386,0.43106 1.097383,0.43107 0.963615,-0.29575 0.963613,-0.29574 0.220927,0.13654 0.220927,0.13654 v 1.72157 1.72157 l 0.273891,0.51178 0.273894,0.51177 z"
       id="path390" /></g></svg>
