<?xml version="1.0" encoding="UTF-8" standalone="no"?>
<!-- Created with Inkscape (http://www.inkscape.org/) -->

<svg
   width="17.269859mm"
   height="13.468647mm"
   viewBox="0 0 17.269859 13.468647"
   version="1.1"
   id="svg1"
   xml:space="preserve"
   xmlns="http://www.w3.org/2000/svg"
   xmlns:svg="http://www.w3.org/2000/svg"><defs
     id="defs1" /><g
     id="layer1"
     transform="translate(-171.9816,-121.74476)"><path
       style="display:inline;fill:#000000;stroke-width:0.264583"
       d="m 188.78844,134.81758 0.46302,-0.39562 v -0.5008 -0.50079 l -0.66146,-0.61302 -0.66146,-0.61301 v -0.56498 -0.56497 h -0.26458 -0.26459 v -0.40047 -0.40046 l 0.33073,-0.53408 0.33073,-0.53407 -0.98098,-0.8514 -0.98099,-0.8514 -0.0773,-0.78433 -0.0773,-0.78434 -0.88908,-0.18041 -0.88909,-0.1804 -1.22758,-1.16965 -1.22758,-1.16966 -0.74005,-0.313 -0.74006,-0.313 h -0.6664 -0.6664 l -0.51177,0.27389 -0.51178,0.2739 v 1.18131 1.18132 h -0.38187 -0.38187 l -0.41188,-0.58804 -0.41188,-0.58804 v -0.73488 -0.73487 h -0.57826 -0.57826 l -0.59478,-0.55878 -0.59479,-0.55877 -0.69328,0.69328 -0.69328,0.69328 0.14501,0.23465 0.14502,0.23464 -0.43137,0.16553 -0.43137,0.16553 0.43289,0.47834 0.43289,0.47834 v 0.44219 0.44218 h 0.24675 0.24676 l 0.15314,0.48253 0.15315,0.48252 0.53645,0.57581 0.53645,0.57581 h 0.93463 0.93463 l 0.44413,0.44591 0.44412,0.44592 -0.0369,1.80304 -0.0369,1.80305 h 0.4843 0.48429 l 0.14817,0.23974 0.14817,0.23975 0.5019,-0.13125 0.50189,-0.13125 0.64057,0.41971 0.64056,0.41971 1.23136,0.23005 1.23136,0.23004 0.41014,-0.62596 0.41015,-0.62596 h 0.43608 0.43609 l 0.48386,0.43788 0.48385,0.43789 v 0.48815 0.48816 l 0.46302,0.004 0.46302,0.004 0.66146,0.35072 0.66146,0.35071 z"
       id="path165" /></g></svg>
