<?xml version="1.0" encoding="UTF-8" standalone="no"?>
<!-- Created with Inkscape (http://www.inkscape.org/) -->

<svg
   width="31.908274mm"
   height="31.249758mm"
   viewBox="0 0 31.908274 31.249758"
   version="1.1"
   id="svg1"
   xml:space="preserve"
   xmlns="http://www.w3.org/2000/svg"
   xmlns:svg="http://www.w3.org/2000/svg"><defs
     id="defs1" /><g
     id="layer1"
     transform="translate(-113.4724,-82.948934)"><path
       style="display:inline;fill:#000000;stroke-width:0.264583"
       d="m 133.41669,114.19869 h 1.65051 l 1.58347,-1.05177 1.58347,-1.05178 0.90966,-0.43378 0.90966,-0.43379 0.48435,-0.82955 0.48435,-0.82954 0.47508,-0.34172 0.47509,-0.34172 0.79947,-1.63872 0.79948,-1.63871 v -0.82436 -0.82435 l -0.27775,-0.79676 -0.27775,-0.79677 -0.62534,-0.28492 -0.62534,-0.28492 -0.16878,-0.53176 -0.16877,-0.53177 -0.51286,-0.16277 -0.51285,-0.16277 -0.59082,0.41382 -0.59081,0.41382 h -0.73488 -0.73488 v -0.21219 -0.2122 l -1.30074,-1.429744 -1.30073,-1.429754 -0.15447,-0.772364 -0.15448,-0.772367 V 95.794924 95.18438 l 0.5943,-0.18863 0.5943,-0.18862 0.27951,-0.382257 0.27953,-0.382267 0.32616,0.392997 0.32616,0.392997 0.24723,1.519071 0.24724,1.519074 0.0741,0.0516 0.0741,0.0516 0.60975,0.41031 0.60976,0.410314 0.92489,-0.20859 0.92488,-0.208604 0.31495,0.504304 0.31493,0.504297 h 0.56984 0.56983 l 0.75558,-0.735607 0.75559,-0.735604 0.57401,-0.697114 0.57401,-0.697107 -0.53209,-0.992764 -0.53209,-0.992764 0.15331,-0.766517 0.1533,-0.766514 -0.77113,-1.504342 -0.77113,-1.50435 -0.18326,-2.05562 -0.18326,-2.05563 -0.96063,-0.96154 -0.96062,-0.96154 -0.86213,-0.36075 -0.86212,-0.36076 -0.65923,0.16546 -0.65923,0.16546 v 0.48158 0.48159 l -0.38138,0.38137 -0.38138,0.38138 -1.37346,-0.30933 -1.37346,-0.30933 -0.71831,-0.71831 -0.71831,-0.71831 -0.63571,0.47726 -0.6357,0.47726 -0.74005,0.32019 -0.74006,0.3202 h -0.88119 -0.8812 l -0.30479,-0.36725 -0.30479,-0.36725 -0.98438,0.22864 -0.98437,0.22865 -0.80098,0.006 -0.80098,0.006 -0.70891,-0.80789 -0.70891,-0.80789 -1.00365,0.1767 -1.00366,0.17669 -1.16619,0.50248 -1.1662,0.50248 -0.81014,0.14273 -0.81014,0.14272 -0.11671,0.11672 -0.11672,0.11671 -0.29484,-0.5914 -0.29485,-0.5914 -0.40916,-0.0788 -0.40916,-0.0788 -0.41223,0.87021 -0.41223,0.8702 -0.39688,1.20502 -0.39689,1.20501 0.36503,0.4992 0.36502,0.4992 v 0.98289 0.9829 l 1.23776,0.42174 1.23776,0.42175 h 1.40807 1.40808 v 0.26458 0.26458 h 0.81748 0.81749 l 0.48886,-0.59531 0.48885,-0.59531 0.4796,0.29478 0.47959,0.29479 -0.0352,2.968013 -0.0352,2.968005 -0.86571,0.893174 -0.86572,0.893191 0.9671,1.180194 0.96709,1.18021 v 0.44147 0.44148 l 0.7276,0.27747 0.7276,0.27747 0.59172,0.82403 0.5917,0.82402 0.57241,1.19063 0.57241,1.19062 0.635,0.836 0.635,0.83601 0.93571,0.44402 0.93571,0.44402 -0.15276,0.60865 -0.15276,0.60864 0.56994,1.41862 0.56993,1.41863 0.4043,0.33073 0.40429,0.33072 z"
       id="path193" /></g></svg>
