<?xml version="1.0" encoding="UTF-8" standalone="no"?>
<!-- Created with Inkscape (http://www.inkscape.org/) -->

<svg
   width="13.184551mm"
   height="17.991667mm"
   viewBox="0 0 13.184551 17.991667"
   version="1.1"
   id="svg1"
   xml:space="preserve"
   xmlns="http://www.w3.org/2000/svg"
   xmlns:svg="http://www.w3.org/2000/svg"><defs
     id="defs1" /><g
     id="layer1"
     transform="translate(-36.552892,-54.188681)"><path
       style="fill:#000000;stroke-width:0.264583"
       d="m 49.164161,72.180314 h 0.29691 l 0.138186,-3.241145 0.138187,-3.241146 -0.268489,-0.33306 -0.268491,-0.33306 -0.03182,-1.715371 -0.03181,-1.71537 -0.581313,-0.0021 -0.581311,-0.0021 -1.244031,-0.661458 -1.244034,-0.661458 h -0.31646 -0.31646 l -0.504029,-0.559531 -0.504028,-0.559532 -0.591355,-0.226166 -0.591354,-0.226163 0.141261,-1.264825 0.141261,-1.264825 0.10101,-0.668912 0.101013,-0.668911 -1.035815,-0.323223 -1.035812,-0.323276 H 39.351418 37.62746 v 2.190086 2.190088 l -0.358326,0.521891 -0.358325,0.521893 -0.178959,4.299479 -0.178959,4.299479 h 2.922125 2.922124 l 0.503267,0.314296 0.503266,0.314296 1.114431,-0.367797 1.114427,-0.367795 0.627674,0.729713 0.627671,0.729713 v 0.520959 0.520962 l 0.653156,0.24833 0.653155,0.24833 0.336529,0.538872 0.336532,0.538871 z"
       id="path581" /></g></svg>
