<?xml version="1.0" encoding="UTF-8" standalone="no"?>
<!-- Created with Inkscape (http://www.inkscape.org/) -->

<svg
   width="35.122307mm"
   height="34.124187mm"
   viewBox="0 0 35.122307 34.124187"
   version="1.1"
   id="svg1"
   xml:space="preserve"
   xmlns="http://www.w3.org/2000/svg"
   xmlns:svg="http://www.w3.org/2000/svg"><defs
     id="defs1" /><g
     id="layer1"
     transform="translate(-40.95313,-110.39679)"><path
       style="fill:#000000;stroke-width:0.264583"
       d="m 61.378974,144.52032 h 0.211666 l 0.01725,-0.33073 0.01725,-0.33073 0.902592,-1.71979 0.902591,-1.71979 0.543073,-1.11389 0.543071,-1.1139 -0.162489,-0.6474 -0.162486,-0.6474 0.280829,-0.52473 0.280831,-0.52474 1.242238,-0.82283 1.242221,-0.82282 h 1.01056 1.01056 l 1.362202,-2.71198 1.362202,-2.71198 0.202158,-1.83226 0.202155,-1.83226 1.745345,-1.66981 1.745345,-1.66981 0.02283,-0.20209 0.02283,-0.2021 0.07582,-1.25637 0.07582,-1.25637 -1.008896,-0.91147 -1.008899,-0.91148 -0.84038,-0.43458 -0.840377,-0.43458 -2.019697,-0.14865 -2.019697,-0.14865 -0.747906,-0.62236 -0.74789,-0.62237 h -1.027601 -1.027602 l -0.277522,-0.33073 -0.277524,-0.33072 -1.273503,-1.78208 -1.273503,-1.78208 -0.582406,0.78774 -0.582407,0.78775 -1.118145,0.58877 -1.118145,0.58877 -2.021993,0.009 -2.021993,0.009 -0.557694,-0.50402 -0.557694,-0.50401 v -0.57635 -0.57636 l -0.175123,-0.17512 -0.175122,-0.17512 -0.836864,0.6383 -0.836861,0.63831 -0.377079,-0.23865 -0.377076,-0.23864 -0.198438,-0.004 -0.198437,-0.004 v 1.03245 1.03245 l -0.801206,0.27931 -0.801204,0.2793 -0.455567,-0.16135 -0.455565,-0.16134 -0.47851,-0.41168 -0.478507,-0.41168 -0.447534,0.2829 -0.447532,0.28291 v 1.63366 1.63367 l -0.396875,0.25107 -0.396875,0.25106 -0.667227,0.004 -0.667223,0.004 -1.251005,1.14854 -1.251004,1.14855 v 0.57124 0.57125 h 0.279499 0.279497 l 0.748372,0.81936 0.748373,0.81937 0.580303,-0.31057 0.580305,-0.31057 0.376201,0.14436 0.3762,0.14436 v 0.50916 0.50916 l -0.396875,0.1523 -0.396875,0.1523 v 0.26784 0.26785 l 0.624409,0.15671 0.624409,0.15672 1.558403,-0.66151 1.558404,-0.6615 0.79375,0.74311 0.79375,0.74311 1.119222,0.69276 1.119222,0.69276 h 0.666716 0.666715 v 0.22734 0.22733 l 0.993791,1.16173 0.993794,1.16173 0.593706,1.09435 0.593709,1.09436 v 1.18865 1.18865 l 0.774176,0.32067 0.774176,0.32068 0.713804,1.67951 0.713801,1.67951 -0.168884,0.6729 -0.168886,0.67289 -0.817335,0.93089 -0.817335,0.9309 h 0.420733 0.420732 l 0.378026,0.90474 0.378026,0.90475 0.551566,0.29518 0.551567,0.2952 v 0.59923 0.59923 l 0.3175,0.3175 0.3175,0.3175 z"
       id="path124" /></g></svg>
