<?xml version="1.0" encoding="UTF-8" standalone="no"?>
<!-- Created with Inkscape (http://www.inkscape.org/) -->

<svg
   width="25.00312mm"
   height="26.230133mm"
   viewBox="0 0 25.00312 26.230133"
   version="1.1"
   id="svg1"
   xml:space="preserve"
   xmlns="http://www.w3.org/2000/svg"
   xmlns:svg="http://www.w3.org/2000/svg"><defs
     id="defs1" /><g
     id="layer1"
     transform="translate(-33.971959,-112.63757)"><path
       style="fill:#000000;stroke-width:0.264583"
       d="m 56.391923,138.67912 0.591842,-0.18784 0.995658,-0.6589 0.995655,-0.6589 v -0.37881 -0.37881 l -0.534264,-1.23968 -0.53427,-1.23967 -0.788646,-0.45071 -0.788649,-0.45072 v -1.07943 -1.07944 l -0.640546,-1.26406 -0.640548,-1.26405 -0.97074,-1.16191 -0.970741,-1.1619 -0.515776,-0.0787 -0.515776,-0.0787 -0.981789,-0.5137 -0.981792,-0.5137 -0.867961,-0.83024 -0.867957,-0.83024 -1.654157,0.59325 -1.654159,0.59324 -0.719029,-0.18046 -0.719029,-0.18047 v -0.49581 -0.49582 l 0.396875,-0.1523 0.396875,-0.15229 v -0.40518 -0.40518 h -0.309896 -0.309896 l -0.468296,0.4238 -0.468294,0.4238 -0.836719,-0.95297 -0.836715,-0.95296 h -0.404085 -0.404085 l 0.155273,-0.95685 0.155276,-0.95685 1.069967,-0.91585 1.06997,-0.91586 v -0.20378 -0.20378 l -1.124479,-0.49799 -1.124479,-0.49798 -1.482593,-0.87295 -1.482593,-0.87295 -0.614047,-0.65362 -0.61405,-0.65363 h -0.21576 -0.21576 l -0.919181,1.38906 -0.919181,1.38907 -0.07571,2.28611 -0.07571,2.28612 1.168497,1.02118 1.168498,1.02117 0.769895,1.71979 0.769896,1.71979 1.332756,1.2655 1.332759,1.26549 0.82989,0.42819 0.829892,0.42818 2.751288,2.6058 2.751288,2.6058 h 0.339736 0.339735 l 0.167953,-0.52916 0.167952,-0.52917 h 0.3488 0.348803 l 0.757846,0.39524 0.757849,0.39525 0.831588,0.002 0.831588,0.002 0.151715,0.39537 0.151714,0.39535 0.868781,0.5297 0.86878,0.52969 0.698159,0.001 0.698159,0.001 0.173029,0.92234 0.173032,0.92233 -0.275878,0.51548 -0.275876,0.51543 v 0.16752 0.16751 z"
       id="path143" /></g></svg>
