<?xml version="1.0" encoding="UTF-8" standalone="no"?>
<!-- Created with Inkscape (http://www.inkscape.org/) -->

<svg
   width="19.19408mm"
   height="20.9021mm"
   viewBox="0 0 19.19408 20.9021"
   version="1.1"
   id="svg1"
   xml:space="preserve"
   xmlns="http://www.w3.org/2000/svg"
   xmlns:svg="http://www.w3.org/2000/svg"><defs
     id="defs1" /><g
     id="layer1"
     transform="translate(-97.427973,-71.865583)"><path
       style="display:inline;fill:#000000;stroke-width:0.264583"
       d="m 110.64867,92.767482 h 0.37886 V 92.370605 91.97373 l 0.72761,0.0186 0.7276,0.0186 -0.52917,0.227395 -0.52916,0.22739 0.59531,0.0186 0.59531,0.0186 v -0.37482 -0.374835 l -0.32762,-0.1092 -0.32761,-0.10921 0.29627,-0.65025 0.29628,-0.65026 -0.64441,-0.74916 -0.64441,-0.74917 0.0804,-0.55986 0.0804,-0.55985 0.66146,-0.004 0.66145,-0.004 -0.0367,-0.46303 -0.0367,-0.46302 h 0.26826 0.26826 l -0.16138,-0.8069 -0.16138,-0.8069 0.26059,0.16106 0.2606,0.16106 v -0.58368 -0.58368 l 0.98823,-1.21787 0.98823,-1.21788 0.46698,-0.512909 0.46698,-0.512913 v -0.193053 -0.193056 l 0.15143,-0.39461 0.15142,-0.394613 -0.51984,-0.164992 -0.51985,-0.164994 -0.31125,-0.751427 -0.31125,-0.751427 -0.18699,-1.957618 -0.187,-1.957618 -0.78698,-0.986313 -0.78698,-0.986317 -0.28461,-8e-6 -0.28461,-8e-6 -0.54751,0.595313 -0.5475,0.595312 -0.52288,0.873864 -0.52287,0.873863 0.13424,1.190937 0.13423,1.190934 -1.55737,-0.08042 -1.55737,-0.08043 v -1.5875 -1.5875 l -1.14609,-0.08241 -1.1461,-0.08241 -0.63984,0.419243 -0.63985,0.419246 v 0.650316 0.65032 l -0.7276,0.144864 -0.72761,0.144868 -0.72331,0.232447 -0.72332,0.232449 -1.060087,-0.142189 -1.060084,-0.142187 -0.3994,0.331478 -0.399407,0.331477 v 1.105311 1.105312 l -0.317497,0.3175 -0.3175,0.3175 0.3175,0.3175 0.317497,0.3175 v 1.116129 1.116129 l 0.881124,0.54457 0.881117,0.54456 -0.10968,0.7473 -0.10968,0.7473 0.683757,0.31154 0.68377,0.31155 v 0.28587 0.28587 l 0.27114,-0.16757 0.27113,-0.16758 -0.0654,0.21811 -0.0654,0.2181 0.47199,0.70599 0.47198,0.70599 -0.0824,1.1461 -0.0824,1.14609 -1.52135,0.0793 -1.521354,0.0794 v 0.24527 0.24528 l 0.659527,0.43215 0.659527,0.43214 0.72953,-0.19408 0.72954,-0.19408 -0.33073,-0.12172 -0.33073,-0.12172 v -0.24253 -0.24254 h 0.52917 0.52916 v -0.29289 -0.29289 l 0.43041,0.16516 0.43041,0.16517 0.36334,-0.30155 0.36334,-0.30154 v 0.14579 0.14579 l -0.43532,0.43532 -0.43532,0.43532 -0.22209,-0.35027 -0.22208,-0.35028 -0.004,0.31511 -0.004,0.31512 0.28417,0.17562 0.28417,0.17563 0.63372,-0.59535 0.63372,-0.59535 -0.16656,-0.29226 -0.16655,-0.29227 0.21651,0.19614 0.21651,0.19614 0.35021,-0.29065 0.35021,-0.29065 -0.37205,-0.53118 -0.37205,-0.53118 0.14064,-0.3665 0.14064,-0.3665 h 0.41388 0.41388 l 0.48385,0.43788 0.48385,0.43789 v -0.69217 -0.69217 l -1.18595,-1.45604 -1.18596,-1.45603 0.15593,-0.40635 0.15593,-0.40634 h 0.54203 0.54203 l 0.86885,0.6627 0.86884,0.6627 0.17749,1.18358 0.17749,1.18358 0.76458,1.20562 0.76458,1.20561 v 0.94216 0.94215 l 0.54718,0.76845 0.54718,0.768452 z"
       id="path370" /></g></svg>
