<?xml version="1.0" encoding="UTF-8" standalone="no"?>
<!-- Created with Inkscape (http://www.inkscape.org/) -->

<svg
   width="25.135319mm"
   height="45.050011mm"
   viewBox="0 0 25.135319 45.050011"
   version="1.1"
   id="svg1"
   xml:space="preserve"
   xmlns="http://www.w3.org/2000/svg"
   xmlns:svg="http://www.w3.org/2000/svg"><defs
     id="defs1" /><g
     id="layer1"
     transform="translate(-144.59844,-24.169505)"><path
       style="display:inline;fill:#000000;stroke-width:0.264583"
       d="m 162.53893,69.211515 0.31451,0.008 0.16977,-1.132117 0.16978,-1.132115 -0.4533,-1.132901 -0.4533,-1.132898 0.32179,-0.706242 0.32178,-0.706239 -0.62602,-0.534474 -0.62601,-0.534472 -0.62032,-0.407577 -0.62032,-0.40758 0.59121,-1.158854 0.5912,-1.158854 -0.29296,-0.977805 -0.29296,-0.977804 v -0.427284 -0.427283 l 0.66376,-0.166593 0.66377,-0.166595 0.15882,-0.632801 0.15882,-0.632801 1.00353,-0.794809 1.00353,-0.794808 0.41065,0.157583 0.41065,0.157583 0.55679,0.943682 0.55678,0.943684 0.34862,-0.371999 0.34862,-0.371999 0.15178,-1.381691 0.15179,-1.381691 -0.2766,-0.170945 -0.27659,-0.170947 0.18325,-1.222002 0.18325,-1.222002 0.38849,-0.75125 0.38848,-0.751251 -0.4342,-0.662673 -0.4342,-0.662673 0.14941,-0.389363 0.14942,-0.389363 -0.4167,-0.63596 -0.4167,-0.63596 0.15949,-0.258047 0.15948,-0.258048 -0.45661,-0.957505 -0.4566,-0.957506 0.30808,-0.493311 0.30808,-0.49331 -0.42524,-0.352914 -0.42523,-0.352913 -0.81969,-0.264962 -0.81969,-0.264963 v -0.271659 -0.271658 l 1.1058,-0.999022 1.1058,-0.999021 0.4817,0.29878 0.4817,0.29878 0.72761,-0.278322 0.7276,-0.278322 0.0314,-1.527903 0.0314,-1.527902 -0.0348,-0.295434 -0.0348,-0.295433 0.38464,-0.319224 0.38464,-0.319223 -0.15265,-0.397799 -0.15265,-0.397799 -0.62537,-0.237766 -0.62538,-0.237767 v -0.800298 -0.800299 h -0.39687 -0.39688 l 0.0661,-0.315016 0.0661,-0.315015 -0.51878,-0.111998 -0.51878,-0.111998 -0.90036,0.484878 -0.90037,0.484878 -0.47686,-0.5889 -0.47686,-0.5889 -0.77322,0.729473 -0.77321,0.729473 -0.62574,0.463021 -0.62574,0.463021 h -0.4974 -0.4974 l 0.0967,-0.198438 0.0967,-0.198437 0.33746,-0.661459 0.33745,-0.661458 1.0903,-0.778677 1.09029,-0.778677 -0.21828,0.381802 -0.21829,0.381802 0.35632,-0.330729 0.35631,-0.330729 -0.29854,-0.298538 -0.29853,-0.298537 0.31176,-0.503286 0.31177,-0.503286 -0.39687,-0.260012 -0.39688,-0.260013 -0.92604,0.06965 -0.92604,0.06965 -0.082,-0.576099 -0.082,-0.576098 -0.38464,-0.319222 -0.38464,-0.319222 -0.79241,0.829175 -0.7924,0.829174 h -0.24023 -0.24023 l -0.10933,-0.327973 -0.10932,-0.327973 -1.03721,0.08797 -1.0372,0.08797 -0.22139,0.389827 -0.2214,0.389827 -0.70465,-0.04557 -0.70464,-0.04557 -0.40972,0.02804 -0.40973,0.02804 -1.12783,1.083725 -1.12784,1.083726 -0.24048,0.63252 -0.24048,0.63252 -0.60321,-0.223048 -0.60321,-0.223048 -0.33073,0.116351 -0.33073,0.116352 2.6e-4,0.573263 2.7e-4,0.573264 0.66113,0.768757 0.66126,0.768758 v 0.09114 0.09114 h -0.52713 -0.52713 l -0.70067,-0.786389 -0.70068,-0.786389 -0.2274,0.140546 -0.22741,0.140545 v 0.609462 0.609462 l 0.79375,0.998805 0.79375,0.998804 v 0.47717 0.477171 l -0.24427,0.150967 -0.24427,0.150969 -0.94636,-0.558363 -0.94635,-0.558362 v -0.338344 -0.338344 l -0.38598,-0.32033 -0.38597,-0.320329 -0.15887,0.632984 -0.15887,0.632985 0.56386,1.507031 0.56385,1.507032 h 0.73373 0.73373 l 0.40659,0.463021 0.40659,0.463021 0.2103,0.661458 0.21029,0.661458 0.0465,1.16562 0.0465,1.165619 0.46911,0.343023 0.46912,0.343023 -0.14717,0.383516 -0.14717,0.383516 0.51086,0.133592 0.51086,0.133593 v 1.094401 1.094401 l 1.12447,1.471091 1.12448,1.471089 0.39256,0.624147 0.39257,0.624144 -0.29973,0.794052 -0.29972,0.794051 0.63477,0.684922 0.63476,0.684921 -0.008,0.978556 -0.008,0.978557 -0.38845,0.51359 -0.38847,0.513591 v 0.391618 0.391617 l -0.42279,0.467183 -0.42279,0.46718 0.18497,0.299294 0.18497,0.299294 0.40838,-0.15671 0.40838,-0.156707 0.4909,0.444262 0.4909,0.444261 v 0.752743 0.752742 h 0.35009 0.35009 l 1.10512,1.358535 1.10512,1.358537 v 1.230252 1.230249 l 0.80602,0.476131 0.80603,0.476131 0.35106,-0.291357 0.35107,-0.291359 0.38695,0.148489 0.38695,0.148487 0.44034,0.923388 0.44033,0.923385 v 0.374754 0.37475 l 0.46302,0.269685 0.46302,0.269684 z"
       id="path538" /></g></svg>
