<?xml version="1.0" encoding="UTF-8" standalone="no"?>
<!-- Created with Inkscape (http://www.inkscape.org/) -->

<svg
   width="22.228859mm"
   height="33.782352mm"
   viewBox="0 0 22.228859 33.782352"
   version="1.1"
   id="svg1"
   xml:space="preserve"
   xmlns="http://www.w3.org/2000/svg"
   xmlns:svg="http://www.w3.org/2000/svg"><defs
     id="defs1" /><g
     id="layer1"
     transform="translate(-114.91429,-107.03016)"><path
       style="display:inline;fill:#000000;stroke-width:0.264583"
       d="m 123.68594,140.5911 0.22124,-0.22123 0.1715,-1.64084 0.1715,-1.64085 0.35201,-0.29214 0.35202,-0.29214 0.86719,-0.0398 0.8672,-0.0398 0.41263,-0.52916 0.41265,-0.52917 0.0731,-0.66146 0.0731,-0.66146 -0.0354,-0.52916 -0.0354,-0.52917 -0.0339,-0.85467 -0.0339,-0.85466 0.61616,-0.5344 0.61617,-0.53439 h -0.12742 -0.12743 l 1.11783,-1.16663 1.11783,-1.16663 0.56402,-0.30186 0.56402,-0.30185 -0.15937,-0.25787 -0.15937,-0.25786 0.25821,0.0727 0.25821,0.0727 1.21667,-1.31715 1.21666,-1.31715 v -0.29549 -0.29548 l 0.5385,-0.48734 0.5385,-0.48733 -0.13859,-0.36117 -0.1386,-0.36116 0.21909,0.1354 0.21908,0.1354 0.0618,-0.98156 0.0617,-0.98155 0.0248,-0.33073 0.0248,-0.33073 h 0.19844 0.19843 l 0.1519,0.33073 0.1519,0.33073 -0.14768,-0.59531 -0.14768,-0.59531 h 0.24934 0.24934 l 0.1672,-0.83601 0.16721,-0.83601 -0.12774,-0.12774 -0.12773,-0.12773 -0.42344,0.35142 -0.42343,0.35142 -0.19585,-0.31689 -0.19584,-0.31688 -0.90847,0.29105 -0.90847,0.29105 -0.39687,0.15471 -0.39688,0.15471 -0.81462,0.0876 -0.81463,0.0876 -0.37307,-0.69709 -0.37307,-0.69708 0.0751,-0.57306 0.0751,-0.57305 -1.0547,-0.84758 -1.0547,-0.84758 h -0.24967 -0.24967 l -0.4273,-0.65215 -0.42731,-0.65215 0.004,-0.20774 0.004,-0.20775 0.25648,0.39688 0.25648,0.39687 0.004,-0.61093 0.004,-0.61092 -0.26458,0.16352 -0.26458,0.16352 v -0.41246 -0.41249 h -0.26156 -0.26156 l -0.53219,-0.45568 -0.53218,-0.45567 v -0.33808 -0.33807 h 0.26459 0.26458 v -0.71313 -0.71312 l -0.65974,-0.68863 -0.65975,-0.68862 -2.05223,0.20892 -2.05224,0.20892 -1.34953,-0.15563 -1.34952,-0.15564 -1.07286,0.54733 -1.07286,0.54734 -0.54062,0.68728 -0.54061,0.68728 0.25102,0.66024 0.25102,0.66024 v 1.55466 1.55466 l -0.26458,0.16352 -0.26458,0.16352 v 1.14296 1.14295 l 0.92354,1.53371 0.92355,1.5337 0.53166,0.56592 0.53166,0.56593 v 0.707 0.707 l 0.95836,0.40043 0.95835,0.40043 1.09217,0.003 1.09217,0.003 1.01534,0.16775 1.01535,0.16776 0.27452,0.60251 0.27452,0.60251 -1.05974,1.27734 -1.05973,1.27734 -1.09003,1.74839 -1.09003,1.74838 v 1.07559 1.07559 l 0.66146,0.78609 0.66146,0.7861 v 0.36118 0.36119 l 0.50441,0.31501 0.5044,0.315 0.28458,1.32692 0.28457,1.32691 -0.16046,0.80232 -0.16047,0.80231 0.33923,0.40875 0.33923,0.40874 z"
       id="path102" /></g></svg>
