<?xml version="1.0" encoding="UTF-8" standalone="no"?>
<!-- Created with Inkscape (http://www.inkscape.org/) -->

<svg
   width="18.645664mm"
   height="22.224989mm"
   viewBox="0 0 18.645664 22.224989"
   version="1.1"
   id="svg1"
   xml:space="preserve"
   xmlns="http://www.w3.org/2000/svg"
   xmlns:svg="http://www.w3.org/2000/svg"><defs
     id="defs1" /><g
     id="layer1"
     transform="translate(-97.996317,-36.675822)"><path
       style="display:inline;fill:#000000;stroke-width:0.264583"
       d="m 105.69872,58.900811 h 0.46731 l 0.74491,-0.777515 0.7449,-0.777515 -0.13963,-0.730449 -0.13963,-0.730445 0.21612,-0.568447 0.21612,-0.568447 0.81561,-0.892974 0.8156,-0.892971 v -0.325461 -0.325459 l -0.30705,-0.67391 -0.30705,-0.673907 h -0.22212 -0.22211 l 0.0662,-0.308681 0.0661,-0.308679 0.45702,-0.47907 0.45702,-0.479068 -0.13833,-0.360484 -0.13833,-0.360487 0.40891,-0.339371 0.40892,-0.33937 V 47.737017 47.48593 l 0.37798,-0.377976 0.37797,-0.377976 h 0.28348 0.28349 l 0.0217,0.330729 0.0217,0.330729 -0.0387,1.058334 -0.0387,1.058333 -0.0703,1.150048 -0.0703,1.150046 0.35259,0.1353 0.35258,0.135303 1.77329,-0.352475 1.7733,-0.352476 0.63634,-0.547362 0.63635,-0.547362 -0.43152,-1.271 -0.43151,-1.271 -0.16199,-4.009302 -0.16198,-4.009303 0.43559,-1.032812 0.43558,-1.032811 -0.0696,-0.03945 -0.0696,-0.03945 -0.7183,-0.449088 -0.71829,-0.449088 h -0.61785 -0.61785 l -0.25136,0.230424 -0.25135,0.230423 -0.79375,0.174489 -0.79375,0.174489 0.39687,-0.268569 0.39688,-0.268569 -0.4458,-0.0041 -0.4458,-0.0041 -0.6946,0.264088 -0.6946,0.264088 0.19161,0.310041 0.19162,0.310042 -0.44028,-0.168951 -0.44028,-0.16895 v 0.643845 0.643845 l -0.50782,0.271779 -0.50782,0.271778 -0.15657,-0.328615 -0.15657,-0.328615 0.10846,0.587679 0.10846,0.58768 -0.95027,-0.397047 -0.95027,-0.397047 -0.4926,0.492602 -0.4926,0.492601 0.43482,0.360871 0.43482,0.36087 -0.0549,-0.382646 -0.0549,-0.382647 0.0313,-0.330729 0.0314,-0.330729 h 0.2802 0.2802 l -0.20706,0.330729 -0.20706,0.330729 -0.007,0.351447 -0.007,0.351447 -1.02272,0.706886 -1.02271,0.706887 -0.34741,1.027779 -0.3474,1.02778 -1.01113,1.042697 -1.01113,1.042696 -0.8572,0.362295 -0.857207,0.362294 0.159057,0.4145 0.15906,0.414501 -0.382727,-0.146867 -0.38273,-0.146865 -0.589434,0.477298 -0.589437,0.4773 -0.14892,1.11034 -0.14893,1.11034 0.430177,1.075123 0.43018,1.075122 0.0186,0.722251 0.0186,0.722249 0.215667,-0.529166 0.21567,-0.529167 0.190827,0.725776 0.19083,0.725776 0.19226,-0.118825 0.192267,-0.118824 v 0.396621 0.396624 L 99.738593,55.34854 99.385826,55.213165 v 0.227973 0.227971 l 0.418507,0.160599 0.418507,0.1606 h 0.53284 0.53282 l 0.75733,-0.539266 0.75733,-0.539266 0.7835,1.399162 0.7835,1.399161 0.4306,0.595313 0.43059,0.595312 z"
       id="path621" /></g></svg>
