<?xml version="1.0" encoding="UTF-8" standalone="no"?>
<!-- Created with Inkscape (http://www.inkscape.org/) -->

<svg
   width="17.476744mm"
   height="15.509438mm"
   viewBox="0 0 17.476744 15.509438"
   version="1.1"
   id="svg1"
   xml:space="preserve"
   xmlns="http://www.w3.org/2000/svg"
   xmlns:svg="http://www.w3.org/2000/svg"><defs
     id="defs1" /><g
     id="layer1"
     transform="translate(-147.67932,-119.36223)"><path
       style="fill:#000000;stroke-width:0.0319749"
       d="m 156.44971,134.73315 c -0.31401,-0.23213 -0.89014,-0.87191 -1.38131,-1.5339 -0.0757,-0.10207 -0.32545,-0.46153 -0.55493,-0.79881 -0.62522,-0.91894 -1.19779,-1.66712 -1.81599,-2.37297 -0.71883,-0.82072 -1.24227,-1.59712 -1.82687,-2.70965 -0.51915,-0.98799 -1.17898,-2.05577 -1.73395,-2.806 -0.76379,-1.03253 -1.2107,-1.84755 -1.38298,-2.52212 -0.12119,-0.47452 -0.0967,-0.72092 0.0917,-0.92098 0.0625,-0.0664 0.1496,-0.11463 0.25085,-0.13892 0.46764,-0.11219 1.68705,0.40526 2.93237,1.24432 0.73087,0.49243 1.16828,0.88843 2.17599,1.96998 1.55946,1.67375 2.42124,2.72079 2.48582,3.0202 0.0531,0.24624 0.23308,0.44692 0.5727,0.6386 0.25892,0.14612 0.41745,0.31683 0.43825,0.4719 0.0259,0.19332 0.383,0.94104 0.96677,2.02446 0.82408,1.52942 0.98629,1.93806 0.99004,2.49404 0.002,0.31432 -0.004,0.34963 -0.10091,0.55355 -0.16752,0.35369 -0.58856,0.75005 -1.30372,1.22731 -0.34235,0.22846 -0.47102,0.2975 -0.55446,0.2975 -0.0341,0 -0.14634,-0.0623 -0.24939,-0.13851 z"
       id="path39" /><path
       style="fill:#000000;stroke-width:0.0452191"
       d="m 160.28111,132.21494 c -0.35214,-0.0584 -0.59977,-0.22146 -0.83329,-0.54872 -0.35737,-0.50083 -1.07026,-1.6724 -1.27202,-2.09042 -0.2444,-0.50639 -0.31291,-0.71324 -0.44894,-1.35546 -0.11699,-0.55238 -0.19725,-0.74914 -0.34889,-0.85535 -0.0928,-0.065 -0.0962,-0.091 -0.0676,-0.52717 0.038,-0.57967 0.14363,-1.09964 0.27002,-1.32907 0.056,-0.1017 0.20492,-0.25163 0.34687,-0.3493 0.37909,-0.2608 0.7868,-0.64559 1.36337,-1.28672 1.02017,-1.13439 1.93304,-2.33681 2.4764,-3.26185 0.65702,-1.11856 0.80593,-1.25084 1.40566,-1.24863 0.2815,10e-4 0.41754,0.0308 0.80034,0.17525 0.25365,0.0957 0.45009,0.19195 0.43653,0.2139 -0.0514,0.0832 0.0894,0.30139 0.32691,0.50642 0.34575,0.2985 0.44253,0.50507 0.41525,0.88634 -0.0178,0.24798 -0.0622,0.38057 -0.254,0.75812 -0.31398,0.61797 -0.3607,0.89745 -0.28298,1.69299 0.0955,0.9777 0.10997,1.53591 0.0538,2.07777 -0.0987,0.95329 -0.28828,1.69823 -0.51733,2.03327 -0.0927,0.13561 -0.12277,0.14991 -0.29225,0.13903 -0.17926,-0.0115 -0.18888,-0.006 -0.18837,0.11305 2.6e-4,0.0688 0.0306,0.23709 0.0673,0.37388 0.0881,0.32807 0.0862,0.34904 -0.041,0.46698 -0.15615,0.14472 -0.24295,0.49702 -0.31946,1.29657 -0.0745,0.77829 -0.13871,1.04021 -0.34108,1.39088 -0.23959,0.41515 -0.6683,0.65012 -1.3455,0.73745 -0.38108,0.0491 -1.08561,0.0445 -1.40975,-0.009 z"
       id="path42" /></g></svg>
