<?xml version="1.0" encoding="UTF-8" standalone="no"?>
<!-- Created with Inkscape (http://www.inkscape.org/) -->

<svg
   width="17.469643mm"
   height="14.325454mm"
   viewBox="0 0 17.469643 14.325454"
   version="1.1"
   id="svg1"
   xml:space="preserve"
   xmlns="http://www.w3.org/2000/svg"
   xmlns:svg="http://www.w3.org/2000/svg"><defs
     id="defs1" /><g
     id="layer1"
     transform="translate(-19.977675,-54.123598)"><path
       style="fill:#000000;stroke-width:0.264583"
       d="m 29.252345,68.449051 h 7.088229 l 0.170829,-2.57969 0.170828,-2.57969 0.0013,-1.79524 0.0013,-1.79525 0.381243,-0.586 0.381243,-0.58601 -0.07424,-1.91991 -0.07425,-1.91991 -0.108561,-0.09596 -0.108469,-0.09596 -8.532812,-0.185916 -8.532813,-0.185916 0.0084,0.481993 0.0084,0.481992 0.38846,0.513591 0.388462,0.513591 v 1.296755 1.29676 l 0.512039,0.65095 0.512038,0.65095 -0.557488,0.97828 -0.557489,0.97828 -0.37066,0.43897 -0.37066,0.43896 0.449738,0.88395 0.449738,0.88396 0.50666,0.48369 0.50666,0.48369 -0.05795,1.11945 -0.05795,1.11946 0.194733,0.31508 0.194733,0.31509 z"
       id="path607" /></g></svg>
