<?xml version="1.0" encoding="UTF-8" standalone="no"?>
<!-- Created with Inkscape (http://www.inkscape.org/) -->

<svg
   width="24.680147mm"
   height="14.055045mm"
   viewBox="0 0 24.680147 14.055045"
   version="1.1"
   id="svg1"
   xml:space="preserve"
   xmlns="http://www.w3.org/2000/svg"
   xmlns:svg="http://www.w3.org/2000/svg"><defs
     id="defs1" /><g
     id="layer1"
     transform="translate(-36.601403,-102.66533)"><path
       style="fill:#000000;stroke-width:0.264583"
       d="m 44.390227,116.66393 0.511355,-0.0564 0.199734,-0.75141 0.199731,-0.7514 -0.275289,-0.60419 -0.275285,-0.60419 0.299439,-0.55951 0.299442,-0.55952 0.664483,-0.16677 0.664483,-0.16677 0.473194,0.42823 0.473191,0.42823 h 0.552839 0.552841 l 0.418513,-0.1606 0.418515,-0.16059 v -1.05948 -1.05947 l 0.881711,0.16541 0.881711,0.16541 0.482213,-0.53284 0.482214,-0.53284 h 0.327139 0.327139 l 0.418137,1.04503 0.418139,1.04503 0.580472,0.31066 0.580475,0.31066 1.532234,-0.13894 1.532234,-0.13893 1.112467,-0.62144 1.112464,-0.62144 0.522695,-0.70695 0.522695,-0.70694 -0.16022,-0.41754 -0.16023,-0.41753 h -1.798966 -1.798968 l -1.053608,-0.70098 -1.053605,-0.70098 -1.206286,-1.28304 -1.206285,-1.28305 -1.540738,-0.28482 -1.540737,-0.28482 -0.57639,0.14466 -0.576389,0.14467 -0.919054,-0.25377 -0.919054,-0.25376 -1.29748,-0.82284 -1.29748,-0.82283 -1.696974,0.88568 -1.696976,0.88567 -0.996016,1.32292 -0.996019,1.32292 -0.587243,0.52465 -0.587242,0.52464 0.172447,1.38023 0.172448,1.38023 -0.679543,0.59085 -0.67954,0.59086 0.596024,0.64478 0.596027,0.64478 1.058333,0.69343 1.058334,0.69344 1.984375,0.98498 1.984375,0.98499 z"
       id="path301" /></g></svg>
