<?xml version="1.0" encoding="UTF-8" standalone="no"?>
<!-- Created with Inkscape (http://www.inkscape.org/) -->

<svg
   width="30.031063mm"
   height="36.696999mm"
   viewBox="0 0 30.031063 36.696999"
   version="1.1"
   id="svg1"
   xml:space="preserve"
   xmlns="http://www.w3.org/2000/svg"
   xmlns:svg="http://www.w3.org/2000/svg"><defs
     id="defs1" /><g
     id="layer1"
     transform="translate(-176.37804,-30.854993)"><path
       style="display:inline;fill:#000000;stroke-width:0.264583"
       d="m 187.09524,67.453896 0.26458,-0.09802 0.50158,-1.044282 0.50157,-1.044283 -0.16679,-1.59575 -0.16679,-1.59575 h 0.28752 0.28753 l -0.16498,-1.78073 -0.16497,-1.780728 -0.43951,-1.394272 -0.4395,-1.39427 h -0.21627 -0.21626 v -0.280199 -0.280196 l 0.26458,0.16352 0.26458,0.163521 v -0.800055 -0.800055 l -0.52653,-0.281792 -0.52653,-0.281792 0.0635,-0.281308 0.0635,-0.281305 -0.45629,-0.300508 -0.45629,-0.300509 -0.85297,0.321961 -0.85297,0.321961 -0.19463,-0.314928 -0.19464,-0.314926 0.11876,-0.192153 0.11876,-0.192154 -0.59924,-0.08522 -0.59924,-0.08522 0.0745,-0.914009 0.0745,-0.914011 0.5176,-0.482213 0.51759,-0.482214 0.17028,-0.67845 0.17028,-0.678448 1.17526,-0.503773 1.17525,-0.503772 0.49236,0.263502 0.49236,0.263502 h 0.5157 0.5157 l 0.13838,-0.529166 0.13838,-0.529167 h 0.28431 0.28432 l 0.16601,0.661458 0.16602,0.661459 h 0.73267 0.73267 l 0.30611,-0.368844 0.30611,-0.368843 -0.38688,-0.386886 -0.38689,-0.386886 -0.17163,-0.914885 -0.17163,-0.914884 0.4055,-0.336539 0.4055,-0.336539 0.27618,0.170684 0.27617,0.170685 v 0.38126 0.38126 h 0.2802 0.2802 l -0.16468,0.266452 -0.16467,0.266452 0.41701,0.160023 0.41701,0.160024 0.34842,-0.289162 0.34842,-0.289162 -0.10396,-0.732626 -0.10395,-0.732626 0.41362,-0.529167 0.41363,-0.529166 0.39688,0.51359 0.39687,0.513591 v 0.486142 0.486142 l -0.85512,1.646101 -0.85511,1.6461 -0.0118,0.264584 -0.0118,0.264583 -0.15988,0.264583 -0.15988,0.264584 0.001,1.984375 0.001,1.984375 0.91832,1.657752 0.91833,1.657755 0.50956,0.272711 0.50957,0.272711 0.23876,-0.147561 0.23876,-0.147563 0.20125,-0.856861 0.20126,-0.856861 0.0219,-0.396875 0.0219,-0.396875 -0.29997,-0.396875 -0.29998,-0.396875 0.009,-0.463021 0.009,-0.463021 h 0.22028 0.22048 v -0.811143 -0.811144 l -0.27389,-0.511773 -0.27389,-0.511773 h 0.26558 0.26559 l -0.17373,-0.463021 -0.17374,-0.463021 -0.31909,-0.264583 -0.31909,-0.264583 -0.11404,-0.856757 -0.11405,-0.856756 0.50708,-0.160938 0.50706,-0.160938 -0.1293,-0.494456 -0.1293,-0.494456 0.43898,-0.139326 0.43897,-0.139326 0.79612,-0.09269 0.79611,-0.09269 0.58708,-0.314194 0.58707,-0.314195 0.37448,-0.71976 0.37447,-0.719761 0.6866,-0.641433 0.6866,-0.641433 v -0.21365 -0.21365 l -0.8599,-0.881758 -0.85989,-0.881758 0.34516,-0.710555 0.34517,-0.710555 h 0.237 0.237 l 0.24552,0.438719 0.24551,0.438719 0.62753,0.04394 0.62752,0.04394 0.35837,0.735512 0.35837,0.735511 0.80704,-0.161408 0.80704,-0.161408 0.36262,-0.300948 0.36262,-0.300949 -0.40993,-0.452967 -0.40993,-0.452966 0.1664,-0.433619 0.16639,-0.433619 0.30301,0.181561 0.303,0.181561 -0.37917,-0.467002 -0.37918,-0.467002 -0.99934,-0.509828 -0.99935,-0.509829 h -0.5027 -0.5027 l -0.98443,-0.928441 -0.98444,-0.928442 -0.2432,0.150307 -0.2432,0.150306 v -0.248099 -0.248099 l -0.85989,-0.338878 -0.8599,-0.338878 -0.66146,-0.587218 -0.66145,-0.587218 -0.95667,-0.169663 -0.95667,-0.169662 -0.45266,0.173703 -0.45267,0.173702 -0.23776,0.625373 -0.23777,0.625374 h -0.38781 -0.38781 l -0.16352,-0.264584 -0.16352,-0.264583 h -2.07062 -2.07062 l -0.43341,-0.661458 -0.4334,-0.661459 h -0.60547 -0.60547 l -0.53374,0.497253 -0.53374,0.497253 -0.3196,0.759518 -0.3196,0.759518 -1.04863,0.744763 -1.04863,0.744764 v 0.963873 0.963872 l 0.94455,0.967312 0.94455,0.967311 -0.3704,1.270324 -0.37041,1.270323 -0.56573,0.209276 -0.56572,0.209275 -0.15693,-0.253914 -0.15693,-0.253913 -0.6487,0.162814 -0.64871,0.162815 -0.287,-0.823302 -0.28701,-0.823302 -0.43714,0.0046 -0.43713,0.0046 -0.62309,0.656887 -0.62308,0.656887 h -0.21356 -0.21355 l -0.17772,1.0519 -0.17772,1.0519 -0.63471,0.601746 -0.63472,0.601746 -0.005,3.196058 -0.005,3.196055 1.45521,1.608058 1.45521,1.608059 v 0.584557 0.584554 l 0.59531,-0.187886 0.59531,-0.187886 0.70236,-0.133879 0.70235,-0.133879 1.06547,1.097894 1.06547,1.097894 0.16133,0.734549 0.16134,0.734547 -0.29125,0.766022 -0.29124,0.766021 0.0716,1.922815 0.0716,1.922814 -0.32046,0.320463 -0.32045,0.320461 v 0.336394 0.336394 l 0.8599,0.222766 0.85989,0.222766 0.1323,0.737534 0.13229,0.737531 0.79375,0.33011 0.79375,0.33011 z"
       id="path567" /></g></svg>
